  0
SECTION
  2
HEADER
  9
$ACADVER
  1
AC1014
  9
$HANDSEED
  5
FFFF
  9
$MEASUREMENT
 70
     1
  0
ENDSEC
  0
SECTION
  2
TABLES
  0
TABLE
  2
VPORT
  5
8
330
0
100
AcDbSymbolTable
 70
     4
  0
VPORT
  5
2E
330
8
100
AcDbSymbolTableRecord
100
AcDbViewportTableRecord
  2
*ACTIVE
 70
     0
 10
0.0
 20
0.0
 11
1.0
 21
1.0
 12
210.0
 22
148.5
 13
0.0
 23
0.0
 14
10.0
 24
10.0
 15
10.0
 25
10.0
 16
0.0
 26
0.0
 36
1.0
 17
0.0
 27
0.0
 37
0.0
 40
341.0
 41
1.24
 42
50.0
 43
0.0
 44
0.0
 50
0.0
 51
0.0
 71
     0
 72
   100
 73
     1
 74
     3
 75
     0
 76
     0
 77
     0
 78
     0
  0
ENDTAB
  0
TABLE
  2
LTYPE
  5
5
330
0
100
AcDbSymbolTable
 70
     1
  0
LTYPE
  5
14
330
5
100
AcDbSymbolTableRecord
100
AcDbLinetypeTableRecord
  2
BYBLOCK
 70
     0
  3

 72
    65
 73
     0
 40
0.0
  0
LTYPE
  5
15
330
5
100
AcDbSymbolTableRecord
100
AcDbLinetypeTableRecord
  2
BYLAYER
 70
     0
  3

 72
    65
 73
     0
 40
0.0
  0
LTYPE
  5
16
330
5
100
AcDbSymbolTableRecord
100
AcDbLinetypeTableRecord
  2
CONTINUOUS
 70
     0
  3
Solid line
 72
    65
 73
     0
 40
0.0
  0
ENDTAB
  0
TABLE
  2
LAYER
  5
2
100
AcDbSymbolTable
 70
3
  0
LAYER
  5
50
100
AcDbSymbolTableRecord
100
AcDbLayerTableRecord
  2
0
 70
0
  6
CONTINUOUS
  0
LAYER
  5
51
100
AcDbSymbolTableRecord
100
AcDbLayerTableRecord
  2
Main
 70
0
  6
CONTINUOUS
  0
LAYER
  5
52
100
AcDbSymbolTableRecord
100
AcDbLayerTableRecord
  2
Slots
 70
0
  6
CONTINUOUS
  0
ENDTAB
  0
TABLE
  2
STYLE
  5
3
330
0
100
AcDbSymbolTable
 70
     1
  0
STYLE
  5
11
330
3
100
AcDbSymbolTableRecord
100
AcDbTextStyleTableRecord
  2
STANDARD
 70
     0
 40
0.0
 41
1.0
 50
0.0
 71
     0
 42
2.5
  3
txt
  4

  0
ENDTAB
  0
TABLE
  2
VIEW
  5
6
330
0
100
AcDbSymbolTable
 70
     0
  0
ENDTAB
  0
TABLE
  2
UCS
  5
7
330
0
100
AcDbSymbolTable
 70
     0
  0
ENDTAB
  0
TABLE
  2
APPID
  5
9
330
0
100
AcDbSymbolTable
 70
     2
  0
APPID
  5
12
330
9
100
AcDbSymbolTableRecord
100
AcDbRegAppTableRecord
  2
ACAD
 70
     0
  0
ENDTAB
  0
TABLE
  2
DIMSTYLE
  5
A
330
0
100
AcDbSymbolTable
 70
     1
  0
DIMSTYLE
105
27
330
A
100
AcDbSymbolTableRecord
100
AcDbDimStyleTableRecord
  2
ISO-25
 70
     0
  3

  4

  5

  6

  7

 40
1.0
 41
2.5
 42
0.625
 43
3.75
 44
1.25
 45
0.0
 46
0.0
 47
0.0
 48
0.0
140
2.5
141
2.5
142
0.0
143
0.03937007874016
144
1.0
145
0.0
146
1.0
147
0.625
 71
     0
 72
     0
 73
     0
 74
     0
 75
     0
 76
     0
 77
     1
 78
     8
170
     0
171
     3
172
     1
173
     0
174
     0
175
     0
176
     0
177
     0
178
     0
270
     2
271
     2
272
     2
273
     2
274
     3
340
11
275
     0
280
     0
281
     0
282
     0
283
     0
284
     8
285
     0
286
     0
287
     3
288
     0
  0
ENDTAB
  0
TABLE
  2
BLOCK_RECORD
  5
1
330
0
100
AcDbSymbolTable
 70
     1
  0
BLOCK_RECORD
  5
1F
330
1
100
AcDbSymbolTableRecord
100
AcDbBlockTableRecord
  2
*MODEL_SPACE
  0
BLOCK_RECORD
  5
1B
330
1
100
AcDbSymbolTableRecord
100
AcDbBlockTableRecord
  2
*PAPER_SPACE
  0
ENDTAB
  0
ENDSEC
  0
SECTION
  2
BLOCKS
  0
BLOCK
  5
20
330
1F
100
AcDbEntity
  8
0
100
AcDbBlockBegin
  2
*MODEL_SPACE
 70
     0
 10
0.0
 20
0.0
 30
0.0
  3
*MODEL_SPACE
  1

  0
ENDBLK
  5
21
330
1F
100
AcDbEntity
  8
0
100
AcDbBlockEnd
  0
BLOCK
  5
1C
330
1B
100
AcDbEntity
 67
     1
  8
0
100
AcDbBlockBegin
  2
*PAPER_SPACE
  1

  0
ENDBLK
  5
1D
330
1B
100
AcDbEntity
 67
     1
  8
0
100
AcDbBlockEnd
  0
ENDSEC
  0
SECTION
  2
ENTITIES
  0
SPLINE
  5
100
100
AcDbEntity
  8
Main
 62
7
100
AcDbSpline
 70
8
 71
3
 72
8
 73
4
 74
0
 40
0
 40
0
 40
0
 40
0
 40
1
 40
1
 40
1
 40
1
 10
209.858886
 20
109.999996
 30
0.0
 10
209.858886
 20
54.849456
 30
0.0
 10
165.150544
 20
10.141114
 30
0.0
 10
110.000004
 20
10.141114
 30
0.0
  0
SPLINE
  5
101
100
AcDbEntity
  8
Main
 62
7
100
AcDbSpline
 70
8
 71
3
 72
8
 73
4
 74
0
 40
0
 40
0
 40
0
 40
0
 40
1
 40
1
 40
1
 40
1
 10
110.000004
 20
10.141114
 30
0.0
 10
54.849454
 20
10.141114
 30
0.0
 10
10.141113
 20
54.849456
 30
0.0
 10
10.141113
 20
109.999996
 30
0.0
  0
SPLINE
  5
102
100
AcDbEntity
  8
Main
 62
7
100
AcDbSpline
 70
8
 71
3
 72
8
 73
4
 74
0
 40
0
 40
0
 40
0
 40
0
 40
1
 40
1
 40
1
 40
1
 10
10.141113
 20
109.999996
 30
0.0
 10
10.141113
 20
165.150537
 30
0.0
 10
54.849454
 20
209.858888
 30
0.0
 10
110.000004
 20
209.858888
 30
0.0
  0
SPLINE
  5
103
100
AcDbEntity
  8
Main
 62
7
100
AcDbSpline
 70
8
 71
3
 72
8
 73
4
 74
0
 40
0
 40
0
 40
0
 40
0
 40
1
 40
1
 40
1
 40
1
 10
110.000004
 20
209.858888
 30
0.0
 10
165.150544
 20
209.858888
 30
0.0
 10
209.858886
 20
165.150537
 30
0.0
 10
209.858886
 20
109.999996
 30
0.0
  0
LWPOLYLINE
  5
104
100
AcDbEntity
  8
Main
 62
7
100
AcDbPolyline
 90
2
 70
0
 10
209.858886
 20
109.999996
 30
0.0
 10
209.858886
 20
109.999996
 30
0.0
  0
LWPOLYLINE
  5
105
100
AcDbEntity
  8
Main
 62
5
100
AcDbPolyline
 90
2
 70
0
 10
26.122751
 20
149.858889
 30
0.0
 10
26.122751
 20
149.858889
 30
0.0
  0
SPLINE
  5
106
100
AcDbEntity
  8
Main
 62
5
100
AcDbSpline
 70
8
 71
3
 72
8
 73
4
 74
0
 40
0
 40
0
 40
0
 40
0
 40
1
 40
1
 40
1
 40
1
 10
25.141111
 20
147.494530
 30
0.0
 10
25.141111
 20
148.806184
 30
0.0
 10
25.579069
 20
149.858889
 30
0.0
 10
26.122751
 20
149.858889
 30
0.0
  0
LWPOLYLINE
  5
107
100
AcDbEntity
  8
Main
 62
5
100
AcDbPolyline
 90
2
 70
0
 10
25.141111
 20
72.514278
 30
0.0
 10
25.141111
 20
147.494530
 30
0.0
  0
SPLINE
  5
108
100
AcDbEntity
  8
Main
 62
5
100
AcDbSpline
 70
8
 71
3
 72
8
 73
4
 74
0
 40
0
 40
0
 40
0
 40
0
 40
1
 40
1
 40
1
 40
1
 10
26.122751
 20
70.141111
 30
0.0
 10
25.579069
 20
70.141111
 30
0.0
 10
25.141111
 20
71.202661
 30
0.0
 10
25.141111
 20
72.514278
 30
0.0
  0
LWPOLYLINE
  5
109
100
AcDbEntity
  8
Main
 62
5
100
AcDbPolyline
 90
2
 70
0
 10
35.886094
 20
70.141111
 30
0.0
 10
26.122751
 20
70.141111
 30
0.0
  0
SPLINE
  5
10a
100
AcDbEntity
  8
Main
 62
5
100
AcDbSpline
 70
8
 71
3
 72
8
 73
4
 74
0
 40
0
 40
0
 40
0
 40
0
 40
1
 40
1
 40
1
 40
1
 10
36.858888
 20
72.514278
 30
0.0
 10
36.858888
 20
71.202715
 30
0.0
 10
36.429775
 20
70.141111
 30
0.0
 10
35.886094
 20
70.141111
 30
0.0
  0
LWPOLYLINE
  5
10b
100
AcDbEntity
  8
Main
 62
5
100
AcDbPolyline
 90
2
 70
0
 10
36.858888
 20
147.494530
 30
0.0
 10
36.858888
 20
72.514278
 30
0.0
  0
SPLINE
  5
10c
100
AcDbEntity
  8
Main
 62
5
100
AcDbSpline
 70
8
 71
3
 72
8
 73
4
 74
0
 40
0
 40
0
 40
0
 40
0
 40
1
 40
1
 40
1
 40
1
 10
35.886094
 20
149.858889
 30
0.0
 10
36.429775
 20
149.858889
 30
0.0
 10
36.858888
 20
148.806184
 30
0.0
 10
36.858888
 20
147.494530
 30
0.0
  0
LWPOLYLINE
  5
10d
100
AcDbEntity
  8
Main
 62
5
100
AcDbPolyline
 90
2
 70
0
 10
26.122751
 20
149.858889
 30
0.0
 10
35.886094
 20
149.858889
 30
0.0
  0
LWPOLYLINE
  5
10e
100
AcDbEntity
  8
Main
 62
5
100
AcDbPolyline
 90
2
 70
0
 10
184.122012
 20
149.858889
 30
0.0
 10
184.122012
 20
149.858889
 30
0.0
  0
SPLINE
  5
10f
100
AcDbEntity
  8
Main
 62
5
100
AcDbSpline
 70
8
 71
3
 72
8
 73
4
 74
0
 40
0
 40
0
 40
0
 40
0
 40
1
 40
1
 40
1
 40
1
 10
183.141112
 20
147.494530
 30
0.0
 10
183.141112
 20
148.806184
 30
0.0
 10
183.578743
 20
149.858889
 30
0.0
 10
184.122012
 20
149.858889
 30
0.0
  0
LWPOLYLINE
  5
110
100
AcDbEntity
  8
Main
 62
5
100
AcDbPolyline
 90
2
 70
0
 10
183.141112
 20
72.514278
 30
0.0
 10
183.141112
 20
147.494530
 30
0.0
  0
SPLINE
  5
111
100
AcDbEntity
  8
Main
 62
5
100
AcDbSpline
 70
8
 71
3
 72
8
 73
4
 74
0
 40
0
 40
0
 40
0
 40
0
 40
1
 40
1
 40
1
 40
1
 10
184.122012
 20
70.141111
 30
0.0
 10
183.578743
 20
70.141111
 30
0.0
 10
183.141112
 20
71.202661
 30
0.0
 10
183.141112
 20
72.514278
 30
0.0
  0
LWPOLYLINE
  5
112
100
AcDbEntity
  8
Main
 62
5
100
AcDbPolyline
 90
2
 70
0
 10
193.877988
 20
70.141111
 30
0.0
 10
184.122012
 20
70.141111
 30
0.0
  0
SPLINE
  5
113
100
AcDbEntity
  8
Main
 62
5
100
AcDbSpline
 70
8
 71
3
 72
8
 73
4
 74
0
 40
0
 40
0
 40
0
 40
0
 40
1
 40
1
 40
1
 40
1
 10
194.858888
 20
72.514278
 30
0.0
 10
194.858888
 20
71.202715
 30
0.0
 10
194.421260
 20
70.141111
 30
0.0
 10
193.877988
 20
70.141111
 30
0.0
  0
LWPOLYLINE
  5
114
100
AcDbEntity
  8
Main
 62
5
100
AcDbPolyline
 90
2
 70
0
 10
194.858888
 20
147.494530
 30
0.0
 10
194.858888
 20
72.514278
 30
0.0
  0
SPLINE
  5
115
100
AcDbEntity
  8
Main
 62
5
100
AcDbSpline
 70
8
 71
3
 72
8
 73
4
 74
0
 40
0
 40
0
 40
0
 40
0
 40
1
 40
1
 40
1
 40
1
 10
193.877988
 20
149.858889
 30
0.0
 10
194.421260
 20
149.858889
 30
0.0
 10
194.858888
 20
148.806184
 30
0.0
 10
194.858888
 20
147.494530
 30
0.0
  0
LWPOLYLINE
  5
116
100
AcDbEntity
  8
Main
 62
5
100
AcDbPolyline
 90
2
 70
0
 10
184.122012
 20
149.858889
 30
0.0
 10
193.877988
 20
149.858889
 30
0.0
  0
LWPOLYLINE
  5
117
100
AcDbEntity
  8
Slots
 62
1
100
AcDbPolyline
 90
5
 70
0
 10
92.141127
 20
25.141119
 30
0.0
 10
103.858905
 20
25.141119
 30
0.0
 10
103.858905
 20
28.858897
 30
0.0
 10
92.141127
 20
28.858897
 30
0.0
 10
92.141127
 20
25.141119
 30
0.0
  0
LWPOLYLINE
  5
118
100
AcDbEntity
  8
Slots
 62
1
100
AcDbPolyline
 90
5
 70
0
 10
92.141127
 20
33.141114
 30
0.0
 10
103.858905
 20
33.141114
 30
0.0
 10
103.858905
 20
36.858892
 30
0.0
 10
92.141127
 20
36.858892
 30
0.0
 10
92.141127
 20
33.141114
 30
0.0
  0
LWPOLYLINE
  5
119
100
AcDbEntity
  8
Slots
 62
1
100
AcDbPolyline
 90
5
 70
0
 10
60.141110
 20
33.141114
 30
0.0
 10
71.858887
 20
33.141114
 30
0.0
 10
71.858887
 20
36.858892
 30
0.0
 10
60.141110
 20
36.858892
 30
0.0
 10
60.141110
 20
33.141114
 30
0.0
  0
LWPOLYLINE
  5
11a
100
AcDbEntity
  8
Slots
 62
1
100
AcDbPolyline
 90
5
 70
0
 10
84.141135
 20
36.858904
 30
0.0
 10
84.141135
 20
25.141126
 30
0.0
 10
87.858913
 20
25.141126
 30
0.0
 10
87.858913
 20
36.858904
 30
0.0
 10
84.141135
 20
36.858904
 30
0.0
  0
LWPOLYLINE
  5
11b
100
AcDbEntity
  8
Slots
 62
1
100
AcDbPolyline
 90
5
 70
0
 10
76.141106
 20
36.858904
 30
0.0
 10
76.141106
 20
25.141126
 30
0.0
 10
79.858884
 20
25.141126
 30
0.0
 10
79.858884
 20
36.858904
 30
0.0
 10
76.141106
 20
36.858904
 30
0.0
  0
LWPOLYLINE
  5
11c
100
AcDbEntity
  8
Slots
 62
1
100
AcDbPolyline
 90
5
 70
0
 10
76.140778
 20
41.141124
 30
0.0
 10
87.858556
 20
41.141124
 30
0.0
 10
87.858556
 20
44.858901
 30
0.0
 10
76.140778
 20
44.858901
 30
0.0
 10
76.140778
 20
41.141124
 30
0.0
  0
LWPOLYLINE
  5
11d
100
AcDbEntity
  8
Slots
 62
1
100
AcDbPolyline
 90
5
 70
0
 10
44.140778
 20
41.141124
 30
0.0
 10
55.858555
 20
41.141124
 30
0.0
 10
55.858555
 20
44.858901
 30
0.0
 10
44.140778
 20
44.858901
 30
0.0
 10
44.140778
 20
41.141124
 30
0.0
  0
LWPOLYLINE
  5
11e
100
AcDbEntity
  8
Slots
 62
1
100
AcDbPolyline
 90
5
 70
0
 10
76.140778
 20
49.141119
 30
0.0
 10
87.858556
 20
49.141119
 30
0.0
 10
87.858556
 20
52.858897
 30
0.0
 10
76.140778
 20
52.858897
 30
0.0
 10
76.140778
 20
49.141119
 30
0.0
  0
LWPOLYLINE
  5
11f
100
AcDbEntity
  8
Slots
 62
1
100
AcDbPolyline
 90
5
 70
0
 10
44.140778
 20
49.141119
 30
0.0
 10
55.858555
 20
49.141119
 30
0.0
 10
55.858555
 20
52.858897
 30
0.0
 10
44.140778
 20
52.858897
 30
0.0
 10
44.140778
 20
49.141119
 30
0.0
  0
LWPOLYLINE
  5
120
100
AcDbEntity
  8
Slots
 62
1
100
AcDbPolyline
 90
5
 70
0
 10
100.140778
 20
52.858894
 30
0.0
 10
100.140778
 20
41.141117
 30
0.0
 10
103.858556
 20
41.141117
 30
0.0
 10
103.858556
 20
52.858894
 30
0.0
 10
100.140778
 20
52.858894
 30
0.0
  0
LWPOLYLINE
  5
121
100
AcDbEntity
  8
Slots
 62
1
100
AcDbPolyline
 90
5
 70
0
 10
92.140783
 20
52.858894
 30
0.0
 10
92.140783
 20
41.141117
 30
0.0
 10
95.858561
 20
41.141117
 30
0.0
 10
95.858561
 20
52.858894
 30
0.0
 10
92.140783
 20
52.858894
 30
0.0
  0
LWPOLYLINE
  5
122
100
AcDbEntity
  8
Slots
 62
1
100
AcDbPolyline
 90
5
 70
0
 10
68.140794
 20
52.858894
 30
0.0
 10
68.140794
 20
41.141117
 30
0.0
 10
71.858572
 20
41.141117
 30
0.0
 10
71.858572
 20
52.858894
 30
0.0
 10
68.140794
 20
52.858894
 30
0.0
  0
LWPOLYLINE
  5
123
100
AcDbEntity
  8
Slots
 62
1
100
AcDbPolyline
 90
5
 70
0
 10
60.140799
 20
52.858894
 30
0.0
 10
60.140799
 20
41.141117
 30
0.0
 10
63.858577
 20
41.141117
 30
0.0
 10
63.858577
 20
52.858894
 30
0.0
 10
60.140799
 20
52.858894
 30
0.0
  0
LWPOLYLINE
  5
124
100
AcDbEntity
  8
Slots
 62
1
100
AcDbPolyline
 90
5
 70
0
 10
28.141112
 20
57.141111
 30
0.0
 10
39.858889
 20
57.141111
 30
0.0
 10
39.858889
 20
60.858889
 30
0.0
 10
28.141112
 20
60.858889
 30
0.0
 10
28.141112
 20
57.141111
 30
0.0
  0
LWPOLYLINE
  5
125
100
AcDbEntity
  8
Slots
 62
1
100
AcDbPolyline
 90
5
 70
0
 10
92.141127
 20
57.141111
 30
0.0
 10
103.858905
 20
57.141111
 30
0.0
 10
103.858905
 20
60.858889
 30
0.0
 10
92.141127
 20
60.858889
 30
0.0
 10
92.141127
 20
57.141111
 30
0.0
  0
LWPOLYLINE
  5
126
100
AcDbEntity
  8
Slots
 62
1
100
AcDbPolyline
 90
5
 70
0
 10
60.141110
 20
57.141111
 30
0.0
 10
71.858887
 20
57.141111
 30
0.0
 10
71.858887
 20
60.858889
 30
0.0
 10
60.141110
 20
60.858889
 30
0.0
 10
60.141110
 20
57.141111
 30
0.0
  0
LWPOLYLINE
  5
127
100
AcDbEntity
  8
Slots
 62
1
100
AcDbPolyline
 90
5
 70
0
 10
92.141127
 20
65.141107
 30
0.0
 10
103.858905
 20
65.141107
 30
0.0
 10
103.858905
 20
68.858884
 30
0.0
 10
92.141127
 20
68.858884
 30
0.0
 10
92.141127
 20
65.141107
 30
0.0
  0
LWPOLYLINE
  5
128
100
AcDbEntity
  8
Slots
 62
1
100
AcDbPolyline
 90
5
 70
0
 10
60.141110
 20
65.141107
 30
0.0
 10
71.858887
 20
65.141107
 30
0.0
 10
71.858887
 20
68.858884
 30
0.0
 10
60.141110
 20
68.858884
 30
0.0
 10
60.141110
 20
65.141107
 30
0.0
  0
LWPOLYLINE
  5
129
100
AcDbEntity
  8
Slots
 62
1
100
AcDbPolyline
 90
5
 70
0
 10
84.141135
 20
68.858882
 30
0.0
 10
84.141135
 20
57.141105
 30
0.0
 10
87.858913
 20
57.141105
 30
0.0
 10
87.858913
 20
68.858882
 30
0.0
 10
84.141135
 20
68.858882
 30
0.0
  0
LWPOLYLINE
  5
12a
100
AcDbEntity
  8
Slots
 62
1
100
AcDbPolyline
 90
5
 70
0
 10
76.141106
 20
68.858882
 30
0.0
 10
76.141106
 20
57.141105
 30
0.0
 10
79.858884
 20
57.141105
 30
0.0
 10
79.858884
 20
68.858882
 30
0.0
 10
76.141106
 20
68.858882
 30
0.0
  0
LWPOLYLINE
  5
12b
100
AcDbEntity
  8
Slots
 62
1
100
AcDbPolyline
 90
5
 70
0
 10
52.141131
 20
68.858882
 30
0.0
 10
52.141131
 20
57.141105
 30
0.0
 10
55.858909
 20
57.141105
 30
0.0
 10
55.858909
 20
68.858882
 30
0.0
 10
52.141131
 20
68.858882
 30
0.0
  0
LWPOLYLINE
  5
12c
100
AcDbEntity
  8
Slots
 62
1
100
AcDbPolyline
 90
5
 70
0
 10
44.141122
 20
68.858882
 30
0.0
 10
44.141122
 20
57.141105
 30
0.0
 10
47.858900
 20
57.141105
 30
0.0
 10
47.858900
 20
68.858882
 30
0.0
 10
44.141122
 20
68.858882
 30
0.0
  0
LWPOLYLINE
  5
12d
100
AcDbEntity
  8
Slots
 62
1
100
AcDbPolyline
 90
5
 70
0
 10
92.140938
 20
17.141107
 30
0.0
 10
103.858716
 20
17.141107
 30
0.0
 10
103.858716
 20
20.858884
 30
0.0
 10
92.140938
 20
20.858884
 30
0.0
 10
92.140938
 20
17.141107
 30
0.0
  0
LWPOLYLINE
  5
12e
100
AcDbEntity
  8
Slots
 62
1
100
AcDbPolyline
 90
5
 70
0
 10
127.858887
 20
25.141119
 30
0.0
 10
116.141109
 20
25.141119
 30
0.0
 10
116.141109
 20
28.858897
 30
0.0
 10
127.858887
 20
28.858897
 30
0.0
 10
127.858887
 20
25.141119
 30
0.0
  0
LWPOLYLINE
  5
12f
100
AcDbEntity
  8
Slots
 62
1
100
AcDbPolyline
 90
5
 70
0
 10
127.858887
 20
33.141114
 30
0.0
 10
116.141109
 20
33.141114
 30
0.0
 10
116.141109
 20
36.858892
 30
0.0
 10
127.858887
 20
36.858892
 30
0.0
 10
127.858887
 20
33.141114
 30
0.0
  0
LWPOLYLINE
  5
130
100
AcDbEntity
  8
Slots
 62
1
100
AcDbPolyline
 90
5
 70
0
 10
159.858908
 20
33.141114
 30
0.0
 10
148.141130
 20
33.141114
 30
0.0
 10
148.141130
 20
36.858892
 30
0.0
 10
159.858908
 20
36.858892
 30
0.0
 10
159.858908
 20
33.141114
 30
0.0
  0
LWPOLYLINE
  5
131
100
AcDbEntity
  8
Slots
 62
1
100
AcDbPolyline
 90
5
 70
0
 10
135.858882
 20
36.858904
 30
0.0
 10
135.858882
 20
25.141126
 30
0.0
 10
132.141104
 20
25.141126
 30
0.0
 10
132.141104
 20
36.858904
 30
0.0
 10
135.858882
 20
36.858904
 30
0.0
  0
LWPOLYLINE
  5
132
100
AcDbEntity
  8
Slots
 62
1
100
AcDbPolyline
 90
5
 70
0
 10
143.858920
 20
36.858904
 30
0.0
 10
143.858920
 20
25.141126
 30
0.0
 10
140.141142
 20
25.141126
 30
0.0
 10
140.141142
 20
36.858904
 30
0.0
 10
143.858920
 20
36.858904
 30
0.0
  0
LWPOLYLINE
  5
133
100
AcDbEntity
  8
Slots
 62
1
100
AcDbPolyline
 90
5
 70
0
 10
143.859247
 20
41.141124
 30
0.0
 10
132.141470
 20
41.141124
 30
0.0
 10
132.141470
 20
44.858901
 30
0.0
 10
143.859247
 20
44.858901
 30
0.0
 10
143.859247
 20
41.141124
 30
0.0
  0
LWPOLYLINE
  5
134
100
AcDbEntity
  8
Slots
 62
1
100
AcDbPolyline
 90
5
 70
0
 10
175.859240
 20
41.141124
 30
0.0
 10
164.141462
 20
41.141124
 30
0.0
 10
164.141462
 20
44.858901
 30
0.0
 10
175.859240
 20
44.858901
 30
0.0
 10
175.859240
 20
41.141124
 30
0.0
  0
LWPOLYLINE
  5
135
100
AcDbEntity
  8
Slots
 62
1
100
AcDbPolyline
 90
5
 70
0
 10
143.859247
 20
49.141119
 30
0.0
 10
132.141470
 20
49.141119
 30
0.0
 10
132.141470
 20
52.858897
 30
0.0
 10
143.859247
 20
52.858897
 30
0.0
 10
143.859247
 20
49.141119
 30
0.0
  0
LWPOLYLINE
  5
136
100
AcDbEntity
  8
Slots
 62
1
100
AcDbPolyline
 90
5
 70
0
 10
175.859240
 20
49.141119
 30
0.0
 10
164.141462
 20
49.141119
 30
0.0
 10
164.141462
 20
52.858897
 30
0.0
 10
175.859240
 20
52.858897
 30
0.0
 10
175.859240
 20
49.141119
 30
0.0
  0
LWPOLYLINE
  5
137
100
AcDbEntity
  8
Slots
 62
1
100
AcDbPolyline
 90
5
 70
0
 10
119.859239
 20
52.858894
 30
0.0
 10
119.859239
 20
41.141117
 30
0.0
 10
116.141461
 20
41.141117
 30
0.0
 10
116.141461
 20
52.858894
 30
0.0
 10
119.859239
 20
52.858894
 30
0.0
  0
LWPOLYLINE
  5
138
100
AcDbEntity
  8
Slots
 62
1
100
AcDbPolyline
 90
5
 70
0
 10
127.859234
 20
52.858894
 30
0.0
 10
127.859234
 20
41.141117
 30
0.0
 10
124.141456
 20
41.141117
 30
0.0
 10
124.141456
 20
52.858894
 30
0.0
 10
127.859234
 20
52.858894
 30
0.0
  0
LWPOLYLINE
  5
139
100
AcDbEntity
  8
Slots
 62
1
100
AcDbPolyline
 90
5
 70
0
 10
151.859223
 20
52.858894
 30
0.0
 10
151.859223
 20
41.141117
 30
0.0
 10
148.141445
 20
41.141117
 30
0.0
 10
148.141445
 20
52.858894
 30
0.0
 10
151.859223
 20
52.858894
 30
0.0
  0
LWPOLYLINE
  5
13a
100
AcDbEntity
  8
Slots
 62
1
100
AcDbPolyline
 90
5
 70
0
 10
159.859218
 20
52.858894
 30
0.0
 10
159.859218
 20
41.141117
 30
0.0
 10
156.141440
 20
41.141117
 30
0.0
 10
156.141440
 20
52.858894
 30
0.0
 10
159.859218
 20
52.858894
 30
0.0
  0
LWPOLYLINE
  5
13b
100
AcDbEntity
  8
Slots
 62
1
100
AcDbPolyline
 90
5
 70
0
 10
191.858900
 20
57.141111
 30
0.0
 10
180.141123
 20
57.141111
 30
0.0
 10
180.141123
 20
60.858889
 30
0.0
 10
191.858900
 20
60.858889
 30
0.0
 10
191.858900
 20
57.141111
 30
0.0
  0
LWPOLYLINE
  5
13c
100
AcDbEntity
  8
Slots
 62
1
100
AcDbPolyline
 90
5
 70
0
 10
127.858887
 20
57.141111
 30
0.0
 10
116.141109
 20
57.141111
 30
0.0
 10
116.141109
 20
60.858889
 30
0.0
 10
127.858887
 20
60.858889
 30
0.0
 10
127.858887
 20
57.141111
 30
0.0
  0
LWPOLYLINE
  5
13d
100
AcDbEntity
  8
Slots
 62
1
100
AcDbPolyline
 90
5
 70
0
 10
159.858908
 20
57.141111
 30
0.0
 10
148.141130
 20
57.141111
 30
0.0
 10
148.141130
 20
60.858889
 30
0.0
 10
159.858908
 20
60.858889
 30
0.0
 10
159.858908
 20
57.141111
 30
0.0
  0
LWPOLYLINE
  5
13e
100
AcDbEntity
  8
Slots
 62
1
100
AcDbPolyline
 90
5
 70
0
 10
127.858887
 20
65.141107
 30
0.0
 10
116.141109
 20
65.141107
 30
0.0
 10
116.141109
 20
68.858884
 30
0.0
 10
127.858887
 20
68.858884
 30
0.0
 10
127.858887
 20
65.141107
 30
0.0
  0
LWPOLYLINE
  5
13f
100
AcDbEntity
  8
Slots
 62
1
100
AcDbPolyline
 90
5
 70
0
 10
159.858908
 20
65.141107
 30
0.0
 10
148.141130
 20
65.141107
 30
0.0
 10
148.141130
 20
68.858884
 30
0.0
 10
159.858908
 20
68.858884
 30
0.0
 10
159.858908
 20
65.141107
 30
0.0
  0
LWPOLYLINE
  5
140
100
AcDbEntity
  8
Slots
 62
1
100
AcDbPolyline
 90
5
 70
0
 10
135.858882
 20
68.858882
 30
0.0
 10
135.858882
 20
57.141105
 30
0.0
 10
132.141104
 20
57.141105
 30
0.0
 10
132.141104
 20
68.858882
 30
0.0
 10
135.858882
 20
68.858882
 30
0.0
  0
LWPOLYLINE
  5
141
100
AcDbEntity
  8
Slots
 62
1
100
AcDbPolyline
 90
5
 70
0
 10
143.858920
 20
68.858882
 30
0.0
 10
143.858920
 20
57.141105
 30
0.0
 10
140.141142
 20
57.141105
 30
0.0
 10
140.141142
 20
68.858882
 30
0.0
 10
143.858920
 20
68.858882
 30
0.0
  0
LWPOLYLINE
  5
142
100
AcDbEntity
  8
Slots
 62
1
100
AcDbPolyline
 90
5
 70
0
 10
167.858883
 20
68.858882
 30
0.0
 10
167.858883
 20
57.141105
 30
0.0
 10
164.141105
 20
57.141105
 30
0.0
 10
164.141105
 20
68.858882
 30
0.0
 10
167.858883
 20
68.858882
 30
0.0
  0
LWPOLYLINE
  5
143
100
AcDbEntity
  8
Slots
 62
1
100
AcDbPolyline
 90
5
 70
0
 10
175.858895
 20
68.858882
 30
0.0
 10
175.858895
 20
57.141105
 30
0.0
 10
172.141118
 20
57.141105
 30
0.0
 10
172.141118
 20
68.858882
 30
0.0
 10
175.858895
 20
68.858882
 30
0.0
  0
SPLINE
  5
144
100
AcDbEntity
  8
Slots
 62
1
100
AcDbSpline
 70
8
 71
3
 72
8
 73
4
 74
0
 40
0
 40
0
 40
0
 40
0
 40
1
 40
1
 40
1
 40
1
 10
111.858888
 20
67.000011
 30
0.0
 10
111.858888
 20
65.973375
 30
0.0
 10
111.026635
 20
65.141122
 30
0.0
 10
110.000000
 20
65.141122
 30
0.0
  0
SPLINE
  5
145
100
AcDbEntity
  8
Slots
 62
1
100
AcDbSpline
 70
8
 71
3
 72
8
 73
4
 74
0
 40
0
 40
0
 40
0
 40
0
 40
1
 40
1
 40
1
 40
1
 10
110.000000
 20
65.141122
 30
0.0
 10
108.973363
 20
65.141122
 30
0.0
 10
108.141111
 20
65.973375
 30
0.0
 10
108.141111
 20
67.000011
 30
0.0
  0
SPLINE
  5
146
100
AcDbEntity
  8
Slots
 62
1
100
AcDbSpline
 70
8
 71
3
 72
8
 73
4
 74
0
 40
0
 40
0
 40
0
 40
0
 40
1
 40
1
 40
1
 40
1
 10
108.141111
 20
67.000011
 30
0.0
 10
108.141111
 20
68.026647
 30
0.0
 10
108.973363
 20
68.858900
 30
0.0
 10
110.000000
 20
68.858900
 30
0.0
  0
SPLINE
  5
147
100
AcDbEntity
  8
Slots
 62
1
100
AcDbSpline
 70
8
 71
3
 72
8
 73
4
 74
0
 40
0
 40
0
 40
0
 40
0
 40
1
 40
1
 40
1
 40
1
 10
110.000000
 20
68.858900
 30
0.0
 10
111.026635
 20
68.858900
 30
0.0
 10
111.858888
 20
68.026647
 30
0.0
 10
111.858888
 20
67.000011
 30
0.0
  0
LWPOLYLINE
  5
148
100
AcDbEntity
  8
Slots
 62
1
100
AcDbPolyline
 90
5
 70
0
 10
127.859079
 20
17.141107
 30
0.0
 10
116.141301
 20
17.141107
 30
0.0
 10
116.141301
 20
20.858884
 30
0.0
 10
127.859079
 20
20.858884
 30
0.0
 10
127.859079
 20
17.141107
 30
0.0
  0
SPLINE
  5
149
100
AcDbEntity
  8
Slots
 62
1
100
AcDbSpline
 70
8
 71
3
 72
8
 73
4
 74
0
 40
0
 40
0
 40
0
 40
0
 40
1
 40
1
 40
1
 40
1
 10
111.858888
 20
51.000001
 30
0.0
 10
111.858888
 20
49.973365
 30
0.0
 10
111.026635
 20
49.141112
 30
0.0
 10
110.000000
 20
49.141112
 30
0.0
  0
SPLINE
  5
14a
100
AcDbEntity
  8
Slots
 62
1
100
AcDbSpline
 70
8
 71
3
 72
8
 73
4
 74
0
 40
0
 40
0
 40
0
 40
0
 40
1
 40
1
 40
1
 40
1
 10
110.000000
 20
49.141112
 30
0.0
 10
108.973363
 20
49.141112
 30
0.0
 10
108.141111
 20
49.973365
 30
0.0
 10
108.141111
 20
51.000001
 30
0.0
  0
SPLINE
  5
14b
100
AcDbEntity
  8
Slots
 62
1
100
AcDbSpline
 70
8
 71
3
 72
8
 73
4
 74
0
 40
0
 40
0
 40
0
 40
0
 40
1
 40
1
 40
1
 40
1
 10
108.141111
 20
51.000001
 30
0.0
 10
108.141111
 20
52.026637
 30
0.0
 10
108.973363
 20
52.858890
 30
0.0
 10
110.000000
 20
52.858890
 30
0.0
  0
SPLINE
  5
14c
100
AcDbEntity
  8
Slots
 62
1
100
AcDbSpline
 70
8
 71
3
 72
8
 73
4
 74
0
 40
0
 40
0
 40
0
 40
0
 40
1
 40
1
 40
1
 40
1
 10
110.000000
 20
52.858890
 30
0.0
 10
111.026635
 20
52.858890
 30
0.0
 10
111.858888
 20
52.026637
 30
0.0
 10
111.858888
 20
51.000001
 30
0.0
  0
LWPOLYLINE
  5
14d
100
AcDbEntity
  8
Slots
 62
1
100
AcDbPolyline
 90
2
 70
0
 10
111.858888
 20
67.000011
 30
0.0
 10
111.858888
 20
67.000011
 30
0.0
  0
SPLINE
  5
14e
100
AcDbEntity
  8
Slots
 62
1
100
AcDbSpline
 70
8
 71
3
 72
8
 73
4
 74
0
 40
0
 40
0
 40
0
 40
0
 40
1
 40
1
 40
1
 40
1
 10
111.858888
 20
58.999999
 30
0.0
 10
111.858888
 20
57.973363
 30
0.0
 10
111.026635
 20
57.141110
 30
0.0
 10
110.000000
 20
57.141110
 30
0.0
  0
SPLINE
  5
14f
100
AcDbEntity
  8
Slots
 62
1
100
AcDbSpline
 70
8
 71
3
 72
8
 73
4
 74
0
 40
0
 40
0
 40
0
 40
0
 40
1
 40
1
 40
1
 40
1
 10
110.000000
 20
57.141110
 30
0.0
 10
108.973363
 20
57.141110
 30
0.0
 10
108.141111
 20
57.973363
 30
0.0
 10
108.141111
 20
58.999999
 30
0.0
  0
SPLINE
  5
150
100
AcDbEntity
  8
Slots
 62
1
100
AcDbSpline
 70
8
 71
3
 72
8
 73
4
 74
0
 40
0
 40
0
 40
0
 40
0
 40
1
 40
1
 40
1
 40
1
 10
108.141111
 20
58.999999
 30
0.0
 10
108.141111
 20
60.026635
 30
0.0
 10
108.973363
 20
60.858888
 30
0.0
 10
110.000000
 20
60.858888
 30
0.0
  0
SPLINE
  5
151
100
AcDbEntity
  8
Slots
 62
1
100
AcDbSpline
 70
8
 71
3
 72
8
 73
4
 74
0
 40
0
 40
0
 40
0
 40
0
 40
1
 40
1
 40
1
 40
1
 10
110.000000
 20
60.858888
 30
0.0
 10
111.026635
 20
60.858888
 30
0.0
 10
111.858888
 20
60.026635
 30
0.0
 10
111.858888
 20
58.999999
 30
0.0
  0
LWPOLYLINE
  5
152
100
AcDbEntity
  8
Slots
 62
1
100
AcDbPolyline
 90
2
 70
0
 10
111.858888
 20
51.000001
 30
0.0
 10
111.858888
 20
51.000001
 30
0.0
  0
SPLINE
  5
153
100
AcDbEntity
  8
Slots
 62
1
100
AcDbSpline
 70
8
 71
3
 72
8
 73
4
 74
0
 40
0
 40
0
 40
0
 40
0
 40
1
 40
1
 40
1
 40
1
 10
111.858888
 20
34.999999
 30
0.0
 10
111.858888
 20
33.973363
 30
0.0
 10
111.026635
 20
33.141110
 30
0.0
 10
110.000000
 20
33.141110
 30
0.0
  0
SPLINE
  5
154
100
AcDbEntity
  8
Slots
 62
1
100
AcDbSpline
 70
8
 71
3
 72
8
 73
4
 74
0
 40
0
 40
0
 40
0
 40
0
 40
1
 40
1
 40
1
 40
1
 10
110.000000
 20
33.141110
 30
0.0
 10
108.973363
 20
33.141110
 30
0.0
 10
108.141111
 20
33.973363
 30
0.0
 10
108.141111
 20
34.999999
 30
0.0
  0
SPLINE
  5
155
100
AcDbEntity
  8
Slots
 62
1
100
AcDbSpline
 70
8
 71
3
 72
8
 73
4
 74
0
 40
0
 40
0
 40
0
 40
0
 40
1
 40
1
 40
1
 40
1
 10
108.141111
 20
34.999999
 30
0.0
 10
108.141111
 20
36.026635
 30
0.0
 10
108.973363
 20
36.858888
 30
0.0
 10
110.000000
 20
36.858888
 30
0.0
  0
SPLINE
  5
156
100
AcDbEntity
  8
Slots
 62
1
100
AcDbSpline
 70
8
 71
3
 72
8
 73
4
 74
0
 40
0
 40
0
 40
0
 40
0
 40
1
 40
1
 40
1
 40
1
 10
110.000000
 20
36.858888
 30
0.0
 10
111.026635
 20
36.858888
 30
0.0
 10
111.858888
 20
36.026635
 30
0.0
 10
111.858888
 20
34.999999
 30
0.0
  0
LWPOLYLINE
  5
157
100
AcDbEntity
  8
Slots
 62
1
100
AcDbPolyline
 90
2
 70
0
 10
111.858888
 20
58.999999
 30
0.0
 10
111.858888
 20
58.999999
 30
0.0
  0
SPLINE
  5
158
100
AcDbEntity
  8
Slots
 62
1
100
AcDbSpline
 70
8
 71
3
 72
8
 73
4
 74
0
 40
0
 40
0
 40
0
 40
0
 40
1
 40
1
 40
1
 40
1
 10
111.858888
 20
43.000000
 30
0.0
 10
111.858888
 20
41.973364
 30
0.0
 10
111.026635
 20
41.141111
 30
0.0
 10
110.000000
 20
41.141111
 30
0.0
  0
SPLINE
  5
159
100
AcDbEntity
  8
Slots
 62
1
100
AcDbSpline
 70
8
 71
3
 72
8
 73
4
 74
0
 40
0
 40
0
 40
0
 40
0
 40
1
 40
1
 40
1
 40
1
 10
110.000000
 20
41.141111
 30
0.0
 10
108.973363
 20
41.141111
 30
0.0
 10
108.141111
 20
41.973364
 30
0.0
 10
108.141111
 20
43.000000
 30
0.0
  0
SPLINE
  5
15a
100
AcDbEntity
  8
Slots
 62
1
100
AcDbSpline
 70
8
 71
3
 72
8
 73
4
 74
0
 40
0
 40
0
 40
0
 40
0
 40
1
 40
1
 40
1
 40
1
 10
108.141111
 20
43.000000
 30
0.0
 10
108.141111
 20
44.026636
 30
0.0
 10
108.973363
 20
44.858889
 30
0.0
 10
110.000000
 20
44.858889
 30
0.0
  0
SPLINE
  5
15b
100
AcDbEntity
  8
Slots
 62
1
100
AcDbSpline
 70
8
 71
3
 72
8
 73
4
 74
0
 40
0
 40
0
 40
0
 40
0
 40
1
 40
1
 40
1
 40
1
 10
110.000000
 20
44.858889
 30
0.0
 10
111.026635
 20
44.858889
 30
0.0
 10
111.858888
 20
44.026636
 30
0.0
 10
111.858888
 20
43.000000
 30
0.0
  0
LWPOLYLINE
  5
15c
100
AcDbEntity
  8
Slots
 62
1
100
AcDbPolyline
 90
2
 70
0
 10
111.858888
 20
34.999999
 30
0.0
 10
111.858888
 20
34.999999
 30
0.0
  0
SPLINE
  5
15d
100
AcDbEntity
  8
Slots
 62
1
100
AcDbSpline
 70
8
 71
3
 72
8
 73
4
 74
0
 40
0
 40
0
 40
0
 40
0
 40
1
 40
1
 40
1
 40
1
 10
111.858888
 20
27.000001
 30
0.0
 10
111.858888
 20
25.973365
 30
0.0
 10
111.026635
 20
25.141112
 30
0.0
 10
110.000000
 20
25.141112
 30
0.0
  0
SPLINE
  5
15e
100
AcDbEntity
  8
Slots
 62
1
100
AcDbSpline
 70
8
 71
3
 72
8
 73
4
 74
0
 40
0
 40
0
 40
0
 40
0
 40
1
 40
1
 40
1
 40
1
 10
110.000000
 20
25.141112
 30
0.0
 10
108.973363
 20
25.141112
 30
0.0
 10
108.141111
 20
25.973365
 30
0.0
 10
108.141111
 20
27.000001
 30
0.0
  0
SPLINE
  5
15f
100
AcDbEntity
  8
Slots
 62
1
100
AcDbSpline
 70
8
 71
3
 72
8
 73
4
 74
0
 40
0
 40
0
 40
0
 40
0
 40
1
 40
1
 40
1
 40
1
 10
108.141111
 20
27.000001
 30
0.0
 10
108.141111
 20
28.026637
 30
0.0
 10
108.973363
 20
28.858890
 30
0.0
 10
110.000000
 20
28.858890
 30
0.0
  0
SPLINE
  5
160
100
AcDbEntity
  8
Slots
 62
1
100
AcDbSpline
 70
8
 71
3
 72
8
 73
4
 74
0
 40
0
 40
0
 40
0
 40
0
 40
1
 40
1
 40
1
 40
1
 10
110.000000
 20
28.858890
 30
0.0
 10
111.026635
 20
28.858890
 30
0.0
 10
111.858888
 20
28.026637
 30
0.0
 10
111.858888
 20
27.000001
 30
0.0
  0
LWPOLYLINE
  5
161
100
AcDbEntity
  8
Slots
 62
1
100
AcDbPolyline
 90
2
 70
0
 10
111.858888
 20
43.000000
 30
0.0
 10
111.858888
 20
43.000000
 30
0.0
  0
SPLINE
  5
162
100
AcDbEntity
  8
Slots
 62
1
100
AcDbSpline
 70
8
 71
3
 72
8
 73
4
 74
0
 40
0
 40
0
 40
0
 40
0
 40
1
 40
1
 40
1
 40
1
 10
111.858888
 20
19.000000
 30
0.0
 10
111.858888
 20
17.973364
 30
0.0
 10
111.026635
 20
17.141111
 30
0.0
 10
110.000000
 20
17.141111
 30
0.0
  0
SPLINE
  5
163
100
AcDbEntity
  8
Slots
 62
1
100
AcDbSpline
 70
8
 71
3
 72
8
 73
4
 74
0
 40
0
 40
0
 40
0
 40
0
 40
1
 40
1
 40
1
 40
1
 10
110.000000
 20
17.141111
 30
0.0
 10
108.973363
 20
17.141111
 30
0.0
 10
108.141111
 20
17.973364
 30
0.0
 10
108.141111
 20
19.000000
 30
0.0
  0
SPLINE
  5
164
100
AcDbEntity
  8
Slots
 62
1
100
AcDbSpline
 70
8
 71
3
 72
8
 73
4
 74
0
 40
0
 40
0
 40
0
 40
0
 40
1
 40
1
 40
1
 40
1
 10
108.141111
 20
19.000000
 30
0.0
 10
108.141111
 20
20.026636
 30
0.0
 10
108.973363
 20
20.858889
 30
0.0
 10
110.000000
 20
20.858889
 30
0.0
  0
SPLINE
  5
165
100
AcDbEntity
  8
Slots
 62
1
100
AcDbSpline
 70
8
 71
3
 72
8
 73
4
 74
0
 40
0
 40
0
 40
0
 40
0
 40
1
 40
1
 40
1
 40
1
 10
110.000000
 20
20.858889
 30
0.0
 10
111.026635
 20
20.858889
 30
0.0
 10
111.858888
 20
20.026636
 30
0.0
 10
111.858888
 20
19.000000
 30
0.0
  0
LWPOLYLINE
  5
166
100
AcDbEntity
  8
Slots
 62
1
100
AcDbPolyline
 90
2
 70
0
 10
111.858888
 20
27.000001
 30
0.0
 10
111.858888
 20
27.000001
 30
0.0
  0
LWPOLYLINE
  5
167
100
AcDbEntity
  8
Slots
 62
1
100
AcDbPolyline
 90
2
 70
0
 10
111.858888
 20
19.000000
 30
0.0
 10
111.858888
 20
19.000000
 30
0.0
  0
LWPOLYLINE
  5
168
100
AcDbEntity
  8
Slots
 62
1
100
AcDbPolyline
 90
5
 70
0
 10
92.141127
 20
193.858883
 30
0.0
 10
103.858905
 20
193.858883
 30
0.0
 10
103.858905
 20
190.141106
 30
0.0
 10
92.141127
 20
190.141106
 30
0.0
 10
92.141127
 20
193.858883
 30
0.0
  0
LWPOLYLINE
  5
169
100
AcDbEntity
  8
Slots
 62
1
100
AcDbPolyline
 90
5
 70
0
 10
92.141127
 20
185.858888
 30
0.0
 10
103.858905
 20
185.858888
 30
0.0
 10
103.858905
 20
182.141110
 30
0.0
 10
92.141127
 20
182.141110
 30
0.0
 10
92.141127
 20
185.858888
 30
0.0
  0
LWPOLYLINE
  5
16a
100
AcDbEntity
  8
Slots
 62
1
100
AcDbPolyline
 90
5
 70
0
 10
60.141110
 20
185.858888
 30
0.0
 10
71.858887
 20
185.858888
 30
0.0
 10
71.858887
 20
182.141110
 30
0.0
 10
60.141110
 20
182.141110
 30
0.0
 10
60.141110
 20
185.858888
 30
0.0
  0
LWPOLYLINE
  5
16b
100
AcDbEntity
  8
Slots
 62
1
100
AcDbPolyline
 90
5
 70
0
 10
84.141135
 20
182.141096
 30
0.0
 10
84.141135
 20
193.858873
 30
0.0
 10
87.858913
 20
193.858873
 30
0.0
 10
87.858913
 20
182.141096
 30
0.0
 10
84.141135
 20
182.141096
 30
0.0
  0
LWPOLYLINE
  5
16c
100
AcDbEntity
  8
Slots
 62
1
100
AcDbPolyline
 90
5
 70
0
 10
76.141106
 20
182.141096
 30
0.0
 10
76.141106
 20
193.858873
 30
0.0
 10
79.858884
 20
193.858873
 30
0.0
 10
79.858884
 20
182.141096
 30
0.0
 10
76.141106
 20
182.141096
 30
0.0
  0
LWPOLYLINE
  5
16d
100
AcDbEntity
  8
Slots
 62
1
100
AcDbPolyline
 90
5
 70
0
 10
76.140778
 20
177.858879
 30
0.0
 10
87.858556
 20
177.858879
 30
0.0
 10
87.858556
 20
174.141101
 30
0.0
 10
76.140778
 20
174.141101
 30
0.0
 10
76.140778
 20
177.858879
 30
0.0
  0
LWPOLYLINE
  5
16e
100
AcDbEntity
  8
Slots
 62
1
100
AcDbPolyline
 90
5
 70
0
 10
44.140778
 20
177.858879
 30
0.0
 10
55.858555
 20
177.858879
 30
0.0
 10
55.858555
 20
174.141101
 30
0.0
 10
44.140778
 20
174.141101
 30
0.0
 10
44.140778
 20
177.858879
 30
0.0
  0
LWPOLYLINE
  5
16f
100
AcDbEntity
  8
Slots
 62
1
100
AcDbPolyline
 90
5
 70
0
 10
76.140778
 20
169.858883
 30
0.0
 10
87.858556
 20
169.858883
 30
0.0
 10
87.858556
 20
166.141106
 30
0.0
 10
76.140778
 20
166.141106
 30
0.0
 10
76.140778
 20
169.858883
 30
0.0
  0
LWPOLYLINE
  5
170
100
AcDbEntity
  8
Slots
 62
1
100
AcDbPolyline
 90
5
 70
0
 10
44.140778
 20
169.858883
 30
0.0
 10
55.858555
 20
169.858883
 30
0.0
 10
55.858555
 20
166.141106
 30
0.0
 10
44.140778
 20
166.141106
 30
0.0
 10
44.140778
 20
169.858883
 30
0.0
  0
LWPOLYLINE
  5
171
100
AcDbEntity
  8
Slots
 62
1
100
AcDbPolyline
 90
5
 70
0
 10
100.140778
 20
166.141108
 30
0.0
 10
100.140778
 20
177.858885
 30
0.0
 10
103.858556
 20
177.858885
 30
0.0
 10
103.858556
 20
166.141108
 30
0.0
 10
100.140778
 20
166.141108
 30
0.0
  0
LWPOLYLINE
  5
172
100
AcDbEntity
  8
Slots
 62
1
100
AcDbPolyline
 90
5
 70
0
 10
92.140783
 20
166.141108
 30
0.0
 10
92.140783
 20
177.858885
 30
0.0
 10
95.858561
 20
177.858885
 30
0.0
 10
95.858561
 20
166.141108
 30
0.0
 10
92.140783
 20
166.141108
 30
0.0
  0
LWPOLYLINE
  5
173
100
AcDbEntity
  8
Slots
 62
1
100
AcDbPolyline
 90
5
 70
0
 10
68.140794
 20
166.141108
 30
0.0
 10
68.140794
 20
177.858885
 30
0.0
 10
71.858572
 20
177.858885
 30
0.0
 10
71.858572
 20
166.141108
 30
0.0
 10
68.140794
 20
166.141108
 30
0.0
  0
LWPOLYLINE
  5
174
100
AcDbEntity
  8
Slots
 62
1
100
AcDbPolyline
 90
5
 70
0
 10
60.140799
 20
166.141108
 30
0.0
 10
60.140799
 20
177.858885
 30
0.0
 10
63.858577
 20
177.858885
 30
0.0
 10
63.858577
 20
166.141108
 30
0.0
 10
60.140799
 20
166.141108
 30
0.0
  0
LWPOLYLINE
  5
175
100
AcDbEntity
  8
Slots
 62
1
100
AcDbPolyline
 90
5
 70
0
 10
28.141112
 20
161.858888
 30
0.0
 10
39.858889
 20
161.858888
 30
0.0
 10
39.858889
 20
158.141110
 30
0.0
 10
28.141112
 20
158.141110
 30
0.0
 10
28.141112
 20
161.858888
 30
0.0
  0
LWPOLYLINE
  5
176
100
AcDbEntity
  8
Slots
 62
1
100
AcDbPolyline
 90
5
 70
0
 10
92.141127
 20
161.858888
 30
0.0
 10
103.858905
 20
161.858888
 30
0.0
 10
103.858905
 20
158.141110
 30
0.0
 10
92.141127
 20
158.141110
 30
0.0
 10
92.141127
 20
161.858888
 30
0.0
  0
LWPOLYLINE
  5
177
100
AcDbEntity
  8
Slots
 62
1
100
AcDbPolyline
 90
5
 70
0
 10
60.141110
 20
161.858888
 30
0.0
 10
71.858887
 20
161.858888
 30
0.0
 10
71.858887
 20
158.141110
 30
0.0
 10
60.141110
 20
158.141110
 30
0.0
 10
60.141110
 20
161.858888
 30
0.0
  0
LWPOLYLINE
  5
178
100
AcDbEntity
  8
Slots
 62
1
100
AcDbPolyline
 90
5
 70
0
 10
92.141127
 20
153.858896
 30
0.0
 10
103.858905
 20
153.858896
 30
0.0
 10
103.858905
 20
150.141118
 30
0.0
 10
92.141127
 20
150.141118
 30
0.0
 10
92.141127
 20
153.858896
 30
0.0
  0
LWPOLYLINE
  5
179
100
AcDbEntity
  8
Slots
 62
1
100
AcDbPolyline
 90
5
 70
0
 10
60.141110
 20
153.858896
 30
0.0
 10
71.858887
 20
153.858896
 30
0.0
 10
71.858887
 20
150.141118
 30
0.0
 10
60.141110
 20
150.141118
 30
0.0
 10
60.141110
 20
153.858896
 30
0.0
  0
LWPOLYLINE
  5
17a
100
AcDbEntity
  8
Slots
 62
1
100
AcDbPolyline
 90
5
 70
0
 10
84.141135
 20
150.141120
 30
0.0
 10
84.141135
 20
161.858898
 30
0.0
 10
87.858913
 20
161.858898
 30
0.0
 10
87.858913
 20
150.141120
 30
0.0
 10
84.141135
 20
150.141120
 30
0.0
  0
LWPOLYLINE
  5
17b
100
AcDbEntity
  8
Slots
 62
1
100
AcDbPolyline
 90
5
 70
0
 10
76.141106
 20
150.141120
 30
0.0
 10
76.141106
 20
161.858898
 30
0.0
 10
79.858884
 20
161.858898
 30
0.0
 10
79.858884
 20
150.141120
 30
0.0
 10
76.141106
 20
150.141120
 30
0.0
  0
LWPOLYLINE
  5
17c
100
AcDbEntity
  8
Slots
 62
1
100
AcDbPolyline
 90
5
 70
0
 10
52.141131
 20
150.141120
 30
0.0
 10
52.141131
 20
161.858898
 30
0.0
 10
55.858909
 20
161.858898
 30
0.0
 10
55.858909
 20
150.141120
 30
0.0
 10
52.141131
 20
150.141120
 30
0.0
  0
LWPOLYLINE
  5
17d
100
AcDbEntity
  8
Slots
 62
1
100
AcDbPolyline
 90
5
 70
0
 10
44.141122
 20
150.141120
 30
0.0
 10
44.141122
 20
161.858898
 30
0.0
 10
47.858900
 20
161.858898
 30
0.0
 10
47.858900
 20
150.141120
 30
0.0
 10
44.141122
 20
150.141120
 30
0.0
  0
LWPOLYLINE
  5
17e
100
AcDbEntity
  8
Slots
 62
1
100
AcDbPolyline
 90
5
 70
0
 10
92.140938
 20
201.858893
 30
0.0
 10
103.858716
 20
201.858893
 30
0.0
 10
103.858716
 20
198.141115
 30
0.0
 10
92.140938
 20
198.141115
 30
0.0
 10
92.140938
 20
201.858893
 30
0.0
  0
LWPOLYLINE
  5
17f
100
AcDbEntity
  8
Slots
 62
1
100
AcDbPolyline
 90
5
 70
0
 10
127.858887
 20
193.858883
 30
0.0
 10
116.141109
 20
193.858883
 30
0.0
 10
116.141109
 20
190.141106
 30
0.0
 10
127.858887
 20
190.141106
 30
0.0
 10
127.858887
 20
193.858883
 30
0.0
  0
LWPOLYLINE
  5
180
100
AcDbEntity
  8
Slots
 62
1
100
AcDbPolyline
 90
5
 70
0
 10
127.858887
 20
185.858888
 30
0.0
 10
116.141109
 20
185.858888
 30
0.0
 10
116.141109
 20
182.141110
 30
0.0
 10
127.858887
 20
182.141110
 30
0.0
 10
127.858887
 20
185.858888
 30
0.0
  0
LWPOLYLINE
  5
181
100
AcDbEntity
  8
Slots
 62
1
100
AcDbPolyline
 90
5
 70
0
 10
159.858908
 20
185.858888
 30
0.0
 10
148.141130
 20
185.858888
 30
0.0
 10
148.141130
 20
182.141110
 30
0.0
 10
159.858908
 20
182.141110
 30
0.0
 10
159.858908
 20
185.858888
 30
0.0
  0
LWPOLYLINE
  5
182
100
AcDbEntity
  8
Slots
 62
1
100
AcDbPolyline
 90
5
 70
0
 10
135.858882
 20
182.141096
 30
0.0
 10
135.858882
 20
193.858873
 30
0.0
 10
132.141104
 20
193.858873
 30
0.0
 10
132.141104
 20
182.141096
 30
0.0
 10
135.858882
 20
182.141096
 30
0.0
  0
LWPOLYLINE
  5
183
100
AcDbEntity
  8
Slots
 62
1
100
AcDbPolyline
 90
5
 70
0
 10
143.858920
 20
182.141096
 30
0.0
 10
143.858920
 20
193.858873
 30
0.0
 10
140.141142
 20
193.858873
 30
0.0
 10
140.141142
 20
182.141096
 30
0.0
 10
143.858920
 20
182.141096
 30
0.0
  0
LWPOLYLINE
  5
184
100
AcDbEntity
  8
Slots
 62
1
100
AcDbPolyline
 90
5
 70
0
 10
143.859247
 20
177.858879
 30
0.0
 10
132.141470
 20
177.858879
 30
0.0
 10
132.141470
 20
174.141101
 30
0.0
 10
143.859247
 20
174.141101
 30
0.0
 10
143.859247
 20
177.858879
 30
0.0
  0
LWPOLYLINE
  5
185
100
AcDbEntity
  8
Slots
 62
1
100
AcDbPolyline
 90
5
 70
0
 10
175.859240
 20
177.858879
 30
0.0
 10
164.141462
 20
177.858879
 30
0.0
 10
164.141462
 20
174.141101
 30
0.0
 10
175.859240
 20
174.141101
 30
0.0
 10
175.859240
 20
177.858879
 30
0.0
  0
LWPOLYLINE
  5
186
100
AcDbEntity
  8
Slots
 62
1
100
AcDbPolyline
 90
5
 70
0
 10
143.859247
 20
169.858883
 30
0.0
 10
132.141470
 20
169.858883
 30
0.0
 10
132.141470
 20
166.141106
 30
0.0
 10
143.859247
 20
166.141106
 30
0.0
 10
143.859247
 20
169.858883
 30
0.0
  0
LWPOLYLINE
  5
187
100
AcDbEntity
  8
Slots
 62
1
100
AcDbPolyline
 90
5
 70
0
 10
175.859240
 20
169.858883
 30
0.0
 10
164.141462
 20
169.858883
 30
0.0
 10
164.141462
 20
166.141106
 30
0.0
 10
175.859240
 20
166.141106
 30
0.0
 10
175.859240
 20
169.858883
 30
0.0
  0
LWPOLYLINE
  5
188
100
AcDbEntity
  8
Slots
 62
1
100
AcDbPolyline
 90
5
 70
0
 10
119.859239
 20
166.141108
 30
0.0
 10
119.859239
 20
177.858885
 30
0.0
 10
116.141461
 20
177.858885
 30
0.0
 10
116.141461
 20
166.141108
 30
0.0
 10
119.859239
 20
166.141108
 30
0.0
  0
LWPOLYLINE
  5
189
100
AcDbEntity
  8
Slots
 62
1
100
AcDbPolyline
 90
5
 70
0
 10
127.859234
 20
166.141108
 30
0.0
 10
127.859234
 20
177.858885
 30
0.0
 10
124.141456
 20
177.858885
 30
0.0
 10
124.141456
 20
166.141108
 30
0.0
 10
127.859234
 20
166.141108
 30
0.0
  0
LWPOLYLINE
  5
18a
100
AcDbEntity
  8
Slots
 62
1
100
AcDbPolyline
 90
5
 70
0
 10
151.859223
 20
166.141108
 30
0.0
 10
151.859223
 20
177.858885
 30
0.0
 10
148.141445
 20
177.858885
 30
0.0
 10
148.141445
 20
166.141108
 30
0.0
 10
151.859223
 20
166.141108
 30
0.0
  0
LWPOLYLINE
  5
18b
100
AcDbEntity
  8
Slots
 62
1
100
AcDbPolyline
 90
5
 70
0
 10
159.859218
 20
166.141108
 30
0.0
 10
159.859218
 20
177.858885
 30
0.0
 10
156.141440
 20
177.858885
 30
0.0
 10
156.141440
 20
166.141108
 30
0.0
 10
159.859218
 20
166.141108
 30
0.0
  0
LWPOLYLINE
  5
18c
100
AcDbEntity
  8
Slots
 62
1
100
AcDbPolyline
 90
5
 70
0
 10
191.858900
 20
161.858888
 30
0.0
 10
180.141123
 20
161.858888
 30
0.0
 10
180.141123
 20
158.141110
 30
0.0
 10
191.858900
 20
158.141110
 30
0.0
 10
191.858900
 20
161.858888
 30
0.0
  0
LWPOLYLINE
  5
18d
100
AcDbEntity
  8
Slots
 62
1
100
AcDbPolyline
 90
5
 70
0
 10
127.858887
 20
161.858888
 30
0.0
 10
116.141109
 20
161.858888
 30
0.0
 10
116.141109
 20
158.141110
 30
0.0
 10
127.858887
 20
158.141110
 30
0.0
 10
127.858887
 20
161.858888
 30
0.0
  0
LWPOLYLINE
  5
18e
100
AcDbEntity
  8
Slots
 62
1
100
AcDbPolyline
 90
5
 70
0
 10
159.858908
 20
161.858888
 30
0.0
 10
148.141130
 20
161.858888
 30
0.0
 10
148.141130
 20
158.141110
 30
0.0
 10
159.858908
 20
158.141110
 30
0.0
 10
159.858908
 20
161.858888
 30
0.0
  0
LWPOLYLINE
  5
18f
100
AcDbEntity
  8
Slots
 62
1
100
AcDbPolyline
 90
5
 70
0
 10
127.858887
 20
153.858896
 30
0.0
 10
116.141109
 20
153.858896
 30
0.0
 10
116.141109
 20
150.141118
 30
0.0
 10
127.858887
 20
150.141118
 30
0.0
 10
127.858887
 20
153.858896
 30
0.0
  0
LWPOLYLINE
  5
190
100
AcDbEntity
  8
Slots
 62
1
100
AcDbPolyline
 90
5
 70
0
 10
159.858908
 20
153.858896
 30
0.0
 10
148.141130
 20
153.858896
 30
0.0
 10
148.141130
 20
150.141118
 30
0.0
 10
159.858908
 20
150.141118
 30
0.0
 10
159.858908
 20
153.858896
 30
0.0
  0
LWPOLYLINE
  5
191
100
AcDbEntity
  8
Slots
 62
1
100
AcDbPolyline
 90
5
 70
0
 10
135.858882
 20
150.141120
 30
0.0
 10
135.858882
 20
161.858898
 30
0.0
 10
132.141104
 20
161.858898
 30
0.0
 10
132.141104
 20
150.141120
 30
0.0
 10
135.858882
 20
150.141120
 30
0.0
  0
LWPOLYLINE
  5
192
100
AcDbEntity
  8
Slots
 62
1
100
AcDbPolyline
 90
5
 70
0
 10
143.858920
 20
150.141120
 30
0.0
 10
143.858920
 20
161.858898
 30
0.0
 10
140.141142
 20
161.858898
 30
0.0
 10
140.141142
 20
150.141120
 30
0.0
 10
143.858920
 20
150.141120
 30
0.0
  0
LWPOLYLINE
  5
193
100
AcDbEntity
  8
Slots
 62
1
100
AcDbPolyline
 90
5
 70
0
 10
167.858883
 20
150.141120
 30
0.0
 10
167.858883
 20
161.858898
 30
0.0
 10
164.141105
 20
161.858898
 30
0.0
 10
164.141105
 20
150.141120
 30
0.0
 10
167.858883
 20
150.141120
 30
0.0
  0
LWPOLYLINE
  5
194
100
AcDbEntity
  8
Slots
 62
1
100
AcDbPolyline
 90
5
 70
0
 10
175.858895
 20
150.141120
 30
0.0
 10
175.858895
 20
161.858898
 30
0.0
 10
172.141118
 20
161.858898
 30
0.0
 10
172.141118
 20
150.141120
 30
0.0
 10
175.858895
 20
150.141120
 30
0.0
  0
SPLINE
  5
195
100
AcDbEntity
  8
Slots
 62
1
100
AcDbSpline
 70
8
 71
3
 72
8
 73
4
 74
0
 40
0
 40
0
 40
0
 40
0
 40
1
 40
1
 40
1
 40
1
 10
111.858888
 20
151.999994
 30
0.0
 10
111.858888
 20
153.026630
 30
0.0
 10
111.026635
 20
153.858883
 30
0.0
 10
110.000000
 20
153.858883
 30
0.0
  0
SPLINE
  5
196
100
AcDbEntity
  8
Slots
 62
1
100
AcDbSpline
 70
8
 71
3
 72
8
 73
4
 74
0
 40
0
 40
0
 40
0
 40
0
 40
1
 40
1
 40
1
 40
1
 10
110.000000
 20
153.858883
 30
0.0
 10
108.973363
 20
153.858883
 30
0.0
 10
108.141111
 20
153.026630
 30
0.0
 10
108.141111
 20
151.999994
 30
0.0
  0
SPLINE
  5
197
100
AcDbEntity
  8
Slots
 62
1
100
AcDbSpline
 70
8
 71
3
 72
8
 73
4
 74
0
 40
0
 40
0
 40
0
 40
0
 40
1
 40
1
 40
1
 40
1
 10
108.141111
 20
151.999994
 30
0.0
 10
108.141111
 20
150.973358
 30
0.0
 10
108.973363
 20
150.141105
 30
0.0
 10
110.000000
 20
150.141105
 30
0.0
  0
SPLINE
  5
198
100
AcDbEntity
  8
Slots
 62
1
100
AcDbSpline
 70
8
 71
3
 72
8
 73
4
 74
0
 40
0
 40
0
 40
0
 40
0
 40
1
 40
1
 40
1
 40
1
 10
110.000000
 20
150.141105
 30
0.0
 10
111.026635
 20
150.141105
 30
0.0
 10
111.858888
 20
150.973358
 30
0.0
 10
111.858888
 20
151.999994
 30
0.0
  0
LWPOLYLINE
  5
199
100
AcDbEntity
  8
Slots
 62
1
100
AcDbPolyline
 90
5
 70
0
 10
127.859079
 20
201.858893
 30
0.0
 10
116.141301
 20
201.858893
 30
0.0
 10
116.141301
 20
198.141115
 30
0.0
 10
127.859079
 20
198.141115
 30
0.0
 10
127.859079
 20
201.858893
 30
0.0
  0
SPLINE
  5
19a
100
AcDbEntity
  8
Slots
 62
1
100
AcDbSpline
 70
8
 71
3
 72
8
 73
4
 74
0
 40
0
 40
0
 40
0
 40
0
 40
1
 40
1
 40
1
 40
1
 10
111.858888
 20
168.000005
 30
0.0
 10
111.858888
 20
169.026640
 30
0.0
 10
111.026635
 20
169.858893
 30
0.0
 10
110.000000
 20
169.858893
 30
0.0
  0
SPLINE
  5
19b
100
AcDbEntity
  8
Slots
 62
1
100
AcDbSpline
 70
8
 71
3
 72
8
 73
4
 74
0
 40
0
 40
0
 40
0
 40
0
 40
1
 40
1
 40
1
 40
1
 10
110.000000
 20
169.858893
 30
0.0
 10
108.973363
 20
169.858893
 30
0.0
 10
108.141111
 20
169.026640
 30
0.0
 10
108.141111
 20
168.000005
 30
0.0
  0
SPLINE
  5
19c
100
AcDbEntity
  8
Slots
 62
1
100
AcDbSpline
 70
8
 71
3
 72
8
 73
4
 74
0
 40
0
 40
0
 40
0
 40
0
 40
1
 40
1
 40
1
 40
1
 10
108.141111
 20
168.000005
 30
0.0
 10
108.141111
 20
166.973368
 30
0.0
 10
108.973363
 20
166.141115
 30
0.0
 10
110.000000
 20
166.141115
 30
0.0
  0
SPLINE
  5
19d
100
AcDbEntity
  8
Slots
 62
1
100
AcDbSpline
 70
8
 71
3
 72
8
 73
4
 74
0
 40
0
 40
0
 40
0
 40
0
 40
1
 40
1
 40
1
 40
1
 10
110.000000
 20
166.141115
 30
0.0
 10
111.026635
 20
166.141115
 30
0.0
 10
111.858888
 20
166.973368
 30
0.0
 10
111.858888
 20
168.000005
 30
0.0
  0
LWPOLYLINE
  5
19e
100
AcDbEntity
  8
Slots
 62
1
100
AcDbPolyline
 90
2
 70
0
 10
111.858888
 20
151.999994
 30
0.0
 10
111.858888
 20
151.999994
 30
0.0
  0
SPLINE
  5
19f
100
AcDbEntity
  8
Slots
 62
1
100
AcDbSpline
 70
8
 71
3
 72
8
 73
4
 74
0
 40
0
 40
0
 40
0
 40
0
 40
1
 40
1
 40
1
 40
1
 10
111.858888
 20
160.000006
 30
0.0
 10
111.858888
 20
161.026642
 30
0.0
 10
111.026635
 20
161.858895
 30
0.0
 10
110.000000
 20
161.858895
 30
0.0
  0
SPLINE
  5
1a0
100
AcDbEntity
  8
Slots
 62
1
100
AcDbSpline
 70
8
 71
3
 72
8
 73
4
 74
0
 40
0
 40
0
 40
0
 40
0
 40
1
 40
1
 40
1
 40
1
 10
110.000000
 20
161.858895
 30
0.0
 10
108.973363
 20
161.858895
 30
0.0
 10
108.141111
 20
161.026642
 30
0.0
 10
108.141111
 20
160.000006
 30
0.0
  0
SPLINE
  5
1a1
100
AcDbEntity
  8
Slots
 62
1
100
AcDbSpline
 70
8
 71
3
 72
8
 73
4
 74
0
 40
0
 40
0
 40
0
 40
0
 40
1
 40
1
 40
1
 40
1
 10
108.141111
 20
160.000006
 30
0.0
 10
108.141111
 20
158.973370
 30
0.0
 10
108.973363
 20
158.141117
 30
0.0
 10
110.000000
 20
158.141117
 30
0.0
  0
SPLINE
  5
1a2
100
AcDbEntity
  8
Slots
 62
1
100
AcDbSpline
 70
8
 71
3
 72
8
 73
4
 74
0
 40
0
 40
0
 40
0
 40
0
 40
1
 40
1
 40
1
 40
1
 10
110.000000
 20
158.141117
 30
0.0
 10
111.026635
 20
158.141117
 30
0.0
 10
111.858888
 20
158.973370
 30
0.0
 10
111.858888
 20
160.000006
 30
0.0
  0
LWPOLYLINE
  5
1a3
100
AcDbEntity
  8
Slots
 62
1
100
AcDbPolyline
 90
2
 70
0
 10
111.858888
 20
168.000005
 30
0.0
 10
111.858888
 20
168.000005
 30
0.0
  0
SPLINE
  5
1a4
100
AcDbEntity
  8
Slots
 62
1
100
AcDbSpline
 70
8
 71
3
 72
8
 73
4
 74
0
 40
0
 40
0
 40
0
 40
0
 40
1
 40
1
 40
1
 40
1
 10
111.858888
 20
184.000006
 30
0.0
 10
111.858888
 20
185.026642
 30
0.0
 10
111.026635
 20
185.858895
 30
0.0
 10
110.000000
 20
185.858895
 30
0.0
  0
SPLINE
  5
1a5
100
AcDbEntity
  8
Slots
 62
1
100
AcDbSpline
 70
8
 71
3
 72
8
 73
4
 74
0
 40
0
 40
0
 40
0
 40
0
 40
1
 40
1
 40
1
 40
1
 10
110.000000
 20
185.858895
 30
0.0
 10
108.973363
 20
185.858895
 30
0.0
 10
108.141111
 20
185.026642
 30
0.0
 10
108.141111
 20
184.000006
 30
0.0
  0
SPLINE
  5
1a6
100
AcDbEntity
  8
Slots
 62
1
100
AcDbSpline
 70
8
 71
3
 72
8
 73
4
 74
0
 40
0
 40
0
 40
0
 40
0
 40
1
 40
1
 40
1
 40
1
 10
108.141111
 20
184.000006
 30
0.0
 10
108.141111
 20
182.973370
 30
0.0
 10
108.973363
 20
182.141117
 30
0.0
 10
110.000000
 20
182.141117
 30
0.0
  0
SPLINE
  5
1a7
100
AcDbEntity
  8
Slots
 62
1
100
AcDbSpline
 70
8
 71
3
 72
8
 73
4
 74
0
 40
0
 40
0
 40
0
 40
0
 40
1
 40
1
 40
1
 40
1
 10
110.000000
 20
182.141117
 30
0.0
 10
111.026635
 20
182.141117
 30
0.0
 10
111.858888
 20
182.973370
 30
0.0
 10
111.858888
 20
184.000006
 30
0.0
  0
LWPOLYLINE
  5
1a8
100
AcDbEntity
  8
Slots
 62
1
100
AcDbPolyline
 90
2
 70
0
 10
111.858888
 20
160.000006
 30
0.0
 10
111.858888
 20
160.000006
 30
0.0
  0
SPLINE
  5
1a9
100
AcDbEntity
  8
Slots
 62
1
100
AcDbSpline
 70
8
 71
3
 72
8
 73
4
 74
0
 40
0
 40
0
 40
0
 40
0
 40
1
 40
1
 40
1
 40
1
 10
111.858888
 20
176.000005
 30
0.0
 10
111.858888
 20
177.026641
 30
0.0
 10
111.026635
 20
177.858894
 30
0.0
 10
110.000000
 20
177.858894
 30
0.0
  0
SPLINE
  5
1aa
100
AcDbEntity
  8
Slots
 62
1
100
AcDbSpline
 70
8
 71
3
 72
8
 73
4
 74
0
 40
0
 40
0
 40
0
 40
0
 40
1
 40
1
 40
1
 40
1
 10
110.000000
 20
177.858894
 30
0.0
 10
108.973363
 20
177.858894
 30
0.0
 10
108.141111
 20
177.026641
 30
0.0
 10
108.141111
 20
176.000005
 30
0.0
  0
SPLINE
  5
1ab
100
AcDbEntity
  8
Slots
 62
1
100
AcDbSpline
 70
8
 71
3
 72
8
 73
4
 74
0
 40
0
 40
0
 40
0
 40
0
 40
1
 40
1
 40
1
 40
1
 10
108.141111
 20
176.000005
 30
0.0
 10
108.141111
 20
174.973369
 30
0.0
 10
108.973363
 20
174.141116
 30
0.0
 10
110.000000
 20
174.141116
 30
0.0
  0
SPLINE
  5
1ac
100
AcDbEntity
  8
Slots
 62
1
100
AcDbSpline
 70
8
 71
3
 72
8
 73
4
 74
0
 40
0
 40
0
 40
0
 40
0
 40
1
 40
1
 40
1
 40
1
 10
110.000000
 20
174.141116
 30
0.0
 10
111.026635
 20
174.141116
 30
0.0
 10
111.858888
 20
174.973369
 30
0.0
 10
111.858888
 20
176.000005
 30
0.0
  0
LWPOLYLINE
  5
1ad
100
AcDbEntity
  8
Slots
 62
1
100
AcDbPolyline
 90
2
 70
0
 10
111.858888
 20
184.000006
 30
0.0
 10
111.858888
 20
184.000006
 30
0.0
  0
SPLINE
  5
1ae
100
AcDbEntity
  8
Slots
 62
1
100
AcDbSpline
 70
8
 71
3
 72
8
 73
4
 74
0
 40
0
 40
0
 40
0
 40
0
 40
1
 40
1
 40
1
 40
1
 10
111.858888
 20
192.000005
 30
0.0
 10
111.858888
 20
193.026640
 30
0.0
 10
111.026635
 20
193.858893
 30
0.0
 10
110.000000
 20
193.858893
 30
0.0
  0
SPLINE
  5
1af
100
AcDbEntity
  8
Slots
 62
1
100
AcDbSpline
 70
8
 71
3
 72
8
 73
4
 74
0
 40
0
 40
0
 40
0
 40
0
 40
1
 40
1
 40
1
 40
1
 10
110.000000
 20
193.858893
 30
0.0
 10
108.973363
 20
193.858893
 30
0.0
 10
108.141111
 20
193.026640
 30
0.0
 10
108.141111
 20
192.000005
 30
0.0
  0
SPLINE
  5
1b0
100
AcDbEntity
  8
Slots
 62
1
100
AcDbSpline
 70
8
 71
3
 72
8
 73
4
 74
0
 40
0
 40
0
 40
0
 40
0
 40
1
 40
1
 40
1
 40
1
 10
108.141111
 20
192.000005
 30
0.0
 10
108.141111
 20
190.973368
 30
0.0
 10
108.973363
 20
190.141115
 30
0.0
 10
110.000000
 20
190.141115
 30
0.0
  0
SPLINE
  5
1b1
100
AcDbEntity
  8
Slots
 62
1
100
AcDbSpline
 70
8
 71
3
 72
8
 73
4
 74
0
 40
0
 40
0
 40
0
 40
0
 40
1
 40
1
 40
1
 40
1
 10
110.000000
 20
190.141115
 30
0.0
 10
111.026635
 20
190.141115
 30
0.0
 10
111.858888
 20
190.973368
 30
0.0
 10
111.858888
 20
192.000005
 30
0.0
  0
LWPOLYLINE
  5
1b2
100
AcDbEntity
  8
Slots
 62
1
100
AcDbPolyline
 90
2
 70
0
 10
111.858888
 20
176.000005
 30
0.0
 10
111.858888
 20
176.000005
 30
0.0
  0
SPLINE
  5
1b3
100
AcDbEntity
  8
Slots
 62
1
100
AcDbSpline
 70
8
 71
3
 72
8
 73
4
 74
0
 40
0
 40
0
 40
0
 40
0
 40
1
 40
1
 40
1
 40
1
 10
111.858888
 20
200.000005
 30
0.0
 10
111.858888
 20
201.026641
 30
0.0
 10
111.026635
 20
201.858894
 30
0.0
 10
110.000000
 20
201.858894
 30
0.0
  0
SPLINE
  5
1b4
100
AcDbEntity
  8
Slots
 62
1
100
AcDbSpline
 70
8
 71
3
 72
8
 73
4
 74
0
 40
0
 40
0
 40
0
 40
0
 40
1
 40
1
 40
1
 40
1
 10
110.000000
 20
201.858894
 30
0.0
 10
108.973363
 20
201.858894
 30
0.0
 10
108.141111
 20
201.026641
 30
0.0
 10
108.141111
 20
200.000005
 30
0.0
  0
SPLINE
  5
1b5
100
AcDbEntity
  8
Slots
 62
1
100
AcDbSpline
 70
8
 71
3
 72
8
 73
4
 74
0
 40
0
 40
0
 40
0
 40
0
 40
1
 40
1
 40
1
 40
1
 10
108.141111
 20
200.000005
 30
0.0
 10
108.141111
 20
198.973369
 30
0.0
 10
108.973363
 20
198.141116
 30
0.0
 10
110.000000
 20
198.141116
 30
0.0
  0
SPLINE
  5
1b6
100
AcDbEntity
  8
Slots
 62
1
100
AcDbSpline
 70
8
 71
3
 72
8
 73
4
 74
0
 40
0
 40
0
 40
0
 40
0
 40
1
 40
1
 40
1
 40
1
 10
110.000000
 20
198.141116
 30
0.0
 10
111.026635
 20
198.141116
 30
0.0
 10
111.858888
 20
198.973369
 30
0.0
 10
111.858888
 20
200.000005
 30
0.0
  0
LWPOLYLINE
  5
1b7
100
AcDbEntity
  8
Slots
 62
1
100
AcDbPolyline
 90
2
 70
0
 10
111.858888
 20
192.000005
 30
0.0
 10
111.858888
 20
192.000005
 30
0.0
  0
LWPOLYLINE
  5
1b8
100
AcDbEntity
  8
Slots
 62
1
100
AcDbPolyline
 90
2
 70
0
 10
111.858888
 20
200.000005
 30
0.0
 10
111.858888
 20
200.000005
 30
0.0
  0
LWPOLYLINE
  5
1b9
100
AcDbEntity
  8
Slots
 62
1
100
AcDbPolyline
 90
5
 70
0
 10
76.140778
 20
145.858883
 30
0.0
 10
87.858556
 20
145.858883
 30
0.0
 10
87.858556
 20
142.141106
 30
0.0
 10
76.140778
 20
142.141106
 30
0.0
 10
76.140778
 20
145.858883
 30
0.0
  0
LWPOLYLINE
  5
1ba
100
AcDbEntity
  8
Slots
 62
1
100
AcDbPolyline
 90
5
 70
0
 10
44.140778
 20
145.858883
 30
0.0
 10
55.858555
 20
145.858883
 30
0.0
 10
55.858555
 20
142.141106
 30
0.0
 10
44.140778
 20
142.141106
 30
0.0
 10
44.140778
 20
145.858883
 30
0.0
  0
LWPOLYLINE
  5
1bb
100
AcDbEntity
  8
Slots
 62
1
100
AcDbPolyline
 90
5
 70
0
 10
76.140778
 20
137.858874
 30
0.0
 10
87.858556
 20
137.858874
 30
0.0
 10
87.858556
 20
134.141096
 30
0.0
 10
76.140778
 20
134.141096
 30
0.0
 10
76.140778
 20
137.858874
 30
0.0
  0
LWPOLYLINE
  5
1bc
100
AcDbEntity
  8
Slots
 62
1
100
AcDbPolyline
 90
5
 70
0
 10
44.140778
 20
137.858874
 30
0.0
 10
55.858555
 20
137.858874
 30
0.0
 10
55.858555
 20
134.141096
 30
0.0
 10
44.140778
 20
134.141096
 30
0.0
 10
44.140778
 20
137.858874
 30
0.0
  0
LWPOLYLINE
  5
1bd
100
AcDbEntity
  8
Slots
 62
1
100
AcDbPolyline
 90
5
 70
0
 10
100.140778
 20
134.141115
 30
0.0
 10
100.140778
 20
145.858893
 30
0.0
 10
103.858556
 20
145.858893
 30
0.0
 10
103.858556
 20
134.141115
 30
0.0
 10
100.140778
 20
134.141115
 30
0.0
  0
LWPOLYLINE
  5
1be
100
AcDbEntity
  8
Slots
 62
1
100
AcDbPolyline
 90
5
 70
0
 10
92.140783
 20
134.141115
 30
0.0
 10
92.140783
 20
145.858893
 30
0.0
 10
95.858561
 20
145.858893
 30
0.0
 10
95.858561
 20
134.141115
 30
0.0
 10
92.140783
 20
134.141115
 30
0.0
  0
LWPOLYLINE
  5
1bf
100
AcDbEntity
  8
Slots
 62
1
100
AcDbPolyline
 90
5
 70
0
 10
68.140794
 20
134.141115
 30
0.0
 10
68.140794
 20
145.858893
 30
0.0
 10
71.858572
 20
145.858893
 30
0.0
 10
71.858572
 20
134.141115
 30
0.0
 10
68.140794
 20
134.141115
 30
0.0
  0
LWPOLYLINE
  5
1c0
100
AcDbEntity
  8
Slots
 62
1
100
AcDbPolyline
 90
5
 70
0
 10
60.140799
 20
134.141115
 30
0.0
 10
60.140799
 20
145.858893
 30
0.0
 10
63.858577
 20
145.858893
 30
0.0
 10
63.858577
 20
134.141115
 30
0.0
 10
60.140799
 20
134.141115
 30
0.0
  0
LWPOLYLINE
  5
1c1
100
AcDbEntity
  8
Slots
 62
1
100
AcDbPolyline
 90
5
 70
0
 10
92.141127
 20
129.858879
 30
0.0
 10
103.858905
 20
129.858879
 30
0.0
 10
103.858905
 20
126.141101
 30
0.0
 10
92.141127
 20
126.141101
 30
0.0
 10
92.141127
 20
129.858879
 30
0.0
  0
LWPOLYLINE
  5
1c2
100
AcDbEntity
  8
Slots
 62
1
100
AcDbPolyline
 90
5
 70
0
 10
60.141110
 20
129.858879
 30
0.0
 10
71.858887
 20
129.858879
 30
0.0
 10
71.858887
 20
126.141101
 30
0.0
 10
60.141110
 20
126.141101
 30
0.0
 10
60.141110
 20
129.858879
 30
0.0
  0
LWPOLYLINE
  5
1c3
100
AcDbEntity
  8
Slots
 62
1
100
AcDbPolyline
 90
5
 70
0
 10
92.141127
 20
121.858903
 30
0.0
 10
103.858905
 20
121.858903
 30
0.0
 10
103.858905
 20
118.141125
 30
0.0
 10
92.141127
 20
118.141125
 30
0.0
 10
92.141127
 20
121.858903
 30
0.0
  0
LWPOLYLINE
  5
1c4
100
AcDbEntity
  8
Slots
 62
1
100
AcDbPolyline
 90
5
 70
0
 10
60.141110
 20
121.858903
 30
0.0
 10
71.858887
 20
121.858903
 30
0.0
 10
71.858887
 20
118.141125
 30
0.0
 10
60.141110
 20
118.141125
 30
0.0
 10
60.141110
 20
121.858903
 30
0.0
  0
LWPOLYLINE
  5
1c5
100
AcDbEntity
  8
Slots
 62
1
100
AcDbPolyline
 90
5
 70
0
 10
84.141135
 20
118.141128
 30
0.0
 10
84.141135
 20
129.858905
 30
0.0
 10
87.858913
 20
129.858905
 30
0.0
 10
87.858913
 20
118.141128
 30
0.0
 10
84.141135
 20
118.141128
 30
0.0
  0
LWPOLYLINE
  5
1c6
100
AcDbEntity
  8
Slots
 62
1
100
AcDbPolyline
 90
5
 70
0
 10
76.141106
 20
118.141128
 30
0.0
 10
76.141106
 20
129.858905
 30
0.0
 10
79.858884
 20
129.858905
 30
0.0
 10
79.858884
 20
118.141128
 30
0.0
 10
76.141106
 20
118.141128
 30
0.0
  0
LWPOLYLINE
  5
1c7
100
AcDbEntity
  8
Slots
 62
1
100
AcDbPolyline
 90
5
 70
0
 10
52.141131
 20
118.141128
 30
0.0
 10
52.141131
 20
129.858905
 30
0.0
 10
55.858909
 20
129.858905
 30
0.0
 10
55.858909
 20
118.141128
 30
0.0
 10
52.141131
 20
118.141128
 30
0.0
  0
LWPOLYLINE
  5
1c8
100
AcDbEntity
  8
Slots
 62
1
100
AcDbPolyline
 90
5
 70
0
 10
44.141122
 20
118.141128
 30
0.0
 10
44.141122
 20
129.858905
 30
0.0
 10
47.858900
 20
129.858905
 30
0.0
 10
47.858900
 20
118.141128
 30
0.0
 10
44.141122
 20
118.141128
 30
0.0
  0
LWPOLYLINE
  5
1c9
100
AcDbEntity
  8
Slots
 62
1
100
AcDbPolyline
 90
5
 70
0
 10
143.859247
 20
145.858883
 30
0.0
 10
132.141470
 20
145.858883
 30
0.0
 10
132.141470
 20
142.141106
 30
0.0
 10
143.859247
 20
142.141106
 30
0.0
 10
143.859247
 20
145.858883
 30
0.0
  0
LWPOLYLINE
  5
1ca
100
AcDbEntity
  8
Slots
 62
1
100
AcDbPolyline
 90
5
 70
0
 10
175.859240
 20
145.858883
 30
0.0
 10
164.141462
 20
145.858883
 30
0.0
 10
164.141462
 20
142.141106
 30
0.0
 10
175.859240
 20
142.141106
 30
0.0
 10
175.859240
 20
145.858883
 30
0.0
  0
LWPOLYLINE
  5
1cb
100
AcDbEntity
  8
Slots
 62
1
100
AcDbPolyline
 90
5
 70
0
 10
143.859247
 20
137.858874
 30
0.0
 10
132.141470
 20
137.858874
 30
0.0
 10
132.141470
 20
134.141096
 30
0.0
 10
143.859247
 20
134.141096
 30
0.0
 10
143.859247
 20
137.858874
 30
0.0
  0
LWPOLYLINE
  5
1cc
100
AcDbEntity
  8
Slots
 62
1
100
AcDbPolyline
 90
5
 70
0
 10
175.859240
 20
137.858874
 30
0.0
 10
164.141462
 20
137.858874
 30
0.0
 10
164.141462
 20
134.141096
 30
0.0
 10
175.859240
 20
134.141096
 30
0.0
 10
175.859240
 20
137.858874
 30
0.0
  0
LWPOLYLINE
  5
1cd
100
AcDbEntity
  8
Slots
 62
1
100
AcDbPolyline
 90
5
 70
0
 10
119.859239
 20
134.141115
 30
0.0
 10
119.859239
 20
145.858893
 30
0.0
 10
116.141461
 20
145.858893
 30
0.0
 10
116.141461
 20
134.141115
 30
0.0
 10
119.859239
 20
134.141115
 30
0.0
  0
LWPOLYLINE
  5
1ce
100
AcDbEntity
  8
Slots
 62
1
100
AcDbPolyline
 90
5
 70
0
 10
127.859234
 20
134.141115
 30
0.0
 10
127.859234
 20
145.858893
 30
0.0
 10
124.141456
 20
145.858893
 30
0.0
 10
124.141456
 20
134.141115
 30
0.0
 10
127.859234
 20
134.141115
 30
0.0
  0
LWPOLYLINE
  5
1cf
100
AcDbEntity
  8
Slots
 62
1
100
AcDbPolyline
 90
5
 70
0
 10
151.859223
 20
134.141115
 30
0.0
 10
151.859223
 20
145.858893
 30
0.0
 10
148.141445
 20
145.858893
 30
0.0
 10
148.141445
 20
134.141115
 30
0.0
 10
151.859223
 20
134.141115
 30
0.0
  0
LWPOLYLINE
  5
1d0
100
AcDbEntity
  8
Slots
 62
1
100
AcDbPolyline
 90
5
 70
0
 10
159.859218
 20
134.141115
 30
0.0
 10
159.859218
 20
145.858893
 30
0.0
 10
156.141440
 20
145.858893
 30
0.0
 10
156.141440
 20
134.141115
 30
0.0
 10
159.859218
 20
134.141115
 30
0.0
  0
LWPOLYLINE
  5
1d1
100
AcDbEntity
  8
Slots
 62
1
100
AcDbPolyline
 90
5
 70
0
 10
127.858887
 20
129.858879
 30
0.0
 10
116.141109
 20
129.858879
 30
0.0
 10
116.141109
 20
126.141101
 30
0.0
 10
127.858887
 20
126.141101
 30
0.0
 10
127.858887
 20
129.858879
 30
0.0
  0
LWPOLYLINE
  5
1d2
100
AcDbEntity
  8
Slots
 62
1
100
AcDbPolyline
 90
5
 70
0
 10
159.858908
 20
129.858879
 30
0.0
 10
148.141130
 20
129.858879
 30
0.0
 10
148.141130
 20
126.141101
 30
0.0
 10
159.858908
 20
126.141101
 30
0.0
 10
159.858908
 20
129.858879
 30
0.0
  0
LWPOLYLINE
  5
1d3
100
AcDbEntity
  8
Slots
 62
1
100
AcDbPolyline
 90
5
 70
0
 10
127.858887
 20
121.858903
 30
0.0
 10
116.141109
 20
121.858903
 30
0.0
 10
116.141109
 20
118.141125
 30
0.0
 10
127.858887
 20
118.141125
 30
0.0
 10
127.858887
 20
121.858903
 30
0.0
  0
LWPOLYLINE
  5
1d4
100
AcDbEntity
  8
Slots
 62
1
100
AcDbPolyline
 90
5
 70
0
 10
159.858908
 20
121.858903
 30
0.0
 10
148.141130
 20
121.858903
 30
0.0
 10
148.141130
 20
118.141125
 30
0.0
 10
159.858908
 20
118.141125
 30
0.0
 10
159.858908
 20
121.858903
 30
0.0
  0
LWPOLYLINE
  5
1d5
100
AcDbEntity
  8
Slots
 62
1
100
AcDbPolyline
 90
5
 70
0
 10
135.858882
 20
118.141128
 30
0.0
 10
135.858882
 20
129.858905
 30
0.0
 10
132.141104
 20
129.858905
 30
0.0
 10
132.141104
 20
118.141128
 30
0.0
 10
135.858882
 20
118.141128
 30
0.0
  0
LWPOLYLINE
  5
1d6
100
AcDbEntity
  8
Slots
 62
1
100
AcDbPolyline
 90
5
 70
0
 10
143.858920
 20
118.141128
 30
0.0
 10
143.858920
 20
129.858905
 30
0.0
 10
140.141142
 20
129.858905
 30
0.0
 10
140.141142
 20
118.141128
 30
0.0
 10
143.858920
 20
118.141128
 30
0.0
  0
LWPOLYLINE
  5
1d7
100
AcDbEntity
  8
Slots
 62
1
100
AcDbPolyline
 90
5
 70
0
 10
167.858883
 20
118.141128
 30
0.0
 10
167.858883
 20
129.858905
 30
0.0
 10
164.141105
 20
129.858905
 30
0.0
 10
164.141105
 20
118.141128
 30
0.0
 10
167.858883
 20
118.141128
 30
0.0
  0
SPLINE
  5
1d8
100
AcDbEntity
  8
Slots
 62
1
100
AcDbSpline
 70
8
 71
3
 72
8
 73
4
 74
0
 40
0
 40
0
 40
0
 40
0
 40
1
 40
1
 40
1
 40
1
 10
111.858889
 20
119.999999
 30
0.0
 10
111.858889
 20
121.026635
 30
0.0
 10
111.026636
 20
121.858888
 30
0.0
 10
110.000000
 20
121.858888
 30
0.0
  0
SPLINE
  5
1d9
100
AcDbEntity
  8
Slots
 62
1
100
AcDbSpline
 70
8
 71
3
 72
8
 73
4
 74
0
 40
0
 40
0
 40
0
 40
0
 40
1
 40
1
 40
1
 40
1
 10
110.000000
 20
121.858888
 30
0.0
 10
108.973364
 20
121.858888
 30
0.0
 10
108.141111
 20
121.026635
 30
0.0
 10
108.141111
 20
119.999999
 30
0.0
  0
SPLINE
  5
1da
100
AcDbEntity
  8
Slots
 62
1
100
AcDbSpline
 70
8
 71
3
 72
8
 73
4
 74
0
 40
0
 40
0
 40
0
 40
0
 40
1
 40
1
 40
1
 40
1
 10
108.141111
 20
119.999999
 30
0.0
 10
108.141111
 20
118.973362
 30
0.0
 10
108.973364
 20
118.141109
 30
0.0
 10
110.000000
 20
118.141109
 30
0.0
  0
SPLINE
  5
1db
100
AcDbEntity
  8
Slots
 62
1
100
AcDbSpline
 70
8
 71
3
 72
8
 73
4
 74
0
 40
0
 40
0
 40
0
 40
0
 40
1
 40
1
 40
1
 40
1
 10
110.000000
 20
118.141109
 30
0.0
 10
111.026636
 20
118.141109
 30
0.0
 10
111.858889
 20
118.973362
 30
0.0
 10
111.858889
 20
119.999999
 30
0.0
  0
LWPOLYLINE
  5
1dc
100
AcDbEntity
  8
Slots
 62
1
100
AcDbPolyline
 90
5
 70
0
 10
175.858895
 20
118.141128
 30
0.0
 10
175.858895
 20
129.858905
 30
0.0
 10
172.141118
 20
129.858905
 30
0.0
 10
172.141118
 20
118.141128
 30
0.0
 10
175.858895
 20
118.141128
 30
0.0
  0
SPLINE
  5
1dd
100
AcDbEntity
  8
Slots
 62
1
100
AcDbSpline
 70
8
 71
3
 72
8
 73
4
 74
0
 40
0
 40
0
 40
0
 40
0
 40
1
 40
1
 40
1
 40
1
 10
111.858889
 20
136.000009
 30
0.0
 10
111.858889
 20
137.026645
 30
0.0
 10
111.026636
 20
137.858898
 30
0.0
 10
110.000000
 20
137.858898
 30
0.0
  0
SPLINE
  5
1de
100
AcDbEntity
  8
Slots
 62
1
100
AcDbSpline
 70
8
 71
3
 72
8
 73
4
 74
0
 40
0
 40
0
 40
0
 40
0
 40
1
 40
1
 40
1
 40
1
 10
110.000000
 20
137.858898
 30
0.0
 10
108.973364
 20
137.858898
 30
0.0
 10
108.141111
 20
137.026645
 30
0.0
 10
108.141111
 20
136.000009
 30
0.0
  0
SPLINE
  5
1df
100
AcDbEntity
  8
Slots
 62
1
100
AcDbSpline
 70
8
 71
3
 72
8
 73
4
 74
0
 40
0
 40
0
 40
0
 40
0
 40
1
 40
1
 40
1
 40
1
 10
108.141111
 20
136.000009
 30
0.0
 10
108.141111
 20
134.973373
 30
0.0
 10
108.973364
 20
134.141120
 30
0.0
 10
110.000000
 20
134.141120
 30
0.0
  0
SPLINE
  5
1e0
100
AcDbEntity
  8
Slots
 62
1
100
AcDbSpline
 70
8
 71
3
 72
8
 73
4
 74
0
 40
0
 40
0
 40
0
 40
0
 40
1
 40
1
 40
1
 40
1
 10
110.000000
 20
134.141120
 30
0.0
 10
111.026636
 20
134.141120
 30
0.0
 10
111.858889
 20
134.973373
 30
0.0
 10
111.858889
 20
136.000009
 30
0.0
  0
LWPOLYLINE
  5
1e1
100
AcDbEntity
  8
Slots
 62
1
100
AcDbPolyline
 90
2
 70
0
 10
111.858889
 20
119.999999
 30
0.0
 10
111.858889
 20
119.999999
 30
0.0
  0
SPLINE
  5
1e2
100
AcDbEntity
  8
Slots
 62
1
100
AcDbSpline
 70
8
 71
3
 72
8
 73
4
 74
0
 40
0
 40
0
 40
0
 40
0
 40
1
 40
1
 40
1
 40
1
 10
111.858889
 20
128.000011
 30
0.0
 10
111.858889
 20
129.026647
 30
0.0
 10
111.026636
 20
129.858900
 30
0.0
 10
110.000000
 20
129.858900
 30
0.0
  0
SPLINE
  5
1e3
100
AcDbEntity
  8
Slots
 62
1
100
AcDbSpline
 70
8
 71
3
 72
8
 73
4
 74
0
 40
0
 40
0
 40
0
 40
0
 40
1
 40
1
 40
1
 40
1
 10
110.000000
 20
129.858900
 30
0.0
 10
108.973364
 20
129.858900
 30
0.0
 10
108.141111
 20
129.026647
 30
0.0
 10
108.141111
 20
128.000011
 30
0.0
  0
SPLINE
  5
1e4
100
AcDbEntity
  8
Slots
 62
1
100
AcDbSpline
 70
8
 71
3
 72
8
 73
4
 74
0
 40
0
 40
0
 40
0
 40
0
 40
1
 40
1
 40
1
 40
1
 10
108.141111
 20
128.000011
 30
0.0
 10
108.141111
 20
126.973375
 30
0.0
 10
108.973364
 20
126.141122
 30
0.0
 10
110.000000
 20
126.141122
 30
0.0
  0
SPLINE
  5
1e5
100
AcDbEntity
  8
Slots
 62
1
100
AcDbSpline
 70
8
 71
3
 72
8
 73
4
 74
0
 40
0
 40
0
 40
0
 40
0
 40
1
 40
1
 40
1
 40
1
 10
110.000000
 20
126.141122
 30
0.0
 10
111.026636
 20
126.141122
 30
0.0
 10
111.858889
 20
126.973375
 30
0.0
 10
111.858889
 20
128.000011
 30
0.0
  0
LWPOLYLINE
  5
1e6
100
AcDbEntity
  8
Slots
 62
1
100
AcDbPolyline
 90
2
 70
0
 10
111.858889
 20
136.000009
 30
0.0
 10
111.858889
 20
136.000009
 30
0.0
  0
SPLINE
  5
1e7
100
AcDbEntity
  8
Slots
 62
1
100
AcDbSpline
 70
8
 71
3
 72
8
 73
4
 74
0
 40
0
 40
0
 40
0
 40
0
 40
1
 40
1
 40
1
 40
1
 10
111.858889
 20
144.000013
 30
0.0
 10
111.858889
 20
145.026649
 30
0.0
 10
111.026636
 20
145.858902
 30
0.0
 10
110.000000
 20
145.858902
 30
0.0
  0
SPLINE
  5
1e8
100
AcDbEntity
  8
Slots
 62
1
100
AcDbSpline
 70
8
 71
3
 72
8
 73
4
 74
0
 40
0
 40
0
 40
0
 40
0
 40
1
 40
1
 40
1
 40
1
 10
110.000000
 20
145.858902
 30
0.0
 10
108.973364
 20
145.858902
 30
0.0
 10
108.141111
 20
145.026649
 30
0.0
 10
108.141111
 20
144.000013
 30
0.0
  0
SPLINE
  5
1e9
100
AcDbEntity
  8
Slots
 62
1
100
AcDbSpline
 70
8
 71
3
 72
8
 73
4
 74
0
 40
0
 40
0
 40
0
 40
0
 40
1
 40
1
 40
1
 40
1
 10
108.141111
 20
144.000013
 30
0.0
 10
108.141111
 20
142.973376
 30
0.0
 10
108.973364
 20
142.141123
 30
0.0
 10
110.000000
 20
142.141123
 30
0.0
  0
SPLINE
  5
1ea
100
AcDbEntity
  8
Slots
 62
1
100
AcDbSpline
 70
8
 71
3
 72
8
 73
4
 74
0
 40
0
 40
0
 40
0
 40
0
 40
1
 40
1
 40
1
 40
1
 10
110.000000
 20
142.141123
 30
0.0
 10
111.026636
 20
142.141123
 30
0.0
 10
111.858889
 20
142.973376
 30
0.0
 10
111.858889
 20
144.000013
 30
0.0
  0
LWPOLYLINE
  5
1eb
100
AcDbEntity
  8
Slots
 62
1
100
AcDbPolyline
 90
2
 70
0
 10
111.858889
 20
128.000011
 30
0.0
 10
111.858889
 20
128.000011
 30
0.0
  0
LWPOLYLINE
  5
1ec
100
AcDbEntity
  8
Slots
 62
1
100
AcDbPolyline
 90
2
 70
0
 10
111.858889
 20
144.000013
 30
0.0
 10
111.858889
 20
144.000013
 30
0.0
  0
LWPOLYLINE
  5
1ed
100
AcDbEntity
  8
Slots
 62
1
100
AcDbPolyline
 90
5
 70
0
 10
76.140778
 20
84.858955
 30
0.0
 10
87.858556
 20
84.858955
 30
0.0
 10
87.858556
 20
81.141177
 30
0.0
 10
76.140778
 20
81.141177
 30
0.0
 10
76.140778
 20
84.858955
 30
0.0
  0
LWPOLYLINE
  5
1ee
100
AcDbEntity
  8
Slots
 62
1
100
AcDbPolyline
 90
5
 70
0
 10
44.140778
 20
84.858955
 30
0.0
 10
55.858555
 20
84.858955
 30
0.0
 10
55.858555
 20
81.141177
 30
0.0
 10
44.140778
 20
81.141177
 30
0.0
 10
44.140778
 20
84.858955
 30
0.0
  0
LWPOLYLINE
  5
1ef
100
AcDbEntity
  8
Slots
 62
1
100
AcDbPolyline
 90
5
 70
0
 10
76.140778
 20
76.858892
 30
0.0
 10
87.858556
 20
76.858892
 30
0.0
 10
87.858556
 20
73.141114
 30
0.0
 10
76.140778
 20
73.141114
 30
0.0
 10
76.140778
 20
76.858892
 30
0.0
  0
LWPOLYLINE
  5
1f0
100
AcDbEntity
  8
Slots
 62
1
100
AcDbPolyline
 90
5
 70
0
 10
44.140778
 20
76.858892
 30
0.0
 10
55.858555
 20
76.858892
 30
0.0
 10
55.858555
 20
73.141114
 30
0.0
 10
44.140778
 20
73.141114
 30
0.0
 10
44.140778
 20
76.858892
 30
0.0
  0
LWPOLYLINE
  5
1f1
100
AcDbEntity
  8
Slots
 62
1
100
AcDbPolyline
 90
5
 70
0
 10
100.140778
 20
73.141153
 30
0.0
 10
100.140778
 20
84.858930
 30
0.0
 10
103.858556
 20
84.858930
 30
0.0
 10
103.858556
 20
73.141153
 30
0.0
 10
100.140778
 20
73.141153
 30
0.0
  0
LWPOLYLINE
  5
1f2
100
AcDbEntity
  8
Slots
 62
1
100
AcDbPolyline
 90
5
 70
0
 10
92.140783
 20
73.141153
 30
0.0
 10
92.140783
 20
84.858930
 30
0.0
 10
95.858561
 20
84.858930
 30
0.0
 10
95.858561
 20
73.141153
 30
0.0
 10
92.140783
 20
73.141153
 30
0.0
  0
LWPOLYLINE
  5
1f3
100
AcDbEntity
  8
Slots
 62
1
100
AcDbPolyline
 90
5
 70
0
 10
68.140794
 20
73.141153
 30
0.0
 10
68.140794
 20
84.858930
 30
0.0
 10
71.858572
 20
84.858930
 30
0.0
 10
71.858572
 20
73.141153
 30
0.0
 10
68.140794
 20
73.141153
 30
0.0
  0
LWPOLYLINE
  5
1f4
100
AcDbEntity
  8
Slots
 62
1
100
AcDbPolyline
 90
5
 70
0
 10
60.140799
 20
73.141153
 30
0.0
 10
60.140799
 20
84.858930
 30
0.0
 10
63.858577
 20
84.858930
 30
0.0
 10
63.858577
 20
73.141153
 30
0.0
 10
60.140799
 20
73.141153
 30
0.0
  0
LWPOLYLINE
  5
1f5
100
AcDbEntity
  8
Slots
 62
1
100
AcDbPolyline
 90
5
 70
0
 10
143.859247
 20
84.858955
 30
0.0
 10
132.141470
 20
84.858955
 30
0.0
 10
132.141470
 20
81.141177
 30
0.0
 10
143.859247
 20
81.141177
 30
0.0
 10
143.859247
 20
84.858955
 30
0.0
  0
LWPOLYLINE
  5
1f6
100
AcDbEntity
  8
Slots
 62
1
100
AcDbPolyline
 90
5
 70
0
 10
175.859240
 20
84.858955
 30
0.0
 10
164.141462
 20
84.858955
 30
0.0
 10
164.141462
 20
81.141177
 30
0.0
 10
175.859240
 20
81.141177
 30
0.0
 10
175.859240
 20
84.858955
 30
0.0
  0
LWPOLYLINE
  5
1f7
100
AcDbEntity
  8
Slots
 62
1
100
AcDbPolyline
 90
5
 70
0
 10
143.859247
 20
76.858892
 30
0.0
 10
132.141470
 20
76.858892
 30
0.0
 10
132.141470
 20
73.141114
 30
0.0
 10
143.859247
 20
73.141114
 30
0.0
 10
143.859247
 20
76.858892
 30
0.0
  0
LWPOLYLINE
  5
1f8
100
AcDbEntity
  8
Slots
 62
1
100
AcDbPolyline
 90
5
 70
0
 10
175.859240
 20
76.858892
 30
0.0
 10
164.141462
 20
76.858892
 30
0.0
 10
164.141462
 20
73.141114
 30
0.0
 10
175.859240
 20
73.141114
 30
0.0
 10
175.859240
 20
76.858892
 30
0.0
  0
LWPOLYLINE
  5
1f9
100
AcDbEntity
  8
Slots
 62
1
100
AcDbPolyline
 90
5
 70
0
 10
119.859239
 20
73.141153
 30
0.0
 10
119.859239
 20
84.858930
 30
0.0
 10
116.141461
 20
84.858930
 30
0.0
 10
116.141461
 20
73.141153
 30
0.0
 10
119.859239
 20
73.141153
 30
0.0
  0
LWPOLYLINE
  5
1fa
100
AcDbEntity
  8
Slots
 62
1
100
AcDbPolyline
 90
5
 70
0
 10
127.859234
 20
73.141153
 30
0.0
 10
127.859234
 20
84.858930
 30
0.0
 10
124.141456
 20
84.858930
 30
0.0
 10
124.141456
 20
73.141153
 30
0.0
 10
127.859234
 20
73.141153
 30
0.0
  0
LWPOLYLINE
  5
1fb
100
AcDbEntity
  8
Slots
 62
1
100
AcDbPolyline
 90
5
 70
0
 10
151.859223
 20
73.141153
 30
0.0
 10
151.859223
 20
84.858930
 30
0.0
 10
148.141445
 20
84.858930
 30
0.0
 10
148.141445
 20
73.141153
 30
0.0
 10
151.859223
 20
73.141153
 30
0.0
  0
SPLINE
  5
1fc
100
AcDbEntity
  8
Slots
 62
1
100
AcDbSpline
 70
8
 71
3
 72
8
 73
4
 74
0
 40
0
 40
0
 40
0
 40
0
 40
1
 40
1
 40
1
 40
1
 10
111.858889
 20
75.000072
 30
0.0
 10
111.858889
 20
76.026708
 30
0.0
 10
111.026637
 20
76.858961
 30
0.0
 10
110.000001
 20
76.858961
 30
0.0
  0
SPLINE
  5
1fd
100
AcDbEntity
  8
Slots
 62
1
100
AcDbSpline
 70
8
 71
3
 72
8
 73
4
 74
0
 40
0
 40
0
 40
0
 40
0
 40
1
 40
1
 40
1
 40
1
 10
110.000001
 20
76.858961
 30
0.0
 10
108.973365
 20
76.858961
 30
0.0
 10
108.141112
 20
76.026708
 30
0.0
 10
108.141112
 20
75.000072
 30
0.0
  0
SPLINE
  5
1fe
100
AcDbEntity
  8
Slots
 62
1
100
AcDbSpline
 70
8
 71
3
 72
8
 73
4
 74
0
 40
0
 40
0
 40
0
 40
0
 40
1
 40
1
 40
1
 40
1
 10
108.141112
 20
75.000072
 30
0.0
 10
108.141112
 20
73.973435
 30
0.0
 10
108.973365
 20
73.141182
 30
0.0
 10
110.000001
 20
73.141182
 30
0.0
  0
SPLINE
  5
1ff
100
AcDbEntity
  8
Slots
 62
1
100
AcDbSpline
 70
8
 71
3
 72
8
 73
4
 74
0
 40
0
 40
0
 40
0
 40
0
 40
1
 40
1
 40
1
 40
1
 10
110.000001
 20
73.141182
 30
0.0
 10
111.026637
 20
73.141182
 30
0.0
 10
111.858889
 20
73.973435
 30
0.0
 10
111.858889
 20
75.000072
 30
0.0
  0
LWPOLYLINE
  5
200
100
AcDbEntity
  8
Slots
 62
1
100
AcDbPolyline
 90
5
 70
0
 10
159.859218
 20
73.141153
 30
0.0
 10
159.859218
 20
84.858930
 30
0.0
 10
156.141440
 20
84.858930
 30
0.0
 10
156.141440
 20
73.141153
 30
0.0
 10
159.859218
 20
73.141153
 30
0.0
  0
SPLINE
  5
201
100
AcDbEntity
  8
Slots
 62
1
100
AcDbSpline
 70
8
 71
3
 72
8
 73
4
 74
0
 40
0
 40
0
 40
0
 40
0
 40
1
 40
1
 40
1
 40
1
 10
111.858889
 20
83.000056
 30
0.0
 10
111.858889
 20
84.026692
 30
0.0
 10
111.026637
 20
84.858945
 30
0.0
 10
110.000001
 20
84.858945
 30
0.0
  0
SPLINE
  5
202
100
AcDbEntity
  8
Slots
 62
1
100
AcDbSpline
 70
8
 71
3
 72
8
 73
4
 74
0
 40
0
 40
0
 40
0
 40
0
 40
1
 40
1
 40
1
 40
1
 10
110.000001
 20
84.858945
 30
0.0
 10
108.973365
 20
84.858945
 30
0.0
 10
108.141112
 20
84.026692
 30
0.0
 10
108.141112
 20
83.000056
 30
0.0
  0
SPLINE
  5
203
100
AcDbEntity
  8
Slots
 62
1
100
AcDbSpline
 70
8
 71
3
 72
8
 73
4
 74
0
 40
0
 40
0
 40
0
 40
0
 40
1
 40
1
 40
1
 40
1
 10
108.141112
 20
83.000056
 30
0.0
 10
108.141112
 20
81.973419
 30
0.0
 10
108.973365
 20
81.141166
 30
0.0
 10
110.000001
 20
81.141166
 30
0.0
  0
SPLINE
  5
204
100
AcDbEntity
  8
Slots
 62
1
100
AcDbSpline
 70
8
 71
3
 72
8
 73
4
 74
0
 40
0
 40
0
 40
0
 40
0
 40
1
 40
1
 40
1
 40
1
 10
110.000001
 20
81.141166
 30
0.0
 10
111.026637
 20
81.141166
 30
0.0
 10
111.858889
 20
81.973419
 30
0.0
 10
111.858889
 20
83.000056
 30
0.0
  0
LWPOLYLINE
  5
205
100
AcDbEntity
  8
Slots
 62
1
100
AcDbPolyline
 90
2
 70
0
 10
111.858889
 20
75.000072
 30
0.0
 10
111.858889
 20
75.000072
 30
0.0
  0
LWPOLYLINE
  5
206
100
AcDbEntity
  8
Slots
 62
1
100
AcDbPolyline
 90
2
 70
0
 10
111.858889
 20
83.000056
 30
0.0
 10
111.858889
 20
83.000056
 30
0.0
  0
LWPOLYLINE
  5
207
100
AcDbEntity
  8
Slots
 62
1
100
AcDbPolyline
 90
5
 70
0
 10
92.141127
 20
89.141124
 30
0.0
 10
103.858905
 20
89.141124
 30
0.0
 10
103.858905
 20
92.858901
 30
0.0
 10
92.141127
 20
92.858901
 30
0.0
 10
92.141127
 20
89.141124
 30
0.0
  0
LWPOLYLINE
  5
208
100
AcDbEntity
  8
Slots
 62
1
100
AcDbPolyline
 90
5
 70
0
 10
60.141110
 20
89.141124
 30
0.0
 10
71.858887
 20
89.141124
 30
0.0
 10
71.858887
 20
92.858901
 30
0.0
 10
60.141110
 20
92.858901
 30
0.0
 10
60.141110
 20
89.141124
 30
0.0
  0
LWPOLYLINE
  5
209
100
AcDbEntity
  8
Slots
 62
1
100
AcDbPolyline
 90
5
 70
0
 10
92.141127
 20
97.141116
 30
0.0
 10
103.858905
 20
97.141116
 30
0.0
 10
103.858905
 20
100.858894
 30
0.0
 10
92.141127
 20
100.858894
 30
0.0
 10
92.141127
 20
97.141116
 30
0.0
  0
LWPOLYLINE
  5
20a
100
AcDbEntity
  8
Slots
 62
1
100
AcDbPolyline
 90
5
 70
0
 10
60.141110
 20
97.141116
 30
0.0
 10
71.858887
 20
97.141116
 30
0.0
 10
71.858887
 20
100.858894
 30
0.0
 10
60.141110
 20
100.858894
 30
0.0
 10
60.141110
 20
97.141116
 30
0.0
  0
LWPOLYLINE
  5
20b
100
AcDbEntity
  8
Slots
 62
1
100
AcDbPolyline
 90
5
 70
0
 10
84.141135
 20
100.858892
 30
0.0
 10
84.141135
 20
89.141114
 30
0.0
 10
87.858913
 20
89.141114
 30
0.0
 10
87.858913
 20
100.858892
 30
0.0
 10
84.141135
 20
100.858892
 30
0.0
  0
LWPOLYLINE
  5
20c
100
AcDbEntity
  8
Slots
 62
1
100
AcDbPolyline
 90
5
 70
0
 10
76.141106
 20
100.858892
 30
0.0
 10
76.141106
 20
89.141114
 30
0.0
 10
79.858884
 20
89.141114
 30
0.0
 10
79.858884
 20
100.858892
 30
0.0
 10
76.141106
 20
100.858892
 30
0.0
  0
LWPOLYLINE
  5
20d
100
AcDbEntity
  8
Slots
 62
1
100
AcDbPolyline
 90
5
 70
0
 10
52.141131
 20
100.858892
 30
0.0
 10
52.141131
 20
89.141114
 30
0.0
 10
55.858909
 20
89.141114
 30
0.0
 10
55.858909
 20
100.858892
 30
0.0
 10
52.141131
 20
100.858892
 30
0.0
  0
LWPOLYLINE
  5
20e
100
AcDbEntity
  8
Slots
 62
1
100
AcDbPolyline
 90
5
 70
0
 10
44.141122
 20
100.858892
 30
0.0
 10
44.141122
 20
89.141114
 30
0.0
 10
47.858900
 20
89.141114
 30
0.0
 10
47.858900
 20
100.858892
 30
0.0
 10
44.141122
 20
100.858892
 30
0.0
  0
LWPOLYLINE
  5
20f
100
AcDbEntity
  8
Slots
 62
1
100
AcDbPolyline
 90
5
 70
0
 10
127.858887
 20
89.141124
 30
0.0
 10
116.141109
 20
89.141124
 30
0.0
 10
116.141109
 20
92.858901
 30
0.0
 10
127.858887
 20
92.858901
 30
0.0
 10
127.858887
 20
89.141124
 30
0.0
  0
LWPOLYLINE
  5
210
100
AcDbEntity
  8
Slots
 62
1
100
AcDbPolyline
 90
5
 70
0
 10
159.858908
 20
89.141124
 30
0.0
 10
148.141130
 20
89.141124
 30
0.0
 10
148.141130
 20
92.858901
 30
0.0
 10
159.858908
 20
92.858901
 30
0.0
 10
159.858908
 20
89.141124
 30
0.0
  0
LWPOLYLINE
  5
211
100
AcDbEntity
  8
Slots
 62
1
100
AcDbPolyline
 90
5
 70
0
 10
127.858887
 20
97.141116
 30
0.0
 10
116.141109
 20
97.141116
 30
0.0
 10
116.141109
 20
100.858894
 30
0.0
 10
127.858887
 20
100.858894
 30
0.0
 10
127.858887
 20
97.141116
 30
0.0
  0
LWPOLYLINE
  5
212
100
AcDbEntity
  8
Slots
 62
1
100
AcDbPolyline
 90
5
 70
0
 10
159.858908
 20
97.141116
 30
0.0
 10
148.141130
 20
97.141116
 30
0.0
 10
148.141130
 20
100.858894
 30
0.0
 10
159.858908
 20
100.858894
 30
0.0
 10
159.858908
 20
97.141116
 30
0.0
  0
LWPOLYLINE
  5
213
100
AcDbEntity
  8
Slots
 62
1
100
AcDbPolyline
 90
5
 70
0
 10
135.858882
 20
100.858892
 30
0.0
 10
135.858882
 20
89.141114
 30
0.0
 10
132.141104
 20
89.141114
 30
0.0
 10
132.141104
 20
100.858892
 30
0.0
 10
135.858882
 20
100.858892
 30
0.0
  0
LWPOLYLINE
  5
214
100
AcDbEntity
  8
Slots
 62
1
100
AcDbPolyline
 90
5
 70
0
 10
143.858920
 20
100.858892
 30
0.0
 10
143.858920
 20
89.141114
 30
0.0
 10
140.141142
 20
89.141114
 30
0.0
 10
140.141142
 20
100.858892
 30
0.0
 10
143.858920
 20
100.858892
 30
0.0
  0
LWPOLYLINE
  5
215
100
AcDbEntity
  8
Slots
 62
1
100
AcDbPolyline
 90
5
 70
0
 10
167.858883
 20
100.858892
 30
0.0
 10
167.858883
 20
89.141114
 30
0.0
 10
164.141105
 20
89.141114
 30
0.0
 10
164.141105
 20
100.858892
 30
0.0
 10
167.858883
 20
100.858892
 30
0.0
  0
SPLINE
  5
216
100
AcDbEntity
  8
Slots
 62
1
100
AcDbSpline
 70
8
 71
3
 72
8
 73
4
 74
0
 40
0
 40
0
 40
0
 40
0
 40
1
 40
1
 40
1
 40
1
 10
111.858888
 20
99.000017
 30
0.0
 10
111.858888
 20
97.973382
 30
0.0
 10
111.026635
 20
97.141129
 30
0.0
 10
110.000000
 20
97.141129
 30
0.0
  0
SPLINE
  5
217
100
AcDbEntity
  8
Slots
 62
1
100
AcDbSpline
 70
8
 71
3
 72
8
 73
4
 74
0
 40
0
 40
0
 40
0
 40
0
 40
1
 40
1
 40
1
 40
1
 10
110.000000
 20
97.141129
 30
0.0
 10
108.973364
 20
97.141129
 30
0.0
 10
108.141111
 20
97.973382
 30
0.0
 10
108.141111
 20
99.000017
 30
0.0
  0
SPLINE
  5
218
100
AcDbEntity
  8
Slots
 62
1
100
AcDbSpline
 70
8
 71
3
 72
8
 73
4
 74
0
 40
0
 40
0
 40
0
 40
0
 40
1
 40
1
 40
1
 40
1
 10
108.141111
 20
99.000017
 30
0.0
 10
108.141111
 20
100.026654
 30
0.0
 10
108.973364
 20
100.858907
 30
0.0
 10
110.000000
 20
100.858907
 30
0.0
  0
SPLINE
  5
219
100
AcDbEntity
  8
Slots
 62
1
100
AcDbSpline
 70
8
 71
3
 72
8
 73
4
 74
0
 40
0
 40
0
 40
0
 40
0
 40
1
 40
1
 40
1
 40
1
 10
110.000000
 20
100.858907
 30
0.0
 10
111.026635
 20
100.858907
 30
0.0
 10
111.858888
 20
100.026654
 30
0.0
 10
111.858888
 20
99.000017
 30
0.0
  0
LWPOLYLINE
  5
21a
100
AcDbEntity
  8
Slots
 62
1
100
AcDbPolyline
 90
5
 70
0
 10
175.858895
 20
100.858892
 30
0.0
 10
175.858895
 20
89.141114
 30
0.0
 10
172.141118
 20
89.141114
 30
0.0
 10
172.141118
 20
100.858892
 30
0.0
 10
175.858895
 20
100.858892
 30
0.0
  0
SPLINE
  5
21b
100
AcDbEntity
  8
Slots
 62
1
100
AcDbSpline
 70
8
 71
3
 72
8
 73
4
 74
0
 40
0
 40
0
 40
0
 40
0
 40
1
 40
1
 40
1
 40
1
 10
111.858888
 20
91.000002
 30
0.0
 10
111.858888
 20
89.973367
 30
0.0
 10
111.026635
 20
89.141114
 30
0.0
 10
110.000000
 20
89.141114
 30
0.0
  0
SPLINE
  5
21c
100
AcDbEntity
  8
Slots
 62
1
100
AcDbSpline
 70
8
 71
3
 72
8
 73
4
 74
0
 40
0
 40
0
 40
0
 40
0
 40
1
 40
1
 40
1
 40
1
 10
110.000000
 20
89.141114
 30
0.0
 10
108.973364
 20
89.141114
 30
0.0
 10
108.141111
 20
89.973367
 30
0.0
 10
108.141111
 20
91.000002
 30
0.0
  0
SPLINE
  5
21d
100
AcDbEntity
  8
Slots
 62
1
100
AcDbSpline
 70
8
 71
3
 72
8
 73
4
 74
0
 40
0
 40
0
 40
0
 40
0
 40
1
 40
1
 40
1
 40
1
 10
108.141111
 20
91.000002
 30
0.0
 10
108.141111
 20
92.026639
 30
0.0
 10
108.973364
 20
92.858892
 30
0.0
 10
110.000000
 20
92.858892
 30
0.0
  0
SPLINE
  5
21e
100
AcDbEntity
  8
Slots
 62
1
100
AcDbSpline
 70
8
 71
3
 72
8
 73
4
 74
0
 40
0
 40
0
 40
0
 40
0
 40
1
 40
1
 40
1
 40
1
 10
110.000000
 20
92.858892
 30
0.0
 10
111.026635
 20
92.858892
 30
0.0
 10
111.858888
 20
92.026639
 30
0.0
 10
111.858888
 20
91.000002
 30
0.0
  0
LWPOLYLINE
  5
21f
100
AcDbEntity
  8
Slots
 62
1
100
AcDbPolyline
 90
2
 70
0
 10
111.858888
 20
99.000017
 30
0.0
 10
111.858888
 20
99.000017
 30
0.0
  0
LWPOLYLINE
  5
220
100
AcDbEntity
  8
Slots
 62
1
100
AcDbPolyline
 90
2
 70
0
 10
111.858888
 20
91.000002
 30
0.0
 10
111.858888
 20
91.000002
 30
0.0
  0
LWPOLYLINE
  5
221
100
AcDbEntity
  8
Slots
 62
1
100
AcDbPolyline
 90
5
 70
0
 10
111.858891
 20
105.141111
 30
0.0
 10
111.858891
 20
113.858889
 30
0.0
 10
108.141113
 20
113.858889
 30
0.0
 10
108.141113
 20
105.141111
 30
0.0
 10
111.858891
 20
105.141111
 30
0.0
  0
LWPOLYLINE
  5
222
100
AcDbEntity
  8
Slots
 62
1
100
AcDbPolyline
 90
5
 70
0
 10
103.858890
 20
105.141111
 30
0.0
 10
103.858890
 20
113.858889
 30
0.0
 10
100.141112
 20
113.858889
 30
0.0
 10
100.141112
 20
105.141111
 30
0.0
 10
103.858890
 20
105.141111
 30
0.0
  0
LWPOLYLINE
  5
223
100
AcDbEntity
  8
Slots
 62
1
100
AcDbPolyline
 90
5
 70
0
 10
95.858886
 20
105.141111
 30
0.0
 10
95.858886
 20
113.858889
 30
0.0
 10
92.141108
 20
113.858889
 30
0.0
 10
92.141108
 20
105.141111
 30
0.0
 10
95.858886
 20
105.141111
 30
0.0
  0
LWPOLYLINE
  5
224
100
AcDbEntity
  8
Slots
 62
1
100
AcDbPolyline
 90
5
 70
0
 10
79.858890
 20
105.141111
 30
0.0
 10
79.858890
 20
113.858889
 30
0.0
 10
76.141112
 20
113.858889
 30
0.0
 10
76.141112
 20
105.141111
 30
0.0
 10
79.858890
 20
105.141111
 30
0.0
  0
LWPOLYLINE
  5
225
100
AcDbEntity
  8
Slots
 62
1
100
AcDbPolyline
 90
5
 70
0
 10
55.858890
 20
105.141111
 30
0.0
 10
55.858890
 20
113.858889
 30
0.0
 10
52.141112
 20
113.858889
 30
0.0
 10
52.141112
 20
105.141111
 30
0.0
 10
55.858890
 20
105.141111
 30
0.0
  0
LWPOLYLINE
  5
226
100
AcDbEntity
  8
Slots
 62
1
100
AcDbPolyline
 90
5
 70
0
 10
47.858889
 20
105.141111
 30
0.0
 10
47.858889
 20
113.858889
 30
0.0
 10
44.141111
 20
113.858889
 30
0.0
 10
44.141111
 20
105.141111
 30
0.0
 10
47.858889
 20
105.141111
 30
0.0
  0
LWPOLYLINE
  5
227
100
AcDbEntity
  8
Slots
 62
1
100
AcDbPolyline
 90
5
 70
0
 10
63.858888
 20
105.141111
 30
0.0
 10
63.858888
 20
113.858889
 30
0.0
 10
60.141110
 20
113.858889
 30
0.0
 10
60.141110
 20
105.141111
 30
0.0
 10
63.858888
 20
105.141111
 30
0.0
  0
LWPOLYLINE
  5
228
100
AcDbEntity
  8
Slots
 62
1
100
AcDbPolyline
 90
5
 70
0
 10
87.858894
 20
105.141111
 30
0.0
 10
87.858894
 20
113.858889
 30
0.0
 10
84.141116
 20
113.858889
 30
0.0
 10
84.141116
 20
105.141111
 30
0.0
 10
87.858894
 20
105.141111
 30
0.0
  0
LWPOLYLINE
  5
229
100
AcDbEntity
  8
Slots
 62
1
100
AcDbPolyline
 90
5
 70
0
 10
71.858886
 20
105.141111
 30
0.0
 10
71.858886
 20
113.858889
 30
0.0
 10
68.141108
 20
113.858889
 30
0.0
 10
68.141108
 20
105.141111
 30
0.0
 10
71.858886
 20
105.141111
 30
0.0
  0
LWPOLYLINE
  5
22a
100
AcDbEntity
  8
Slots
 62
1
100
AcDbPolyline
 90
5
 70
0
 10
175.858895
 20
105.141111
 30
0.0
 10
175.858895
 20
113.858889
 30
0.0
 10
172.141118
 20
113.858889
 30
0.0
 10
172.141118
 20
105.141111
 30
0.0
 10
175.858895
 20
105.141111
 30
0.0
  0
LWPOLYLINE
  5
22b
100
AcDbEntity
  8
Slots
 62
1
100
AcDbPolyline
 90
5
 70
0
 10
167.858883
 20
105.141111
 30
0.0
 10
167.858883
 20
113.858889
 30
0.0
 10
164.141105
 20
113.858889
 30
0.0
 10
164.141105
 20
105.141111
 30
0.0
 10
167.858883
 20
105.141111
 30
0.0
  0
LWPOLYLINE
  5
22c
100
AcDbEntity
  8
Slots
 62
1
100
AcDbPolyline
 90
5
 70
0
 10
151.858895
 20
105.141111
 30
0.0
 10
151.858895
 20
113.858889
 30
0.0
 10
148.141118
 20
113.858889
 30
0.0
 10
148.141118
 20
105.141111
 30
0.0
 10
151.858895
 20
105.141111
 30
0.0
  0
LWPOLYLINE
  5
22d
100
AcDbEntity
  8
Slots
 62
1
100
AcDbPolyline
 90
5
 70
0
 10
127.858887
 20
105.141111
 30
0.0
 10
127.858887
 20
113.858889
 30
0.0
 10
124.141109
 20
113.858889
 30
0.0
 10
124.141109
 20
105.141111
 30
0.0
 10
127.858887
 20
105.141111
 30
0.0
  0
LWPOLYLINE
  5
22e
100
AcDbEntity
  8
Slots
 62
1
100
AcDbPolyline
 90
5
 70
0
 10
119.858886
 20
105.141111
 30
0.0
 10
119.858886
 20
113.858889
 30
0.0
 10
116.141108
 20
113.858889
 30
0.0
 10
116.141108
 20
105.141111
 30
0.0
 10
119.858886
 20
105.141111
 30
0.0
  0
LWPOLYLINE
  5
22f
100
AcDbEntity
  8
Slots
 62
1
100
AcDbPolyline
 90
5
 70
0
 10
135.858891
 20
105.141111
 30
0.0
 10
135.858891
 20
113.858889
 30
0.0
 10
132.141113
 20
113.858889
 30
0.0
 10
132.141113
 20
105.141111
 30
0.0
 10
135.858891
 20
105.141111
 30
0.0
  0
LWPOLYLINE
  5
230
100
AcDbEntity
  8
Slots
 62
1
100
AcDbPolyline
 90
5
 70
0
 10
159.858891
 20
105.141111
 30
0.0
 10
159.858891
 20
113.858889
 30
0.0
 10
156.141113
 20
113.858889
 30
0.0
 10
156.141113
 20
105.141111
 30
0.0
 10
159.858891
 20
105.141111
 30
0.0
  0
LWPOLYLINE
  5
231
100
AcDbEntity
  8
Slots
 62
1
100
AcDbPolyline
 90
5
 70
0
 10
143.858886
 20
105.141111
 30
0.0
 10
143.858886
 20
113.858889
 30
0.0
 10
140.141108
 20
113.858889
 30
0.0
 10
140.141108
 20
105.141111
 30
0.0
 10
143.858886
 20
105.141111
 30
0.0
  0
ENDSEC
  0
SECTION
  2
OBJECTS
  0
DICTIONARY
  5
C
330
0
100
AcDbDictionary
  3
ACAD_GROUP
350
D
  3
ACAD_MLINESTYLE
350
17
  0
DICTIONARY
  5
D
330
C
100
AcDbDictionary
  0
DICTIONARY
  5
1A
330
C
100
AcDbDictionary
  0
DICTIONARY
  5
17
330
C
100
AcDbDictionary
  3
STANDARD
350
18
  0
DICTIONARY
  5
19
330
C
100
AcDbDictionary
  0
ENDSEC
  0
EOF
