  0
SECTION
  2
HEADER
  9
$ACADVER
  1
AC1014
  9
$HANDSEED
  5
FFFF
  9
$MEASUREMENT
 70
     1
  0
ENDSEC
  0
SECTION
  2
TABLES
  0
TABLE
  2
VPORT
  5
8
330
0
100
AcDbSymbolTable
 70
     4
  0
VPORT
  5
2E
330
8
100
AcDbSymbolTableRecord
100
AcDbViewportTableRecord
  2
*ACTIVE
 70
     0
 10
0.0
 20
0.0
 11
1.0
 21
1.0
 12
210.0
 22
148.5
 13
0.0
 23
0.0
 14
10.0
 24
10.0
 15
10.0
 25
10.0
 16
0.0
 26
0.0
 36
1.0
 17
0.0
 27
0.0
 37
0.0
 40
341.0
 41
1.24
 42
50.0
 43
0.0
 44
0.0
 50
0.0
 51
0.0
 71
     0
 72
   100
 73
     1
 74
     3
 75
     0
 76
     0
 77
     0
 78
     0
  0
ENDTAB
  0
TABLE
  2
LTYPE
  5
5
330
0
100
AcDbSymbolTable
 70
     1
  0
LTYPE
  5
14
330
5
100
AcDbSymbolTableRecord
100
AcDbLinetypeTableRecord
  2
BYBLOCK
 70
     0
  3

 72
    65
 73
     0
 40
0.0
  0
LTYPE
  5
15
330
5
100
AcDbSymbolTableRecord
100
AcDbLinetypeTableRecord
  2
BYLAYER
 70
     0
  3

 72
    65
 73
     0
 40
0.0
  0
LTYPE
  5
16
330
5
100
AcDbSymbolTableRecord
100
AcDbLinetypeTableRecord
  2
CONTINUOUS
 70
     0
  3
Solid line
 72
    65
 73
     0
 40
0.0
  0
ENDTAB
  0
TABLE
  2
LAYER
  5
2
100
AcDbSymbolTable
 70
2
  0
LAYER
  5
50
100
AcDbSymbolTableRecord
100
AcDbLayerTableRecord
  2
0
 70
0
  6
CONTINUOUS
  0
LAYER
  5
51
100
AcDbSymbolTableRecord
100
AcDbLayerTableRecord
  2
Layer_1
 70
0
  6
CONTINUOUS
  0
ENDTAB
  0
TABLE
  2
STYLE
  5
3
330
0
100
AcDbSymbolTable
 70
     1
  0
STYLE
  5
11
330
3
100
AcDbSymbolTableRecord
100
AcDbTextStyleTableRecord
  2
STANDARD
 70
     0
 40
0.0
 41
1.0
 50
0.0
 71
     0
 42
2.5
  3
txt
  4

  0
ENDTAB
  0
TABLE
  2
VIEW
  5
6
330
0
100
AcDbSymbolTable
 70
     0
  0
ENDTAB
  0
TABLE
  2
UCS
  5
7
330
0
100
AcDbSymbolTable
 70
     0
  0
ENDTAB
  0
TABLE
  2
APPID
  5
9
330
0
100
AcDbSymbolTable
 70
     2
  0
APPID
  5
12
330
9
100
AcDbSymbolTableRecord
100
AcDbRegAppTableRecord
  2
ACAD
 70
     0
  0
ENDTAB
  0
TABLE
  2
DIMSTYLE
  5
A
330
0
100
AcDbSymbolTable
 70
     1
  0
DIMSTYLE
105
27
330
A
100
AcDbSymbolTableRecord
100
AcDbDimStyleTableRecord
  2
ISO-25
 70
     0
  3

  4

  5

  6

  7

 40
1.0
 41
2.5
 42
0.625
 43
3.75
 44
1.25
 45
0.0
 46
0.0
 47
0.0
 48
0.0
140
2.5
141
2.5
142
0.0
143
0.03937007874016
144
1.0
145
0.0
146
1.0
147
0.625
 71
     0
 72
     0
 73
     0
 74
     0
 75
     0
 76
     0
 77
     1
 78
     8
170
     0
171
     3
172
     1
173
     0
174
     0
175
     0
176
     0
177
     0
178
     0
270
     2
271
     2
272
     2
273
     2
274
     3
340
11
275
     0
280
     0
281
     0
282
     0
283
     0
284
     8
285
     0
286
     0
287
     3
288
     0
  0
ENDTAB
  0
TABLE
  2
BLOCK_RECORD
  5
1
330
0
100
AcDbSymbolTable
 70
     1
  0
BLOCK_RECORD
  5
1F
330
1
100
AcDbSymbolTableRecord
100
AcDbBlockTableRecord
  2
*MODEL_SPACE
  0
BLOCK_RECORD
  5
1B
330
1
100
AcDbSymbolTableRecord
100
AcDbBlockTableRecord
  2
*PAPER_SPACE
  0
ENDTAB
  0
ENDSEC
  0
SECTION
  2
BLOCKS
  0
BLOCK
  5
20
330
1F
100
AcDbEntity
  8
0
100
AcDbBlockBegin
  2
*MODEL_SPACE
 70
     0
 10
0.0
 20
0.0
 30
0.0
  3
*MODEL_SPACE
  1

  0
ENDBLK
  5
21
330
1F
100
AcDbEntity
  8
0
100
AcDbBlockEnd
  0
BLOCK
  5
1C
330
1B
100
AcDbEntity
 67
     1
  8
0
100
AcDbBlockBegin
  2
*PAPER_SPACE
  1

  0
ENDBLK
  5
1D
330
1B
100
AcDbEntity
 67
     1
  8
0
100
AcDbBlockEnd
  0
ENDSEC
  0
SECTION
  2
ENTITIES
  0
SPLINE
  5
100
100
AcDbEntity
  8
Layer_1
 62
7
100
AcDbSpline
 70
8
 71
3
 72
8
 73
4
 74
0
 40
0
 40
0
 40
0
 40
0
 40
1
 40
1
 40
1
 40
1
 10
40.323429
 20
76.175150
 30
0.0
 10
38.752749
 20
76.172328
 30
0.0
 10
37.159686
 20
76.072252
 30
0.0
 10
35.560926
 20
75.866563
 30
0.0
  0
SPLINE
  5
101
100
AcDbEntity
  8
Layer_1
 62
7
100
AcDbSpline
 70
8
 71
3
 72
8
 73
4
 74
0
 40
0
 40
0
 40
0
 40
0
 40
1
 40
1
 40
1
 40
1
 10
35.560926
 20
75.866563
 30
0.0
 10
15.096928
 20
73.233709
 30
0.0
 10
0.639405
 20
54.505428
 30
0.0
 10
3.272929
 20
34.046645
 30
0.0
  0
SPLINE
  5
102
100
AcDbEntity
  8
Layer_1
 62
7
100
AcDbSpline
 70
8
 71
3
 72
8
 73
4
 74
0
 40
0
 40
0
 40
0
 40
0
 40
1
 40
1
 40
1
 40
1
 10
3.272929
 20
34.046645
 30
0.0
 10
5.906453
 20
13.587899
 30
0.0
 10
24.639572
 20
-0.865999
 30
0.0
 10
45.103570
 20
1.766880
 30
0.0
  0
SPLINE
  5
103
100
AcDbEntity
  8
Layer_1
 62
7
100
AcDbSpline
 70
8
 71
3
 72
8
 73
4
 74
0
 40
0
 40
0
 40
0
 40
0
 40
1
 40
1
 40
1
 40
1
 10
45.103570
 20
1.766880
 30
0.0
 10
65.567568
 20
4.399732
 30
0.0
 10
80.025088
 20
23.128029
 30
0.0
 10
77.391585
 20
43.586821
 30
0.0
  0
SPLINE
  5
104
100
AcDbEntity
  8
Layer_1
 62
7
100
AcDbSpline
 70
8
 71
3
 72
8
 73
4
 74
0
 40
0
 40
0
 40
0
 40
0
 40
1
 40
1
 40
1
 40
1
 10
77.391585
 20
43.586821
 30
0.0
 10
75.001727
 20
62.152544
 30
0.0
 10
59.354613
 20
75.772637
 30
0.0
 10
41.187734
 20
76.166348
 30
0.0
  0
SPLINE
  5
105
100
AcDbEntity
  8
Layer_1
 62
7
100
AcDbSpline
 70
8
 71
3
 72
8
 73
4
 74
0
 40
0
 40
0
 40
0
 40
0
 40
1
 40
1
 40
1
 40
1
 10
41.187734
 20
76.166348
 30
0.0
 10
40.899388
 20
76.172557
 30
0.0
 10
40.613017
 20
76.175661
 30
0.0
 10
40.323429
 20
76.175097
 30
0.0
  0
SPLINE
  5
106
100
AcDbEntity
  8
Layer_1
 62
7
100
AcDbSpline
 70
8
 71
3
 72
8
 73
4
 74
0
 40
0
 40
0
 40
0
 40
0
 40
1
 40
1
 40
1
 40
1
 10
40.402818
 20
73.917951
 30
0.0
 10
41.922048
 20
73.915129
 30
0.0
 10
43.434198
 20
73.812623
 30
0.0
 10
44.944820
 20
73.609364
 30
0.0
  0
LWPOLYLINE
  5
107
100
AcDbEntity
  8
Layer_1
 62
7
100
AcDbPolyline
 90
2
 70
0
 10
40.323429
 20
76.175097
 30
0.0
 10
40.323429
 20
76.175150
 30
0.0
  0
SPLINE
  5
108
100
AcDbEntity
  8
Layer_1
 62
7
100
AcDbSpline
 70
8
 71
3
 72
8
 73
4
 74
0
 40
0
 40
0
 40
0
 40
0
 40
1
 40
1
 40
1
 40
1
 10
41.611067
 20
48.780150
 30
0.0
 10
40.779641
 20
48.898655
 30
0.0
 10
39.916944
 20
48.916937
 30
0.0
 10
39.044623
 20
48.815419
 30
0.0
  0
LWPOLYLINE
  5
109
100
AcDbEntity
  8
Layer_1
 62
7
100
AcDbPolyline
 90
2
 70
0
 10
44.944820
 20
73.609364
 30
0.0
 10
41.611067
 20
48.780150
 30
0.0
  0
SPLINE
  5
10a
100
AcDbEntity
  8
Layer_1
 62
7
100
AcDbSpline
 70
8
 71
3
 72
8
 73
4
 74
0
 40
0
 40
0
 40
0
 40
0
 40
1
 40
1
 40
1
 40
1
 10
35.851981
 20
73.626997
 30
0.0
 10
37.363761
 20
73.821482
 30
0.0
 10
38.883587
 20
73.920940
 30
0.0
 10
40.402818
 20
73.917951
 30
0.0
  0
LWPOLYLINE
  5
10b
100
AcDbEntity
  8
Layer_1
 62
7
100
AcDbPolyline
 90
2
 70
0
 10
39.044623
 20
48.815419
 30
0.0
 10
35.851981
 20
73.626997
 30
0.0
  0
LWPOLYLINE
  5
10c
100
AcDbEntity
  8
Layer_1
 62
7
100
AcDbPolyline
 90
2
 70
0
 10
40.402818
 20
73.917951
 30
0.0
 10
40.402818
 20
73.917951
 30
0.0
  0
SPLINE
  5
10d
100
AcDbEntity
  8
Layer_1
 62
7
100
AcDbSpline
 70
8
 71
3
 72
8
 73
4
 74
0
 40
0
 40
0
 40
0
 40
0
 40
1
 40
1
 40
1
 40
1
 10
36.486981
 20
48.162947
 30
0.0
 10
35.678415
 20
47.839463
 30
0.0
 10
34.928691
 20
47.419370
 30
0.0
 10
34.246843
 20
46.910907
 30
0.0
  0
LWPOLYLINE
  5
10e
100
AcDbEntity
  8
Layer_1
 62
7
100
AcDbPolyline
 90
2
 70
0
 10
26.961978
 20
71.334528
 30
0.0
 10
36.486981
 20
48.162947
 30
0.0
  0
SPLINE
  5
10f
100
AcDbEntity
  8
Layer_1
 62
7
100
AcDbSpline
 70
8
 71
3
 72
8
 73
4
 74
0
 40
0
 40
0
 40
0
 40
0
 40
1
 40
1
 40
1
 40
1
 10
19.068559
 20
66.802491
 30
0.0
 10
21.492510
 20
68.650826
 30
0.0
 10
24.142127
 20
70.176356
 30
0.0
 10
26.961978
 20
71.334528
 30
0.0
  0
LWPOLYLINE
  5
110
100
AcDbEntity
  8
Layer_1
 62
7
100
AcDbPolyline
 90
2
 70
0
 10
34.246843
 20
46.910907
 30
0.0
 10
19.068559
 20
66.802491
 30
0.0
  0
SPLINE
  5
111
100
AcDbEntity
  8
Layer_1
 62
7
100
AcDbSpline
 70
8
 71
3
 72
8
 73
4
 74
0
 40
0
 40
0
 40
0
 40
0
 40
1
 40
1
 40
1
 40
1
 10
53.799545
 20
71.158182
 30
0.0
 10
56.612626
 20
69.983649
 30
0.0
 10
59.253380
 20
68.453181
 30
0.0
 10
61.666495
 20
66.590878
 30
0.0
  0
LWPOLYLINE
  5
112
100
AcDbEntity
  8
Layer_1
 62
7
100
AcDbPolyline
 90
2
 70
0
 10
26.961978
 20
71.334528
 30
0.0
 10
26.961978
 20
71.334528
 30
0.0
  0
SPLINE
  5
113
100
AcDbEntity
  8
Layer_1
 62
7
100
AcDbSpline
 70
8
 71
3
 72
8
 73
4
 74
0
 40
0
 40
0
 40
0
 40
0
 40
1
 40
1
 40
1
 40
1
 10
46.347126
 20
46.752197
 30
0.0
 10
45.672163
 20
47.281821
 30
0.0
 10
44.934688
 20
47.723837
 30
0.0
 10
44.142265
 20
48.065944
 30
0.0
  0
LWPOLYLINE
  5
114
100
AcDbEntity
  8
Layer_1
 62
7
100
AcDbPolyline
 90
2
 70
0
 10
61.666495
 20
66.590878
 30
0.0
 10
46.347126
 20
46.752197
 30
0.0
  0
LWPOLYLINE
  5
115
100
AcDbEntity
  8
Layer_1
 62
7
100
AcDbPolyline
 90
3
 70
0
 10
44.142265
 20
48.065944
 30
0.0
 10
53.799545
 20
71.158182
 30
0.0
 10
53.799545
 20
71.158182
 30
0.0
  0
SPLINE
  5
116
100
AcDbEntity
  8
Layer_1
 62
7
100
AcDbSpline
 70
8
 71
3
 72
8
 73
4
 74
0
 40
0
 40
0
 40
0
 40
0
 40
1
 40
1
 40
1
 40
1
 10
32.359481
 20
45.068106
 30
0.0
 10
31.830371
 20
44.394953
 30
0.0
 10
31.396649
 20
43.662888
 30
0.0
 10
31.054201
 20
42.872640
 30
0.0
  0
LWPOLYLINE
  5
117
100
AcDbEntity
  8
Layer_1
 62
7
100
AcDbPolyline
 90
2
 70
0
 10
12.533362
 20
60.374744
 30
0.0
 10
32.359481
 20
45.068106
 30
0.0
  0
SPLINE
  5
118
100
AcDbEntity
  8
Layer_1
 62
7
100
AcDbSpline
 70
8
 71
3
 72
8
 73
4
 74
0
 40
0
 40
0
 40
0
 40
0
 40
1
 40
1
 40
1
 40
1
 10
7.938418
 20
52.509809
 30
0.0
 10
9.113222
 20
55.322168
 30
0.0
 10
10.670496
 20
57.962247
 30
0.0
 10
12.533362
 20
60.374744
 30
0.0
  0
LWPOLYLINE
  5
119
100
AcDbEntity
  8
Layer_1
 62
7
100
AcDbPolyline
 90
2
 70
0
 10
31.054201
 20
42.872640
 30
0.0
 10
7.938418
 20
52.509809
 30
0.0
  0
SPLINE
  5
11a
100
AcDbEntity
  8
Layer_1
 62
7
100
AcDbSpline
 70
8
 71
3
 72
8
 73
4
 74
0
 40
0
 40
0
 40
0
 40
0
 40
1
 40
1
 40
1
 40
1
 10
68.104693
 20
60.048521
 30
0.0
 10
69.953474
 20
57.625192
 30
0.0
 10
71.470672
 20
54.967449
 30
0.0
 10
72.629085
 20
52.148317
 30
0.0
  0
LWPOLYLINE
  5
11b
100
AcDbEntity
  8
Layer_1
 62
7
100
AcDbPolyline
 90
2
 70
0
 10
12.533362
 20
60.374744
 30
0.0
 10
12.533362
 20
60.374744
 30
0.0
  0
SPLINE
  5
11c
100
AcDbEntity
  8
Layer_1
 62
7
100
AcDbSpline
 70
8
 71
3
 72
8
 73
4
 74
0
 40
0
 40
0
 40
0
 40
0
 40
1
 40
1
 40
1
 40
1
 10
49.451573
 20
42.634563
 30
0.0
 10
49.128457
 20
43.439763
 30
0.0
 10
48.705996
 20
44.185992
 30
0.0
 10
48.199209
 20
44.865327
 30
0.0
  0
LWPOLYLINE
  5
11d
100
AcDbEntity
  8
Layer_1
 62
7
100
AcDbPolyline
 90
2
 70
0
 10
72.629085
 20
52.148317
 30
0.0
 10
49.451573
 20
42.634563
 30
0.0
  0
LWPOLYLINE
  5
11e
100
AcDbEntity
  8
Layer_1
 62
7
100
AcDbPolyline
 90
3
 70
0
 10
48.199209
 20
44.865327
 30
0.0
 10
68.104693
 20
60.048521
 30
0.0
 10
68.104693
 20
60.048521
 30
0.0
  0
SPLINE
  5
11f
100
AcDbEntity
  8
Layer_1
 62
7
100
AcDbSpline
 70
8
 71
3
 72
8
 73
4
 74
0
 40
0
 40
0
 40
0
 40
0
 40
1
 40
1
 40
1
 40
1
 10
30.331006
 20
40.324487
 30
0.0
 10
30.212558
 20
39.492058
 30
0.0
 10
30.193367
 20
38.632065
 30
0.0
 10
30.295729
 20
37.758669
 30
0.0
  0
LWPOLYLINE
  5
120
100
AcDbEntity
  8
Layer_1
 62
7
100
AcDbPolyline
 90
2
 70
0
 10
5.504250
 20
43.666187
 30
0.0
 10
30.331006
 20
40.324487
 30
0.0
  0
SPLINE
  5
121
100
AcDbEntity
  8
Layer_1
 62
7
100
AcDbSpline
 70
8
 71
3
 72
8
 73
4
 74
0
 40
0
 40
0
 40
0
 40
0
 40
1
 40
1
 40
1
 40
1
 10
5.468972
 20
34.558015
 30
0.0
 10
5.079866
 20
37.580773
 30
0.0
 10
5.097536
 20
40.645687
 30
0.0
 10
5.504250
 20
43.666187
 30
0.0
  0
LWPOLYLINE
  5
122
100
AcDbEntity
  8
Layer_1
 62
7
100
AcDbPolyline
 90
2
 70
0
 10
30.295729
 20
37.758669
 30
0.0
 10
5.468972
 20
34.558015
 30
0.0
  0
SPLINE
  5
123
100
AcDbEntity
  8
Layer_1
 62
7
100
AcDbSpline
 70
8
 71
3
 72
8
 73
4
 74
0
 40
0
 40
0
 40
0
 40
0
 40
1
 40
1
 40
1
 40
1
 10
74.930945
 20
43.260597
 30
0.0
 10
75.320045
 20
40.237783
 30
0.0
 10
75.311212
 20
37.181756
 30
0.0
 10
74.904417
 20
34.161256
 30
0.0
  0
LWPOLYLINE
  5
124
100
AcDbEntity
  8
Layer_1
 62
7
100
AcDbPolyline
 90
2
 70
0
 10
5.504250
 20
43.666187
 30
0.0
 10
5.504250
 20
43.666187
 30
0.0
  0
SPLINE
  5
125
100
AcDbEntity
  8
Layer_1
 62
7
100
AcDbSpline
 70
8
 71
3
 72
8
 73
4
 74
0
 40
0
 40
0
 40
0
 40
0
 40
1
 40
1
 40
1
 40
1
 10
50.068850
 20
37.502984
 30
0.0
 10
50.186565
 20
38.333635
 30
0.0
 10
50.197430
 20
39.197438
 30
0.0
 10
50.095379
 20
40.068774
 30
0.0
  0
LWPOLYLINE
  5
126
100
AcDbEntity
  8
Layer_1
 62
7
100
AcDbPolyline
 90
2
 70
0
 10
74.904417
 20
34.161256
 30
0.0
 10
50.068850
 20
37.502984
 30
0.0
  0
SPLINE
  5
127
100
AcDbEntity
  8
Layer_1
 62
7
100
AcDbSpline
 70
8
 71
3
 72
8
 73
4
 74
0
 40
0
 40
0
 40
0
 40
0
 40
1
 40
1
 40
1
 40
1
 10
40.332262
 20
40.368559
 30
0.0
 10
41.338187
 20
40.368559
 30
0.0
 10
42.157873
 20
39.560311
 30
0.0
 10
42.157873
 20
38.561050
 30
0.0
  0
SPLINE
  5
128
100
AcDbEntity
  8
Layer_1
 62
7
100
AcDbSpline
 70
8
 71
3
 72
8
 73
4
 74
0
 40
0
 40
0
 40
0
 40
0
 40
1
 40
1
 40
1
 40
1
 10
42.157873
 20
38.561050
 30
0.0
 10
42.157873
 20
38.052784
 30
0.0
 10
41.950750
 20
37.593583
 30
0.0
 10
41.611067
 20
37.264907
 30
0.0
  0
LWPOLYLINE
  5
129
100
AcDbEntity
  8
Layer_1
 62
7
100
AcDbPolyline
 90
3
 70
0
 10
50.095379
 20
40.068774
 30
0.0
 10
74.930945
 20
43.260597
 30
0.0
 10
74.930945
 20
43.260597
 30
0.0
  0
SPLINE
  5
12a
100
AcDbEntity
  8
Layer_1
 62
7
100
AcDbSpline
 70
8
 71
3
 72
8
 73
4
 74
0
 40
0
 40
0
 40
0
 40
0
 40
1
 40
1
 40
1
 40
1
 10
39.062262
 20
37.264907
 30
0.0
 10
38.722213
 20
37.593611
 30
0.0
 10
38.506623
 20
38.052474
 30
0.0
 10
38.506623
 20
38.561050
 30
0.0
  0
SPLINE
  5
12b
100
AcDbEntity
  8
Layer_1
 62
7
100
AcDbSpline
 70
8
 71
3
 72
8
 73
4
 74
0
 40
0
 40
0
 40
0
 40
0
 40
1
 40
1
 40
1
 40
1
 10
38.506623
 20
38.561050
 30
0.0
 10
38.506623
 20
39.560311
 30
0.0
 10
39.326309
 20
40.368559
 30
0.0
 10
40.332262
 20
40.368559
 30
0.0
  0
LWPOLYLINE
  5
12c
100
AcDbEntity
  8
Layer_1
 62
7
100
AcDbPolyline
 90
2
 70
0
 10
41.611067
 20
37.264907
 30
0.0
 10
39.062262
 20
37.264907
 30
0.0
  0
SPLINE
  5
12d
100
AcDbEntity
  8
Layer_1
 62
7
100
AcDbSpline
 70
8
 71
3
 72
8
 73
4
 74
0
 40
0
 40
0
 40
0
 40
0
 40
1
 40
1
 40
1
 40
1
 10
30.948368
 20
35.210516
 30
0.0
 10
31.271258
 20
34.401845
 30
0.0
 10
31.692675
 20
33.653047
 30
0.0
 10
32.200731
 20
32.970922
 30
0.0
  0
LWPOLYLINE
  5
12e
100
AcDbEntity
  8
Layer_1
 62
7
100
AcDbPolyline
 90
2
 70
0
 10
40.332262
 20
40.368559
 30
0.0
 10
40.332262
 20
40.368559
 30
0.0
  0
SPLINE
  5
12f
100
AcDbEntity
  8
Layer_1
 62
7
100
AcDbSpline
 70
8
 71
3
 72
8
 73
4
 74
0
 40
0
 40
0
 40
0
 40
0
 40
1
 40
1
 40
1
 40
1
 10
12.304056
 20
17.787744
 30
0.0
 10
10.455274
 20
20.211076
 30
0.0
 10
8.929269
 20
22.868845
 30
0.0
 10
7.770848
 20
25.687949
 30
0.0
  0
LWPOLYLINE
  5
130
100
AcDbEntity
  8
Layer_1
 62
7
100
AcDbPolyline
 90
2
 70
0
 10
32.200731
 20
32.970922
 30
0.0
 10
12.304056
 20
17.787744
 30
0.0
  0
LWPOLYLINE
  5
131
100
AcDbEntity
  8
Layer_1
 62
7
100
AcDbPolyline
 90
3
 70
0
 10
7.770848
 20
25.687949
 30
0.0
 10
30.948368
 20
35.210516
 30
0.0
 10
30.948368
 20
35.210516
 30
0.0
  0
SPLINE
  5
132
100
AcDbEntity
  8
Layer_1
 62
7
100
AcDbSpline
 70
8
 71
3
 72
8
 73
4
 74
0
 40
0
 40
0
 40
0
 40
0
 40
1
 40
1
 40
1
 40
1
 10
72.452693
 20
25.326430
 30
0.0
 10
71.277858
 20
22.514069
 30
0.0
 10
69.738251
 20
19.856357
 30
0.0
 10
67.875387
 20
17.443859
 30
0.0
  0
LWPOLYLINE
  5
133
100
AcDbEntity
  8
Layer_1
 62
7
100
AcDbPolyline
 90
2
 70
0
 10
49.345740
 20
34.963633
 30
0.0
 10
72.452693
 20
25.326430
 30
0.0
  0
SPLINE
  5
134
100
AcDbEntity
  8
Layer_1
 62
7
100
AcDbSpline
 70
8
 71
3
 72
8
 73
4
 74
0
 40
0
 40
0
 40
0
 40
0
 40
1
 40
1
 40
1
 40
1
 10
48.031626
 20
32.759309
 30
0.0
 10
48.559099
 20
33.431192
 30
0.0
 10
49.004079
 20
34.175223
 30
0.0
 10
49.345740
 20
34.963633
 30
0.0
  0
LWPOLYLINE
  5
135
100
AcDbEntity
  8
Layer_1
 62
7
100
AcDbPolyline
 90
2
 70
0
 10
67.875387
 20
17.443859
 30
0.0
 10
48.031626
 20
32.759309
 30
0.0
  0
SPLINE
  5
136
100
AcDbEntity
  8
Layer_1
 62
7
100
AcDbSpline
 70
8
 71
3
 72
8
 73
4
 74
0
 40
0
 40
0
 40
0
 40
0
 40
1
 40
1
 40
1
 40
1
 10
34.043981
 20
31.084068
 30
0.0
 10
34.717843
 20
30.555122
 30
0.0
 10
35.457802
 20
30.112372
 30
0.0
 10
36.248842
 20
29.770293
 30
0.0
  0
LWPOLYLINE
  5
137
100
AcDbEntity
  8
Layer_1
 62
7
100
AcDbPolyline
 90
2
 70
0
 10
49.345740
 20
34.963633
 30
0.0
 10
49.345740
 20
34.963633
 30
0.0
  0
SPLINE
  5
138
100
AcDbEntity
  8
Layer_1
 62
7
100
AcDbSpline
 70
8
 71
3
 72
8
 73
4
 74
0
 40
0
 40
0
 40
0
 40
0
 40
1
 40
1
 40
1
 40
1
 10
26.609202
 20
6.678055
 30
0.0
 10
23.796150
 20
7.852608
 30
0.0
 10
21.137757
 20
9.382901
 30
0.0
 10
18.724614
 20
11.245342
 30
0.0
  0
LWPOLYLINE
  5
139
100
AcDbEntity
  8
Layer_1
 62
7
100
AcDbPolyline
 90
2
 70
0
 10
36.248842
 20
29.770293
 30
0.0
 10
26.609202
 20
6.678055
 30
0.0
  0
LWPOLYLINE
  5
13a
100
AcDbEntity
  8
Layer_1
 62
7
100
AcDbPolyline
 90
3
 70
0
 10
18.724614
 20
11.245342
 30
0.0
 10
34.043981
 20
31.084068
 30
0.0
 10
34.043981
 20
31.084068
 30
0.0
  0
SPLINE
  5
13b
100
AcDbEntity
  8
Layer_1
 62
7
100
AcDbSpline
 70
8
 71
3
 72
8
 73
4
 74
0
 40
0
 40
0
 40
0
 40
0
 40
1
 40
1
 40
1
 40
1
 10
61.331356
 20
11.016121
 30
0.0
 10
58.907403
 20
9.167848
 30
0.0
 10
56.248983
 20
7.650932
 30
0.0
 10
53.429129
 20
6.492889
 30
0.0
  0
LWPOLYLINE
  5
13c
100
AcDbEntity
  8
Layer_1
 62
7
100
AcDbPolyline
 90
2
 70
0
 10
46.153098
 20
30.925333
 30
0.0
 10
61.331356
 20
11.016121
 30
0.0
  0
SPLINE
  5
13d
100
AcDbEntity
  8
Layer_1
 62
7
100
AcDbSpline
 70
8
 71
3
 72
8
 73
4
 74
0
 40
0
 40
0
 40
0
 40
0
 40
1
 40
1
 40
1
 40
1
 10
43.912959
 20
29.655657
 30
0.0
 10
44.722683
 20
29.979648
 30
0.0
 10
45.470431
 20
30.415854
 30
0.0
 10
46.153098
 20
30.925333
 30
0.0
  0
LWPOLYLINE
  5
13e
100
AcDbEntity
  8
Layer_1
 62
7
100
AcDbPolyline
 90
2
 70
0
 10
53.429129
 20
6.492889
 30
0.0
 10
43.912959
 20
29.655657
 30
0.0
  0
SPLINE
  5
13f
100
AcDbEntity
  8
Layer_1
 62
7
100
AcDbSpline
 70
8
 71
3
 72
8
 73
4
 74
0
 40
0
 40
0
 40
0
 40
0
 40
1
 40
1
 40
1
 40
1
 10
38.780040
 20
29.056087
 30
0.0
 10
39.613103
 20
28.937500
 30
0.0
 10
40.472414
 20
28.918371
 30
0.0
 10
41.346484
 20
29.020818
 30
0.0
  0
LWPOLYLINE
  5
140
100
AcDbEntity
  8
Layer_1
 62
7
100
AcDbPolyline
 90
2
 70
0
 10
46.153098
 20
30.925333
 30
0.0
 10
46.153098
 20
30.925333
 30
0.0
  0
SPLINE
  5
141
100
AcDbEntity
  8
Layer_1
 62
7
100
AcDbSpline
 70
8
 71
3
 72
8
 73
4
 74
0
 40
0
 40
0
 40
0
 40
0
 40
1
 40
1
 40
1
 40
1
 10
44.547959
 20
4.182787
 30
0.0
 10
41.524369
 20
3.793800
 30
0.0
 10
38.458730
 20
3.811355
 30
0.0
 10
35.437453
 20
4.218037
 30
0.0
  0
LWPOLYLINE
  5
142
100
AcDbEntity
  8
Layer_1
 62
7
100
AcDbPolyline
 90
2
 70
0
 10
41.346484
 20
29.020818
 30
0.0
 10
44.547959
 20
4.182787
 30
0.0
  0
SPLINE
  5
143
100
AcDbEntity
  8
Layer_1
 62
7
100
AcDbSpline
 70
8
 71
3
 72
8
 73
4
 74
0
 40
0
 40
0
 40
0
 40
0
 40
1
 40
1
 40
1
 40
1
 10
116.208164
 20
76.175170
 30
0.0
 10
114.637905
 20
76.172348
 30
0.0
 10
113.045271
 20
76.072269
 30
0.0
 10
111.446939
 20
75.866583
 30
0.0
  0
SPLINE
  5
144
100
AcDbEntity
  8
Layer_1
 62
7
100
AcDbSpline
 70
8
 71
3
 72
8
 73
4
 74
0
 40
0
 40
0
 40
0
 40
0
 40
1
 40
1
 40
1
 40
1
 10
111.446939
 20
75.866583
 30
0.0
 10
90.988425
 20
73.233723
 30
0.0
 10
76.534775
 20
54.505442
 30
0.0
 10
79.167595
 20
34.046648
 30
0.0
  0
SPLINE
  5
145
100
AcDbEntity
  8
Layer_1
 62
7
100
AcDbSpline
 70
8
 71
3
 72
8
 73
4
 74
0
 40
0
 40
0
 40
0
 40
0
 40
1
 40
1
 40
1
 40
1
 10
79.167595
 20
34.046648
 30
0.0
 10
81.800412
 20
13.587899
 30
0.0
 10
100.528509
 20
-0.865999
 30
0.0
 10
120.987024
 20
1.766880
 30
0.0
  0
SPLINE
  5
146
100
AcDbEntity
  8
Layer_1
 62
7
100
AcDbSpline
 70
8
 71
3
 72
8
 73
4
 74
0
 40
0
 40
0
 40
0
 40
0
 40
1
 40
1
 40
1
 40
1
 10
120.987024
 20
1.766880
 30
0.0
 10
141.445539
 20
4.399732
 30
0.0
 10
155.899183
 20
23.128026
 30
0.0
 10
153.266386
 20
43.586823
 30
0.0
  0
SPLINE
  5
147
100
AcDbEntity
  8
Layer_1
 62
7
100
AcDbSpline
 70
8
 71
3
 72
8
 73
4
 74
0
 40
0
 40
0
 40
0
 40
0
 40
1
 40
1
 40
1
 40
1
 10
153.266386
 20
43.586823
 30
0.0
 10
150.877168
 20
62.152558
 30
0.0
 10
135.234248
 20
75.772653
 30
0.0
 10
117.072238
 20
76.166368
 30
0.0
  0
SPLINE
  5
148
100
AcDbEntity
  8
Layer_1
 62
7
100
AcDbSpline
 70
8
 71
3
 72
8
 73
4
 74
0
 40
0
 40
0
 40
0
 40
0
 40
1
 40
1
 40
1
 40
1
 10
117.072238
 20
76.166368
 30
0.0
 10
116.783970
 20
76.172576
 30
0.0
 10
116.497676
 20
76.175681
 30
0.0
 10
116.208164
 20
76.175116
 30
0.0
  0
LWPOLYLINE
  5
149
100
AcDbEntity
  8
Layer_1
 62
7
100
AcDbPolyline
 90
3
 70
0
 10
35.437453
 20
4.218037
 30
0.0
 10
38.780040
 20
29.056087
 30
0.0
 10
38.780040
 20
29.056087
 30
0.0
  0
SPLINE
  5
14a
100
AcDbEntity
  8
Layer_1
 62
7
100
AcDbSpline
 70
8
 71
3
 72
8
 73
4
 74
0
 40
0
 40
0
 40
0
 40
0
 40
1
 40
1
 40
1
 40
1
 10
116.287533
 20
73.917965
 30
0.0
 10
117.806354
 20
73.915143
 30
0.0
 10
119.318100
 20
73.812640
 30
0.0
 10
120.828316
 20
73.609378
 30
0.0
  0
LWPOLYLINE
  5
14b
100
AcDbEntity
  8
Layer_1
 62
7
100
AcDbPolyline
 90
2
 70
0
 10
116.208164
 20
76.175116
 30
0.0
 10
116.208164
 20
76.175170
 30
0.0
  0
SPLINE
  5
14c
100
AcDbEntity
  8
Layer_1
 62
7
100
AcDbSpline
 70
8
 71
3
 72
8
 73
4
 74
0
 40
0
 40
0
 40
0
 40
0
 40
1
 40
1
 40
1
 40
1
 10
117.495458
 20
48.780164
 30
0.0
 10
116.664255
 20
48.898666
 30
0.0
 10
115.801789
 20
48.916951
 30
0.0
 10
114.929703
 20
48.815433
 30
0.0
  0
LWPOLYLINE
  5
14d
100
AcDbEntity
  8
Layer_1
 62
7
100
AcDbPolyline
 90
2
 70
0
 10
120.828316
 20
73.609378
 30
0.0
 10
117.495458
 20
48.780164
 30
0.0
  0
SPLINE
  5
14e
100
AcDbEntity
  8
Layer_1
 62
7
100
AcDbSpline
 70
8
 71
3
 72
8
 73
4
 74
0
 40
0
 40
0
 40
0
 40
0
 40
1
 40
1
 40
1
 40
1
 10
111.737916
 20
73.627014
 30
0.0
 10
113.249289
 20
73.821499
 30
0.0
 10
114.768709
 20
73.920957
 30
0.0
 10
116.287533
 20
73.917965
 30
0.0
  0
LWPOLYLINE
  5
14f
100
AcDbEntity
  8
Layer_1
 62
7
100
AcDbPolyline
 90
2
 70
0
 10
114.929703
 20
48.815433
 30
0.0
 10
111.737916
 20
73.627014
 30
0.0
  0
LWPOLYLINE
  5
150
100
AcDbEntity
  8
Layer_1
 62
7
100
AcDbPolyline
 90
2
 70
0
 10
116.287533
 20
73.917965
 30
0.0
 10
116.287533
 20
73.917965
 30
0.0
  0
SPLINE
  5
151
100
AcDbEntity
  8
Layer_1
 62
7
100
AcDbSpline
 70
8
 71
3
 72
8
 73
4
 74
0
 40
0
 40
0
 40
0
 40
0
 40
1
 40
1
 40
1
 40
1
 10
112.372747
 20
48.162961
 30
0.0
 10
111.564395
 20
47.839475
 30
0.0
 10
110.814874
 20
47.419381
 30
0.0
 10
110.133206
 20
46.910916
 30
0.0
  0
LWPOLYLINE
  5
152
100
AcDbEntity
  8
Layer_1
 62
7
100
AcDbPolyline
 90
2
 70
0
 10
102.850295
 20
71.334545
 30
0.0
 10
112.372747
 20
48.162961
 30
0.0
  0
SPLINE
  5
153
100
AcDbEntity
  8
Layer_1
 62
7
100
AcDbSpline
 70
8
 71
3
 72
8
 73
4
 74
0
 40
0
 40
0
 40
0
 40
0
 40
1
 40
1
 40
1
 40
1
 10
94.958989
 20
66.802505
 30
0.0
 10
97.382293
 20
68.650843
 30
0.0
 10
100.031197
 20
70.176376
 30
0.0
 10
102.850295
 20
71.334545
 30
0.0
  0
LWPOLYLINE
  5
154
100
AcDbEntity
  8
Layer_1
 62
7
100
AcDbPolyline
 90
2
 70
0
 10
110.133206
 20
46.910916
 30
0.0
 10
94.958989
 20
66.802505
 30
0.0
  0
SPLINE
  5
155
100
AcDbEntity
  8
Layer_1
 62
7
100
AcDbSpline
 70
8
 71
3
 72
8
 73
4
 74
0
 40
0
 40
0
 40
0
 40
0
 40
1
 40
1
 40
1
 40
1
 10
129.680668
 20
71.158202
 30
0.0
 10
132.492996
 20
69.983666
 30
0.0
 10
135.133040
 20
68.453198
 30
0.0
 10
137.545510
 20
66.590895
 30
0.0
  0
LWPOLYLINE
  5
156
100
AcDbEntity
  8
Layer_1
 62
7
100
AcDbPolyline
 90
2
 70
0
 10
102.850295
 20
71.334545
 30
0.0
 10
102.850295
 20
71.334545
 30
0.0
  0
SPLINE
  5
157
100
AcDbEntity
  8
Layer_1
 62
7
100
AcDbSpline
 70
8
 71
3
 72
8
 73
4
 74
0
 40
0
 40
0
 40
0
 40
0
 40
1
 40
1
 40
1
 40
1
 10
122.230247
 20
46.752208
 30
0.0
 10
121.555465
 20
47.281835
 30
0.0
 10
120.818188
 20
47.723851
 30
0.0
 10
120.025978
 20
48.065958
 30
0.0
  0
LWPOLYLINE
  5
158
100
AcDbEntity
  8
Layer_1
 62
7
100
AcDbPolyline
 90
2
 70
0
 10
137.545510
 20
66.590895
 30
0.0
 10
122.230247
 20
46.752208
 30
0.0
  0
LWPOLYLINE
  5
159
100
AcDbEntity
  8
Layer_1
 62
7
100
AcDbPolyline
 90
3
 70
0
 10
120.025978
 20
48.065958
 30
0.0
 10
129.680668
 20
71.158202
 30
0.0
 10
129.680668
 20
71.158202
 30
0.0
  0
SPLINE
  5
15a
100
AcDbEntity
  8
Layer_1
 62
7
100
AcDbSpline
 70
8
 71
3
 72
8
 73
4
 74
0
 40
0
 40
0
 40
0
 40
0
 40
1
 40
1
 40
1
 40
1
 10
108.246353
 20
45.068112
 30
0.0
 10
107.717384
 20
44.394958
 30
0.0
 10
107.283778
 20
43.662891
 30
0.0
 10
106.941422
 20
42.872646
 30
0.0
  0
LWPOLYLINE
  5
15b
100
AcDbEntity
  8
Layer_1
 62
7
100
AcDbPolyline
 90
2
 70
0
 10
88.425542
 20
60.374759
 30
0.0
 10
108.246353
 20
45.068112
 30
0.0
  0
SPLINE
  5
15c
100
AcDbEntity
  8
Layer_1
 62
7
100
AcDbSpline
 70
8
 71
3
 72
8
 73
4
 74
0
 40
0
 40
0
 40
0
 40
0
 40
1
 40
1
 40
1
 40
1
 10
83.831831
 20
52.509821
 30
0.0
 10
85.006321
 20
55.322182
 30
0.0
 10
86.563177
 20
57.962261
 30
0.0
 10
88.425542
 20
60.374759
 30
0.0
  0
LWPOLYLINE
  5
15d
100
AcDbEntity
  8
Layer_1
 62
7
100
AcDbPolyline
 90
2
 70
0
 10
106.941422
 20
42.872646
 30
0.0
 10
83.831831
 20
52.509821
 30
0.0
  0
SPLINE
  5
15e
100
AcDbEntity
  8
Layer_1
 62
7
100
AcDbSpline
 70
8
 71
3
 72
8
 73
4
 74
0
 40
0
 40
0
 40
0
 40
0
 40
1
 40
1
 40
1
 40
1
 10
143.981983
 20
60.048538
 30
0.0
 10
145.830267
 20
57.625203
 30
0.0
 10
147.347059
 20
54.967463
 30
0.0
 10
148.505161
 20
52.148331
 30
0.0
  0
LWPOLYLINE
  5
15f
100
AcDbEntity
  8
Layer_1
 62
7
100
AcDbPolyline
 90
2
 70
0
 10
88.425542
 20
60.374759
 30
0.0
 10
88.425542
 20
60.374759
 30
0.0
  0
SPLINE
  5
160
100
AcDbEntity
  8
Layer_1
 62
7
100
AcDbSpline
 70
8
 71
3
 72
8
 73
4
 74
0
 40
0
 40
0
 40
0
 40
0
 40
1
 40
1
 40
1
 40
1
 10
125.333862
 20
42.634566
 30
0.0
 10
125.010833
 20
43.439766
 30
0.0
 10
124.588484
 20
44.185995
 30
0.0
 10
124.081834
 20
44.865330
 30
0.0
  0
LWPOLYLINE
  5
161
100
AcDbEntity
  8
Layer_1
 62
7
100
AcDbPolyline
 90
2
 70
0
 10
148.505161
 20
52.148331
 30
0.0
 10
125.333862
 20
42.634566
 30
0.0
  0
LWPOLYLINE
  5
162
100
AcDbEntity
  8
Layer_1
 62
7
100
AcDbPolyline
 90
3
 70
0
 10
124.081834
 20
44.865330
 30
0.0
 10
143.981983
 20
60.048538
 30
0.0
 10
143.981983
 20
60.048538
 30
0.0
  0
SPLINE
  5
163
100
AcDbEntity
  8
Layer_1
 62
7
100
AcDbSpline
 70
8
 71
3
 72
8
 73
4
 74
0
 40
0
 40
0
 40
0
 40
0
 40
1
 40
1
 40
1
 40
1
 10
106.218420
 20
40.324487
 30
0.0
 10
106.100002
 20
39.492061
 30
0.0
 10
106.080817
 20
38.632068
 30
0.0
 10
106.183153
 20
37.758672
 30
0.0
  0
LWPOLYLINE
  5
164
100
AcDbEntity
  8
Layer_1
 62
7
100
AcDbPolyline
 90
2
 70
0
 10
81.398316
 20
43.666193
 30
0.0
 10
106.218420
 20
40.324487
 30
0.0
  0
SPLINE
  5
165
100
AcDbEntity
  8
Layer_1
 62
7
100
AcDbSpline
 70
8
 71
3
 72
8
 73
4
 74
0
 40
0
 40
0
 40
0
 40
0
 40
1
 40
1
 40
1
 40
1
 10
81.363047
 20
34.558015
 30
0.0
 10
80.974046
 20
37.580776
 30
0.0
 10
80.991713
 20
40.645687
 30
0.0
 10
81.398316
 20
43.666193
 30
0.0
  0
LWPOLYLINE
  5
166
100
AcDbEntity
  8
Layer_1
 62
7
100
AcDbPolyline
 90
2
 70
0
 10
106.183153
 20
37.758672
 30
0.0
 10
81.363047
 20
34.558015
 30
0.0
  0
SPLINE
  5
167
100
AcDbEntity
  8
Layer_1
 62
7
100
AcDbSpline
 70
8
 71
3
 72
8
 73
4
 74
0
 40
0
 40
0
 40
0
 40
0
 40
1
 40
1
 40
1
 40
1
 10
150.806407
 20
43.260600
 30
0.0
 10
151.195402
 20
40.237783
 30
0.0
 10
151.186571
 20
37.181759
 30
0.0
 10
150.779878
 20
34.161256
 30
0.0
  0
LWPOLYLINE
  5
168
100
AcDbEntity
  8
Layer_1
 62
7
100
AcDbPolyline
 90
2
 70
0
 10
81.398316
 20
43.666193
 30
0.0
 10
81.398316
 20
43.666193
 30
0.0
  0
SPLINE
  5
169
100
AcDbEntity
  8
Layer_1
 62
7
100
AcDbSpline
 70
8
 71
3
 72
8
 73
4
 74
0
 40
0
 40
0
 40
0
 40
0
 40
1
 40
1
 40
1
 40
1
 10
125.950974
 20
37.502987
 30
0.0
 10
126.068658
 20
38.333638
 30
0.0
 10
126.079521
 20
39.197441
 30
0.0
 10
125.977503
 20
40.068777
 30
0.0
  0
LWPOLYLINE
  5
16a
100
AcDbEntity
  8
Layer_1
 62
7
100
AcDbPolyline
 90
2
 70
0
 10
150.779878
 20
34.161256
 30
0.0
 10
125.950974
 20
37.502987
 30
0.0
  0
SPLINE
  5
16b
100
AcDbEntity
  8
Layer_1
 62
7
100
AcDbSpline
 70
8
 71
3
 72
8
 73
4
 74
0
 40
0
 40
0
 40
0
 40
0
 40
1
 40
1
 40
1
 40
1
 10
116.216994
 20
40.368559
 30
0.0
 10
117.222651
 20
40.368559
 30
0.0
 10
118.042117
 20
39.560314
 30
0.0
 10
118.042117
 20
38.561050
 30
0.0
  0
SPLINE
  5
16c
100
AcDbEntity
  8
Layer_1
 62
7
100
AcDbSpline
 70
8
 71
3
 72
8
 73
4
 74
0
 40
0
 40
0
 40
0
 40
0
 40
1
 40
1
 40
1
 40
1
 10
118.042117
 20
38.561050
 30
0.0
 10
118.042117
 20
38.052784
 30
0.0
 10
117.835051
 20
37.593586
 30
0.0
 10
117.495458
 20
37.264910
 30
0.0
  0
LWPOLYLINE
  5
16d
100
AcDbEntity
  8
Layer_1
 62
7
100
AcDbPolyline
 90
3
 70
0
 10
125.977503
 20
40.068777
 30
0.0
 10
150.806415
 20
43.260600
 30
0.0
 10
150.806407
 20
43.260600
 30
0.0
  0
SPLINE
  5
16e
100
AcDbEntity
  8
Layer_1
 62
7
100
AcDbSpline
 70
8
 71
3
 72
8
 73
4
 74
0
 40
0
 40
0
 40
0
 40
0
 40
1
 40
1
 40
1
 40
1
 10
114.947336
 20
37.264910
 30
0.0
 10
114.607377
 20
37.593614
 30
0.0
 10
114.391846
 20
38.052474
 30
0.0
 10
114.391846
 20
38.561050
 30
0.0
  0
SPLINE
  5
16f
100
AcDbEntity
  8
Layer_1
 62
7
100
AcDbSpline
 70
8
 71
3
 72
8
 73
4
 74
0
 40
0
 40
0
 40
0
 40
0
 40
1
 40
1
 40
1
 40
1
 10
114.391846
 20
38.561050
 30
0.0
 10
114.391846
 20
39.560314
 30
0.0
 10
115.211312
 20
40.368559
 30
0.0
 10
116.216994
 20
40.368559
 30
0.0
  0
LWPOLYLINE
  5
170
100
AcDbEntity
  8
Layer_1
 62
7
100
AcDbPolyline
 90
2
 70
0
 10
117.495458
 20
37.264910
 30
0.0
 10
114.947336
 20
37.264910
 30
0.0
  0
SPLINE
  5
171
100
AcDbEntity
  8
Layer_1
 62
7
100
AcDbSpline
 70
8
 71
3
 72
8
 73
4
 74
0
 40
0
 40
0
 40
0
 40
0
 40
1
 40
1
 40
1
 40
1
 10
106.835617
 20
35.210516
 30
0.0
 10
107.158420
 20
34.401845
 30
0.0
 10
107.579724
 20
33.653047
 30
0.0
 10
108.087645
 20
32.970922
 30
0.0
  0
LWPOLYLINE
  5
172
100
AcDbEntity
  8
Layer_1
 62
7
100
AcDbPolyline
 90
2
 70
0
 10
116.216994
 20
40.368559
 30
0.0
 10
116.216994
 20
40.368559
 30
0.0
  0
SPLINE
  5
173
100
AcDbEntity
  8
Layer_1
 62
7
100
AcDbSpline
 70
8
 71
3
 72
8
 73
4
 74
0
 40
0
 40
0
 40
0
 40
0
 40
1
 40
1
 40
1
 40
1
 10
88.196299
 20
17.787741
 30
0.0
 10
86.348014
 20
20.211076
 30
0.0
 10
84.822419
 20
22.868845
 30
0.0
 10
83.664306
 20
25.687949
 30
0.0
  0
LWPOLYLINE
  5
174
100
AcDbEntity
  8
Layer_1
 62
7
100
AcDbPolyline
 90
2
 70
0
 10
108.087645
 20
32.970922
 30
0.0
 10
88.196299
 20
17.787741
 30
0.0
  0
LWPOLYLINE
  5
175
100
AcDbEntity
  8
Layer_1
 62
7
100
AcDbPolyline
 90
3
 70
0
 10
83.664306
 20
25.687949
 30
0.0
 10
106.835617
 20
35.210516
 30
0.0
 10
106.835617
 20
35.210516
 30
0.0
  0
SPLINE
  5
176
100
AcDbEntity
  8
Layer_1
 62
7
100
AcDbSpline
 70
8
 71
3
 72
8
 73
4
 74
0
 40
0
 40
0
 40
0
 40
0
 40
1
 40
1
 40
1
 40
1
 10
148.328817
 20
25.326430
 30
0.0
 10
147.154299
 20
22.514069
 30
0.0
 10
145.615104
 20
19.856357
 30
0.0
 10
143.752739
 20
17.443859
 30
0.0
  0
LWPOLYLINE
  5
177
100
AcDbEntity
  8
Layer_1
 62
7
100
AcDbPolyline
 90
2
 70
0
 10
125.228056
 20
34.963633
 30
0.0
 10
148.328817
 20
25.326430
 30
0.0
  0
SPLINE
  5
178
100
AcDbEntity
  8
Layer_1
 62
7
100
AcDbSpline
 70
8
 71
3
 72
8
 73
4
 74
0
 40
0
 40
0
 40
0
 40
0
 40
1
 40
1
 40
1
 40
1
 10
123.914295
 20
32.759309
 30
0.0
 10
124.441627
 20
33.431192
 30
0.0
 10
124.886489
 20
34.175223
 30
0.0
 10
125.228056
 20
34.963633
 30
0.0
  0
LWPOLYLINE
  5
179
100
AcDbEntity
  8
Layer_1
 62
7
100
AcDbPolyline
 90
2
 70
0
 10
143.752739
 20
17.443859
 30
0.0
 10
123.914295
 20
32.759309
 30
0.0
  0
SPLINE
  5
17a
100
AcDbEntity
  8
Layer_1
 62
7
100
AcDbSpline
 70
8
 71
3
 72
8
 73
4
 74
0
 40
0
 40
0
 40
0
 40
0
 40
1
 40
1
 40
1
 40
1
 10
109.930401
 20
31.084071
 30
0.0
 10
110.604083
 20
30.555125
 30
0.0
 10
111.343841
 20
30.112372
 30
0.0
 10
112.134670
 20
29.770293
 30
0.0
  0
LWPOLYLINE
  5
17b
100
AcDbEntity
  8
Layer_1
 62
7
100
AcDbPolyline
 90
2
 70
0
 10
125.228056
 20
34.963633
 30
0.0
 10
125.228056
 20
34.963633
 30
0.0
  0
SPLINE
  5
17c
100
AcDbEntity
  8
Layer_1
 62
7
100
AcDbSpline
 70
8
 71
3
 72
8
 73
4
 74
0
 40
0
 40
0
 40
0
 40
0
 40
1
 40
1
 40
1
 40
1
 10
102.497613
 20
6.678055
 30
0.0
 10
99.685314
 20
7.852608
 30
0.0
 10
97.027633
 20
9.382901
 30
0.0
 10
94.615135
 20
11.245370
 30
0.0
  0
LWPOLYLINE
  5
17d
100
AcDbEntity
  8
Layer_1
 62
7
100
AcDbPolyline
 90
2
 70
0
 10
112.134670
 20
29.770293
 30
0.0
 10
102.497613
 20
6.678055
 30
0.0
  0
LWPOLYLINE
  5
17e
100
AcDbEntity
  8
Layer_1
 62
7
100
AcDbPolyline
 90
3
 70
0
 10
94.615135
 20
11.245370
 30
0.0
 10
109.930401
 20
31.084071
 30
0.0
 10
109.930401
 20
31.084071
 30
0.0
  0
SPLINE
  5
17f
100
AcDbEntity
  8
Layer_1
 62
7
100
AcDbSpline
 70
8
 71
3
 72
8
 73
4
 74
0
 40
0
 40
0
 40
0
 40
0
 40
1
 40
1
 40
1
 40
1
 10
137.210461
 20
11.016149
 30
0.0
 10
134.787157
 20
9.167820
 30
0.0
 10
132.129451
 20
7.650932
 30
0.0
 10
129.310353
 20
6.492889
 30
0.0
  0
LWPOLYLINE
  5
180
100
AcDbEntity
  8
Layer_1
 62
7
100
AcDbPolyline
 90
2
 70
0
 10
122.036273
 20
30.925333
 30
0.0
 10
137.210461
 20
11.016149
 30
0.0
  0
SPLINE
  5
181
100
AcDbEntity
  8
Layer_1
 62
7
100
AcDbSpline
 70
8
 71
3
 72
8
 73
4
 74
0
 40
0
 40
0
 40
0
 40
0
 40
1
 40
1
 40
1
 40
1
 10
119.796732
 20
29.655657
 30
0.0
 10
120.606239
 20
29.979648
 30
0.0
 10
121.353786
 20
30.415854
 30
0.0
 10
122.036273
 20
30.925333
 30
0.0
  0
LWPOLYLINE
  5
182
100
AcDbEntity
  8
Layer_1
 62
7
100
AcDbPolyline
 90
2
 70
0
 10
129.310353
 20
6.492889
 30
0.0
 10
119.796732
 20
29.655657
 30
0.0
  0
SPLINE
  5
183
100
AcDbEntity
  8
Layer_1
 62
7
100
AcDbSpline
 70
8
 71
3
 72
8
 73
4
 74
0
 40
0
 40
0
 40
0
 40
0
 40
1
 40
1
 40
1
 40
1
 10
114.665190
 20
29.056087
 30
0.0
 10
115.498031
 20
28.937500
 30
0.0
 10
116.357109
 20
28.918368
 30
0.0
 10
117.230946
 20
29.020818
 30
0.0
  0
LWPOLYLINE
  5
184
100
AcDbEntity
  8
Layer_1
 62
7
100
AcDbPolyline
 90
2
 70
0
 10
122.036273
 20
30.925333
 30
0.0
 10
122.036273
 20
30.925333
 30
0.0
  0
SPLINE
  5
185
100
AcDbEntity
  8
Layer_1
 62
7
100
AcDbSpline
 70
8
 71
3
 72
8
 73
4
 74
0
 40
0
 40
0
 40
0
 40
0
 40
1
 40
1
 40
1
 40
1
 10
120.431563
 20
4.182787
 30
0.0
 10
117.408782
 20
3.793800
 30
0.0
 10
114.343965
 20
3.811355
 30
0.0
 10
111.323498
 20
4.218037
 30
0.0
  0
LWPOLYLINE
  5
186
100
AcDbEntity
  8
Layer_1
 62
7
100
AcDbPolyline
 90
2
 70
0
 10
117.230946
 20
29.020818
 30
0.0
 10
120.431563
 20
4.182787
 30
0.0
  0
SPLINE
  5
187
100
AcDbEntity
  8
Layer_1
 62
7
100
AcDbSpline
 70
8
 71
3
 72
8
 73
4
 74
0
 40
0
 40
0
 40
0
 40
0
 40
1
 40
1
 40
1
 40
1
 10
192.092890
 20
76.175122
 30
0.0
 10
190.522634
 20
76.172300
 30
0.0
 10
188.929998
 20
76.072224
 30
0.0
 10
187.331663
 20
75.866535
 30
0.0
  0
SPLINE
  5
188
100
AcDbEntity
  8
Layer_1
 62
7
100
AcDbSpline
 70
8
 71
3
 72
8
 73
4
 74
0
 40
0
 40
0
 40
0
 40
0
 40
1
 40
1
 40
1
 40
1
 10
187.331663
 20
75.866535
 30
0.0
 10
166.873151
 20
73.233621
 30
0.0
 10
152.419493
 20
54.505377
 30
0.0
 10
155.052313
 20
34.046592
 30
0.0
  0
SPLINE
  5
189
100
AcDbEntity
  8
Layer_1
 62
7
100
AcDbSpline
 70
8
 71
3
 72
8
 73
4
 74
0
 40
0
 40
0
 40
0
 40
0
 40
1
 40
1
 40
1
 40
1
 10
155.052313
 20
34.046592
 30
0.0
 10
157.685130
 20
13.587871
 30
0.0
 10
176.413236
 20
-0.866027
 30
0.0
 10
196.871754
 20
1.766880
 30
0.0
  0
SPLINE
  5
18a
100
AcDbEntity
  8
Layer_1
 62
7
100
AcDbSpline
 70
8
 71
3
 72
8
 73
4
 74
0
 40
0
 40
0
 40
0
 40
0
 40
1
 40
1
 40
1
 40
1
 10
196.871754
 20
1.766880
 30
0.0
 10
217.330271
 20
4.399732
 30
0.0
 10
231.783901
 20
23.128007
 30
0.0
 10
229.151104
 20
43.586792
 30
0.0
  0
SPLINE
  5
18b
100
AcDbEntity
  8
Layer_1
 62
7
100
AcDbSpline
 70
8
 71
3
 72
8
 73
4
 74
0
 40
0
 40
0
 40
0
 40
0
 40
1
 40
1
 40
1
 40
1
 10
229.151104
 20
43.586792
 30
0.0
 10
226.761887
 20
62.152490
 30
0.0
 10
211.118978
 20
75.772608
 30
0.0
 10
192.956965
 20
76.166291
 30
0.0
  0
SPLINE
  5
18c
100
AcDbEntity
  8
Layer_1
 62
7
100
AcDbSpline
 70
8
 71
3
 72
8
 73
4
 74
0
 40
0
 40
0
 40
0
 40
0
 40
1
 40
1
 40
1
 40
1
 10
192.956965
 20
76.166291
 30
0.0
 10
192.668697
 20
76.172557
 30
0.0
 10
192.382402
 20
76.175689
 30
0.0
 10
192.092890
 20
76.175125
 30
0.0
  0
LWPOLYLINE
  5
18d
100
AcDbEntity
  8
Layer_1
 62
7
100
AcDbPolyline
 90
3
 70
0
 10
111.323498
 20
4.218037
 30
0.0
 10
114.665190
 20
29.056087
 30
0.0
 10
114.665190
 20
29.056087
 30
0.0
  0
SPLINE
  5
18e
100
AcDbEntity
  8
Layer_1
 62
7
100
AcDbSpline
 70
8
 71
3
 72
8
 73
4
 74
0
 40
0
 40
0
 40
0
 40
0
 40
1
 40
1
 40
1
 40
1
 10
192.172246
 20
73.917920
 30
0.0
 10
193.691070
 20
73.915098
 30
0.0
 10
195.202827
 20
73.812567
 30
0.0
 10
196.713046
 20
73.609333
 30
0.0
  0
LWPOLYLINE
  5
18f
100
AcDbEntity
  8
Layer_1
 62
7
100
AcDbPolyline
 90
2
 70
0
 10
192.092890
 20
76.175125
 30
0.0
 10
192.092890
 20
76.175122
 30
0.0
  0
SPLINE
  5
190
100
AcDbEntity
  8
Layer_1
 62
7
100
AcDbSpline
 70
8
 71
3
 72
8
 73
4
 74
0
 40
0
 40
0
 40
0
 40
0
 40
1
 40
1
 40
1
 40
1
 10
193.380185
 20
48.780130
 30
0.0
 10
192.548981
 20
48.898576
 30
0.0
 10
191.686502
 20
48.916861
 30
0.0
 10
190.814415
 20
48.815399
 30
0.0
  0
LWPOLYLINE
  5
191
100
AcDbEntity
  8
Layer_1
 62
7
100
AcDbPolyline
 90
2
 70
0
 10
196.713046
 20
73.609333
 30
0.0
 10
193.380185
 20
48.780130
 30
0.0
  0
SPLINE
  5
192
100
AcDbEntity
  8
Layer_1
 62
7
100
AcDbSpline
 70
8
 71
3
 72
8
 73
4
 74
0
 40
0
 40
0
 40
0
 40
0
 40
1
 40
1
 40
1
 40
1
 10
187.622629
 20
73.626940
 30
0.0
 10
189.134002
 20
73.821482
 30
0.0
 10
190.653422
 20
73.920912
 30
0.0
 10
192.172246
 20
73.917920
 30
0.0
  0
LWPOLYLINE
  5
193
100
AcDbEntity
  8
Layer_1
 62
7
100
AcDbPolyline
 90
2
 70
0
 10
190.814415
 20
48.815399
 30
0.0
 10
187.622629
 20
73.626940
 30
0.0
  0
LWPOLYLINE
  5
194
100
AcDbEntity
  8
Layer_1
 62
7
100
AcDbPolyline
 90
2
 70
0
 10
192.172246
 20
73.917920
 30
0.0
 10
192.172246
 20
73.917920
 30
0.0
  0
SPLINE
  5
195
100
AcDbEntity
  8
Layer_1
 62
7
100
AcDbSpline
 70
8
 71
3
 72
8
 73
4
 74
0
 40
0
 40
0
 40
0
 40
0
 40
1
 40
1
 40
1
 40
1
 10
188.257459
 20
48.162899
 30
0.0
 10
187.449107
 20
47.839441
 30
0.0
 10
186.699584
 20
47.419350
 30
0.0
 10
186.017919
 20
46.910885
 30
0.0
  0
LWPOLYLINE
  5
196
100
AcDbEntity
  8
Layer_1
 62
7
100
AcDbPolyline
 90
2
 70
0
 10
178.735008
 20
71.334472
 30
0.0
 10
188.257459
 20
48.162899
 30
0.0
  0
SPLINE
  5
197
100
AcDbEntity
  8
Layer_1
 62
7
100
AcDbSpline
 70
8
 71
3
 72
8
 73
4
 74
0
 40
0
 40
0
 40
0
 40
0
 40
1
 40
1
 40
1
 40
1
 10
170.843713
 20
66.802463
 30
0.0
 10
173.267017
 20
68.650745
 30
0.0
 10
175.915910
 20
70.176331
 30
0.0
 10
178.735008
 20
71.334472
 30
0.0
  0
LWPOLYLINE
  5
198
100
AcDbEntity
  8
Layer_1
 62
7
100
AcDbPolyline
 90
2
 70
0
 10
186.017919
 20
46.910885
 30
0.0
 10
170.843713
 20
66.802463
 30
0.0
  0
SPLINE
  5
199
100
AcDbEntity
  8
Layer_1
 62
7
100
AcDbSpline
 70
8
 71
3
 72
8
 73
4
 74
0
 40
0
 40
0
 40
0
 40
0
 40
1
 40
1
 40
1
 40
1
 10
205.565398
 20
71.158128
 30
0.0
 10
208.377725
 20
69.983652
 30
0.0
 10
211.017773
 20
68.453152
 30
0.0
 10
213.430242
 20
66.590853
 30
0.0
  0
LWPOLYLINE
  5
19a
100
AcDbEntity
  8
Layer_1
 62
7
100
AcDbPolyline
 90
2
 70
0
 10
178.735008
 20
71.334472
 30
0.0
 10
178.735008
 20
71.334472
 30
0.0
  0
SPLINE
  5
19b
100
AcDbEntity
  8
Layer_1
 62
7
100
AcDbSpline
 70
8
 71
3
 72
8
 73
4
 74
0
 40
0
 40
0
 40
0
 40
0
 40
1
 40
1
 40
1
 40
1
 10
198.114962
 20
46.752146
 30
0.0
 10
197.440180
 20
47.281801
 30
0.0
 10
196.702903
 20
47.723817
 30
0.0
 10
195.910691
 20
48.065924
 30
0.0
  0
LWPOLYLINE
  5
19c
100
AcDbEntity
  8
Layer_1
 62
7
100
AcDbPolyline
 90
2
 70
0
 10
213.430242
 20
66.590853
 30
0.0
 10
198.114962
 20
46.752146
 30
0.0
  0
LWPOLYLINE
  5
19d
100
AcDbEntity
  8
Layer_1
 62
7
100
AcDbPolyline
 90
3
 70
0
 10
195.910691
 20
48.065924
 30
0.0
 10
205.565398
 20
71.158128
 30
0.0
 10
205.565398
 20
71.158128
 30
0.0
  0
SPLINE
  5
19e
100
AcDbEntity
  8
Layer_1
 62
7
100
AcDbSpline
 70
8
 71
3
 72
8
 73
4
 74
0
 40
0
 40
0
 40
0
 40
0
 40
1
 40
1
 40
1
 40
1
 10
184.131063
 20
45.068078
 30
0.0
 10
183.602097
 20
44.394924
 30
0.0
 10
183.168490
 20
43.662860
 30
0.0
 10
182.826132
 20
42.872587
 30
0.0
  0
LWPOLYLINE
  5
19f
100
AcDbEntity
  8
Layer_1
 62
7
100
AcDbPolyline
 90
2
 70
0
 10
164.310252
 20
60.374719
 30
0.0
 10
184.131063
 20
45.068078
 30
0.0
  0
SPLINE
  5
1a0
100
AcDbEntity
  8
Layer_1
 62
7
100
AcDbSpline
 70
8
 71
3
 72
8
 73
4
 74
0
 40
0
 40
0
 40
0
 40
0
 40
1
 40
1
 40
1
 40
1
 10
159.716549
 20
52.509784
 30
0.0
 10
160.891042
 20
55.322145
 30
0.0
 10
162.447887
 20
57.962221
 30
0.0
 10
164.310252
 20
60.374719
 30
0.0
  0
LWPOLYLINE
  5
1a1
100
AcDbEntity
  8
Layer_1
 62
7
100
AcDbPolyline
 90
2
 70
0
 10
182.826132
 20
42.872587
 30
0.0
 10
159.716549
 20
52.509784
 30
0.0
  0
SPLINE
  5
1a2
100
AcDbEntity
  8
Layer_1
 62
7
100
AcDbSpline
 70
8
 71
3
 72
8
 73
4
 74
0
 40
0
 40
0
 40
0
 40
0
 40
1
 40
1
 40
1
 40
1
 10
219.866715
 20
60.048470
 30
0.0
 10
221.715000
 20
57.625194
 30
0.0
 10
223.231778
 20
54.967454
 30
0.0
 10
224.389879
 20
52.148266
 30
0.0
  0
LWPOLYLINE
  5
1a3
100
AcDbEntity
  8
Layer_1
 62
7
100
AcDbPolyline
 90
2
 70
0
 10
164.310252
 20
60.374719
 30
0.0
 10
164.310252
 20
60.374719
 30
0.0
  0
SPLINE
  5
1a4
100
AcDbEntity
  8
Layer_1
 62
7
100
AcDbSpline
 70
8
 71
3
 72
8
 73
4
 74
0
 40
0
 40
0
 40
0
 40
0
 40
1
 40
1
 40
1
 40
1
 10
201.218577
 20
42.634535
 30
0.0
 10
200.895548
 20
43.439735
 30
0.0
 10
200.473200
 20
44.185964
 30
0.0
 10
199.966549
 20
44.865298
 30
0.0
  0
LWPOLYLINE
  5
1a5
100
AcDbEntity
  8
Layer_1
 62
7
100
AcDbPolyline
 90
2
 70
0
 10
224.389879
 20
52.148266
 30
0.0
 10
201.218577
 20
42.634535
 30
0.0
  0
LWPOLYLINE
  5
1a6
100
AcDbEntity
  8
Layer_1
 62
7
100
AcDbPolyline
 90
3
 70
0
 10
199.966549
 20
44.865298
 30
0.0
 10
219.866715
 20
60.048470
 30
0.0
 10
219.866715
 20
60.048470
 30
0.0
  0
SPLINE
  5
1a7
100
AcDbEntity
  8
Layer_1
 62
7
100
AcDbSpline
 70
8
 71
3
 72
8
 73
4
 74
0
 40
0
 40
0
 40
0
 40
0
 40
1
 40
1
 40
1
 40
1
 10
182.103133
 20
40.324430
 30
0.0
 10
181.984715
 20
39.492005
 30
0.0
 10
181.965529
 20
38.632068
 30
0.0
 10
182.067863
 20
37.758616
 30
0.0
  0
LWPOLYLINE
  5
1a8
100
AcDbEntity
  8
Layer_1
 62
7
100
AcDbPolyline
 90
2
 70
0
 10
157.283034
 20
43.666159
 30
0.0
 10
182.103133
 20
40.324430
 30
0.0
  0
SPLINE
  5
1a9
100
AcDbEntity
  8
Layer_1
 62
7
100
AcDbSpline
 70
8
 71
3
 72
8
 73
4
 74
0
 40
0
 40
0
 40
0
 40
0
 40
1
 40
1
 40
1
 40
1
 10
157.247768
 20
34.557990
 30
0.0
 10
156.858764
 20
37.580748
 30
0.0
 10
156.876431
 20
40.645659
 30
0.0
 10
157.283034
 20
43.666159
 30
0.0
  0
LWPOLYLINE
  5
1aa
100
AcDbEntity
  8
Layer_1
 62
7
100
AcDbPolyline
 90
2
 70
0
 10
182.067863
 20
37.758616
 30
0.0
 10
157.247768
 20
34.557990
 30
0.0
  0
SPLINE
  5
1ab
100
AcDbEntity
  8
Layer_1
 62
7
100
AcDbSpline
 70
8
 71
3
 72
8
 73
4
 74
0
 40
0
 40
0
 40
0
 40
0
 40
1
 40
1
 40
1
 40
1
 10
226.691139
 20
43.260541
 30
0.0
 10
227.080135
 20
40.237783
 30
0.0
 10
227.071374
 20
37.181703
 30
0.0
 10
226.664695
 20
34.161202
 30
0.0
  0
LWPOLYLINE
  5
1ac
100
AcDbEntity
  8
Layer_1
 62
7
100
AcDbPolyline
 90
2
 70
0
 10
157.283034
 20
43.666159
 30
0.0
 10
157.283034
 20
43.666159
 30
0.0
  0
SPLINE
  5
1ad
100
AcDbEntity
  8
Layer_1
 62
7
100
AcDbSpline
 70
8
 71
3
 72
8
 73
4
 74
0
 40
0
 40
0
 40
0
 40
0
 40
1
 40
1
 40
1
 40
1
 10
201.835774
 20
37.502931
 30
0.0
 10
201.953455
 20
38.333581
 30
0.0
 10
201.964248
 20
39.197410
 30
0.0
 10
201.862219
 20
40.068746
 30
0.0
  0
LWPOLYLINE
  5
1ae
100
AcDbEntity
  8
Layer_1
 62
7
100
AcDbPolyline
 90
2
 70
0
 10
226.664695
 20
34.161202
 30
0.0
 10
201.835774
 20
37.502931
 30
0.0
  0
LWPOLYLINE
  5
1af
100
AcDbEntity
  8
Layer_1
 62
7
100
AcDbPolyline
 90
3
 70
0
 10
201.862219
 20
40.068746
 30
0.0
 10
226.691134
 20
43.260541
 30
0.0
 10
226.691139
 20
43.260541
 30
0.0
  0
SPLINE
  5
1b0
100
AcDbEntity
  8
Layer_1
 62
7
100
AcDbSpline
 70
8
 71
3
 72
8
 73
4
 74
0
 40
0
 40
0
 40
0
 40
0
 40
1
 40
1
 40
1
 40
1
 10
193.829858
 20
40.148087
 30
0.0
 10
194.113215
 20
39.779259
 30
0.0
 10
194.288345
 20
39.317718
 30
0.0
 10
194.288345
 20
38.816678
 30
0.0
  0
SPLINE
  5
1b1
100
AcDbEntity
  8
Layer_1
 62
7
100
AcDbSpline
 70
8
 71
3
 72
8
 73
4
 74
0
 40
0
 40
0
 40
0
 40
0
 40
1
 40
1
 40
1
 40
1
 10
194.288345
 20
38.816678
 30
0.0
 10
194.288345
 20
38.315606
 30
0.0
 10
194.113215
 20
37.854122
 30
0.0
 10
193.829858
 20
37.485297
 30
0.0
  0
LWPOLYLINE
  5
1b2
100
AcDbEntity
  8
Layer_1
 62
7
100
AcDbPolyline
 90
2
 70
0
 10
190.364745
 20
40.148087
 30
0.0
 10
193.829858
 20
40.148087
 30
0.0
  0
SPLINE
  5
1b3
100
AcDbEntity
  8
Layer_1
 62
7
100
AcDbSpline
 70
8
 71
3
 72
8
 73
4
 74
0
 40
0
 40
0
 40
0
 40
0
 40
1
 40
1
 40
1
 40
1
 10
190.364745
 20
37.485297
 30
0.0
 10
190.081385
 20
37.854122
 30
0.0
 10
189.906255
 20
38.315606
 30
0.0
 10
189.906255
 20
38.816678
 30
0.0
  0
SPLINE
  5
1b4
100
AcDbEntity
  8
Layer_1
 62
7
100
AcDbSpline
 70
8
 71
3
 72
8
 73
4
 74
0
 40
0
 40
0
 40
0
 40
0
 40
1
 40
1
 40
1
 40
1
 10
189.906255
 20
38.816678
 30
0.0
 10
189.906255
 20
39.317747
 30
0.0
 10
190.081385
 20
39.779259
 30
0.0
 10
190.364745
 20
40.148087
 30
0.0
  0
LWPOLYLINE
  5
1b5
100
AcDbEntity
  8
Layer_1
 62
7
100
AcDbPolyline
 90
2
 70
0
 10
193.829858
 20
37.485297
 30
0.0
 10
190.364745
 20
37.485297
 30
0.0
  0
SPLINE
  5
1b6
100
AcDbEntity
  8
Layer_1
 62
7
100
AcDbSpline
 70
8
 71
3
 72
8
 73
4
 74
0
 40
0
 40
0
 40
0
 40
0
 40
1
 40
1
 40
1
 40
1
 10
182.720327
 20
35.210459
 30
0.0
 10
183.043133
 20
34.401791
 30
0.0
 10
183.464437
 20
33.653022
 30
0.0
 10
183.972355
 20
32.970896
 30
0.0
  0
LWPOLYLINE
  5
1b7
100
AcDbEntity
  8
Layer_1
 62
7
100
AcDbPolyline
 90
2
 70
0
 10
190.364745
 20
40.148087
 30
0.0
 10
190.364745
 20
40.148087
 30
0.0
  0
SPLINE
  5
1b8
100
AcDbEntity
  8
Layer_1
 62
7
100
AcDbSpline
 70
8
 71
3
 72
8
 73
4
 74
0
 40
0
 40
0
 40
0
 40
0
 40
1
 40
1
 40
1
 40
1
 10
164.081008
 20
17.787696
 30
0.0
 10
162.232721
 20
20.211028
 30
0.0
 10
160.707138
 20
22.868794
 30
0.0
 10
159.549025
 20
25.687898
 30
0.0
  0
LWPOLYLINE
  5
1b9
100
AcDbEntity
  8
Layer_1
 62
7
100
AcDbPolyline
 90
2
 70
0
 10
183.972355
 20
32.970896
 30
0.0
 10
164.081008
 20
17.787696
 30
0.0
  0
LWPOLYLINE
  5
1ba
100
AcDbEntity
  8
Layer_1
 62
7
100
AcDbPolyline
 90
3
 70
0
 10
159.549025
 20
25.687898
 30
0.0
 10
182.720327
 20
35.210459
 30
0.0
 10
182.720327
 20
35.210459
 30
0.0
  0
SPLINE
  5
1bb
100
AcDbEntity
  8
Layer_1
 62
7
100
AcDbSpline
 70
8
 71
3
 72
8
 73
4
 74
0
 40
0
 40
0
 40
0
 40
0
 40
1
 40
1
 40
1
 40
1
 10
224.213536
 20
25.326408
 30
0.0
 10
223.039017
 20
22.514046
 30
0.0
 10
221.499836
 20
19.856337
 30
0.0
 10
219.637469
 20
17.443811
 30
0.0
  0
LWPOLYLINE
  5
1bc
100
AcDbEntity
  8
Layer_1
 62
7
100
AcDbPolyline
 90
2
 70
0
 10
201.112772
 20
34.963580
 30
0.0
 10
224.213536
 20
25.326408
 30
0.0
  0
SPLINE
  5
1bd
100
AcDbEntity
  8
Layer_1
 62
7
100
AcDbSpline
 70
8
 71
3
 72
8
 73
4
 74
0
 40
0
 40
0
 40
0
 40
0
 40
1
 40
1
 40
1
 40
1
 10
199.799025
 20
32.759283
 30
0.0
 10
200.326357
 20
33.431167
 30
0.0
 10
200.771204
 20
34.175167
 30
0.0
 10
201.112772
 20
34.963580
 30
0.0
  0
LWPOLYLINE
  5
1be
100
AcDbEntity
  8
Layer_1
 62
7
100
AcDbPolyline
 90
2
 70
0
 10
219.637469
 20
17.443811
 30
0.0
 10
199.799025
 20
32.759283
 30
0.0
  0
SPLINE
  5
1bf
100
AcDbEntity
  8
Layer_1
 62
7
100
AcDbSpline
 70
8
 71
3
 72
8
 73
4
 74
0
 40
0
 40
0
 40
0
 40
0
 40
1
 40
1
 40
1
 40
1
 10
185.815125
 20
31.084018
 30
0.0
 10
186.488807
 20
30.555071
 30
0.0
 10
187.228567
 20
30.112346
 30
0.0
 10
188.019396
 20
29.770268
 30
0.0
  0
LWPOLYLINE
  5
1c0
100
AcDbEntity
  8
Layer_1
 62
7
100
AcDbPolyline
 90
2
 70
0
 10
201.112772
 20
34.963580
 30
0.0
 10
201.112772
 20
34.963580
 30
0.0
  0
SPLINE
  5
1c1
100
AcDbEntity
  8
Layer_1
 62
7
100
AcDbSpline
 70
8
 71
3
 72
8
 73
4
 74
0
 40
0
 40
0
 40
0
 40
0
 40
1
 40
1
 40
1
 40
1
 10
178.382323
 20
6.678027
 30
0.0
 10
175.570024
 20
7.852579
 30
0.0
 10
172.912343
 20
9.382873
 30
0.0
 10
170.499845
 20
11.245342
 30
0.0
  0
LWPOLYLINE
  5
1c2
100
AcDbEntity
  8
Layer_1
 62
7
100
AcDbPolyline
 90
2
 70
0
 10
188.019396
 20
29.770268
 30
0.0
 10
178.382323
 20
6.678027
 30
0.0
  0
LWPOLYLINE
  5
1c3
100
AcDbEntity
  8
Layer_1
 62
7
100
AcDbPolyline
 90
3
 70
0
 10
170.499845
 20
11.245342
 30
0.0
 10
185.815125
 20
31.084018
 30
0.0
 10
185.815125
 20
31.084018
 30
0.0
  0
SPLINE
  5
1c4
100
AcDbEntity
  8
Layer_1
 62
7
100
AcDbSpline
 70
8
 71
3
 72
8
 73
4
 74
0
 40
0
 40
0
 40
0
 40
0
 40
1
 40
1
 40
1
 40
1
 10
213.095194
 20
11.016121
 30
0.0
 10
210.671890
 20
9.167791
 30
0.0
 10
208.014181
 20
7.650903
 30
0.0
 10
205.195083
 20
6.492889
 30
0.0
  0
LWPOLYLINE
  5
1c5
100
AcDbEntity
  8
Layer_1
 62
7
100
AcDbPolyline
 90
2
 70
0
 10
197.920985
 20
30.925310
 30
0.0
 10
213.095194
 20
11.016121
 30
0.0
  0
SPLINE
  5
1c6
100
AcDbEntity
  8
Layer_1
 62
7
100
AcDbSpline
 70
8
 71
3
 72
8
 73
4
 74
0
 40
0
 40
0
 40
0
 40
0
 40
1
 40
1
 40
1
 40
1
 10
195.681448
 20
29.655632
 30
0.0
 10
196.490954
 20
29.979623
 30
0.0
 10
197.238501
 20
30.415828
 30
0.0
 10
197.920985
 20
30.925310
 30
0.0
  0
LWPOLYLINE
  5
1c7
100
AcDbEntity
  8
Layer_1
 62
7
100
AcDbPolyline
 90
2
 70
0
 10
205.195083
 20
6.492889
 30
0.0
 10
195.681448
 20
29.655632
 30
0.0
  0
SPLINE
  5
1c8
100
AcDbEntity
  8
Layer_1
 62
7
100
AcDbSpline
 70
8
 71
3
 72
8
 73
4
 74
0
 40
0
 40
0
 40
0
 40
0
 40
1
 40
1
 40
1
 40
1
 10
190.549903
 20
29.056062
 30
0.0
 10
191.382743
 20
28.937475
 30
0.0
 10
192.241836
 20
28.918346
 30
0.0
 10
193.115672
 20
29.020793
 30
0.0
  0
LWPOLYLINE
  5
1c9
100
AcDbEntity
  8
Layer_1
 62
7
100
AcDbPolyline
 90
2
 70
0
 10
197.920985
 20
30.925310
 30
0.0
 10
197.920985
 20
30.925310
 30
0.0
  0
SPLINE
  5
1ca
100
AcDbEntity
  8
Layer_1
 62
7
100
AcDbSpline
 70
8
 71
3
 72
8
 73
4
 74
0
 40
0
 40
0
 40
0
 40
0
 40
1
 40
1
 40
1
 40
1
 10
196.316278
 20
4.182759
 30
0.0
 10
193.293495
 20
3.793772
 30
0.0
 10
190.228691
 20
3.811355
 30
0.0
 10
187.208225
 20
4.218009
 30
0.0
  0
LWPOLYLINE
  5
1cb
100
AcDbEntity
  8
Layer_1
 62
7
100
AcDbPolyline
 90
2
 70
0
 10
193.115672
 20
29.020793
 30
0.0
 10
196.316278
 20
4.182759
 30
0.0
  0
SPLINE
  5
1cc
100
AcDbEntity
  8
Layer_1
 62
7
100
AcDbSpline
 70
8
 71
3
 72
8
 73
4
 74
0
 40
0
 40
0
 40
0
 40
0
 40
1
 40
1
 40
1
 40
1
 10
267.977609
 20
76.175122
 30
0.0
 10
266.407350
 20
76.172300
 30
0.0
 10
264.814713
 20
76.072167
 30
0.0
 10
263.216382
 20
75.866535
 30
0.0
  0
SPLINE
  5
1cd
100
AcDbEntity
  8
Layer_1
 62
7
100
AcDbSpline
 70
8
 71
3
 72
8
 73
4
 74
0
 40
0
 40
0
 40
0
 40
0
 40
1
 40
1
 40
1
 40
1
 10
263.216382
 20
75.866535
 30
0.0
 10
242.757867
 20
73.233621
 30
0.0
 10
228.304214
 20
54.505377
 30
0.0
 10
230.937034
 20
34.046589
 30
0.0
  0
SPLINE
  5
1ce
100
AcDbEntity
  8
Layer_1
 62
7
100
AcDbSpline
 70
8
 71
3
 72
8
 73
4
 74
0
 40
0
 40
0
 40
0
 40
0
 40
1
 40
1
 40
1
 40
1
 10
230.937034
 20
34.046589
 30
0.0
 10
233.569851
 20
13.587871
 30
0.0
 10
252.297952
 20
-0.865999
 30
0.0
 10
272.756469
 20
1.766880
 30
0.0
  0
SPLINE
  5
1cf
100
AcDbEntity
  8
Layer_1
 62
7
100
AcDbSpline
 70
8
 71
3
 72
8
 73
4
 74
0
 40
0
 40
0
 40
0
 40
0
 40
1
 40
1
 40
1
 40
1
 10
272.756469
 20
1.766880
 30
0.0
 10
293.214975
 20
4.399732
 30
0.0
 10
307.668676
 20
23.128001
 30
0.0
 10
305.035825
 20
43.586789
 30
0.0
  0
SPLINE
  5
1d0
100
AcDbEntity
  8
Layer_1
 62
7
100
AcDbSpline
 70
8
 71
3
 72
8
 73
4
 74
0
 40
0
 40
0
 40
0
 40
0
 40
1
 40
1
 40
1
 40
1
 10
305.035825
 20
43.586789
 30
0.0
 10
302.646616
 20
62.152516
 30
0.0
 10
287.003688
 20
75.772637
 30
0.0
 10
268.841683
 20
76.166291
 30
0.0
  0
SPLINE
  5
1d1
100
AcDbEntity
  8
Layer_1
 62
7
100
AcDbSpline
 70
8
 71
3
 72
8
 73
4
 74
0
 40
0
 40
0
 40
0
 40
0
 40
1
 40
1
 40
1
 40
1
 10
268.841683
 20
76.166291
 30
0.0
 10
268.553413
 20
76.172528
 30
0.0
 10
268.267121
 20
76.175689
 30
0.0
 10
267.977609
 20
76.175125
 30
0.0
  0
LWPOLYLINE
  5
1d2
100
AcDbEntity
  8
Layer_1
 62
7
100
AcDbPolyline
 90
3
 70
0
 10
187.208225
 20
4.218009
 30
0.0
 10
190.549903
 20
29.056062
 30
0.0
 10
190.549903
 20
29.056062
 30
0.0
  0
SPLINE
  5
1d3
100
AcDbEntity
  8
Layer_1
 62
7
100
AcDbSpline
 70
8
 71
3
 72
8
 73
4
 74
0
 40
0
 40
0
 40
0
 40
0
 40
1
 40
1
 40
1
 40
1
 10
268.056964
 20
73.917920
 30
0.0
 10
269.575785
 20
73.915098
 30
0.0
 10
271.087545
 20
73.812538
 30
0.0
 10
272.597761
 20
73.609333
 30
0.0
  0
LWPOLYLINE
  5
1d4
100
AcDbEntity
  8
Layer_1
 62
7
100
AcDbPolyline
 90
2
 70
0
 10
267.977609
 20
76.175125
 30
0.0
 10
267.977609
 20
76.175122
 30
0.0
  0
SPLINE
  5
1d5
100
AcDbEntity
  8
Layer_1
 62
7
100
AcDbSpline
 70
8
 71
3
 72
8
 73
4
 74
0
 40
0
 40
0
 40
0
 40
0
 40
1
 40
1
 40
1
 40
1
 10
269.264903
 20
48.780127
 30
0.0
 10
268.433700
 20
48.898604
 30
0.0
 10
267.571220
 20
48.916886
 30
0.0
 10
266.699131
 20
48.815396
 30
0.0
  0
LWPOLYLINE
  5
1d6
100
AcDbEntity
  8
Layer_1
 62
7
100
AcDbPolyline
 90
2
 70
0
 10
272.597761
 20
73.609333
 30
0.0
 10
269.264903
 20
48.780127
 30
0.0
  0
SPLINE
  5
1d7
100
AcDbEntity
  8
Layer_1
 62
7
100
AcDbSpline
 70
8
 71
3
 72
8
 73
4
 74
0
 40
0
 40
0
 40
0
 40
0
 40
1
 40
1
 40
1
 40
1
 10
263.507347
 20
73.626940
 30
0.0
 10
265.018720
 20
73.821482
 30
0.0
 10
266.538140
 20
73.920912
 30
0.0
 10
268.056964
 20
73.917920
 30
0.0
  0
LWPOLYLINE
  5
1d8
100
AcDbEntity
  8
Layer_1
 62
7
100
AcDbPolyline
 90
2
 70
0
 10
266.699131
 20
48.815396
 30
0.0
 10
263.507347
 20
73.626940
 30
0.0
  0
LWPOLYLINE
  5
1d9
100
AcDbEntity
  8
Layer_1
 62
7
100
AcDbPolyline
 90
2
 70
0
 10
268.056964
 20
73.917920
 30
0.0
 10
268.056964
 20
73.917920
 30
0.0
  0
SPLINE
  5
1da
100
AcDbEntity
  8
Layer_1
 62
7
100
AcDbSpline
 70
8
 71
3
 72
8
 73
4
 74
0
 40
0
 40
0
 40
0
 40
0
 40
1
 40
1
 40
1
 40
1
 10
264.142175
 20
48.162896
 30
0.0
 10
263.333825
 20
47.839469
 30
0.0
 10
262.584303
 20
47.419319
 30
0.0
 10
261.902637
 20
46.910882
 30
0.0
  0
LWPOLYLINE
  5
1db
100
AcDbEntity
  8
Layer_1
 62
7
100
AcDbPolyline
 90
2
 70
0
 10
254.619726
 20
71.334472
 30
0.0
 10
264.142175
 20
48.162896
 30
0.0
  0
SPLINE
  5
1dc
100
AcDbEntity
  8
Layer_1
 62
7
100
AcDbSpline
 70
8
 71
3
 72
8
 73
4
 74
0
 40
0
 40
0
 40
0
 40
0
 40
1
 40
1
 40
1
 40
1
 10
246.728432
 20
66.802463
 30
0.0
 10
249.151735
 20
68.650745
 30
0.0
 10
251.800625
 20
70.176303
 30
0.0
 10
254.619726
 20
71.334472
 30
0.0
  0
LWPOLYLINE
  5
1dd
100
AcDbEntity
  8
Layer_1
 62
7
100
AcDbPolyline
 90
2
 70
0
 10
261.902637
 20
46.910882
 30
0.0
 10
246.728432
 20
66.802463
 30
0.0
  0
SPLINE
  5
1de
100
AcDbEntity
  8
Layer_1
 62
7
100
AcDbSpline
 70
8
 71
3
 72
8
 73
4
 74
0
 40
0
 40
0
 40
0
 40
0
 40
1
 40
1
 40
1
 40
1
 10
281.450116
 20
71.158128
 30
0.0
 10
284.262435
 20
69.983621
 30
0.0
 10
286.902483
 20
68.453152
 30
0.0
 10
289.314946
 20
66.590853
 30
0.0
  0
LWPOLYLINE
  5
1df
100
AcDbEntity
  8
Layer_1
 62
7
100
AcDbPolyline
 90
2
 70
0
 10
254.619726
 20
71.334472
 30
0.0
 10
254.619726
 20
71.334472
 30
0.0
  0
SPLINE
  5
1e0
100
AcDbEntity
  8
Layer_1
 62
7
100
AcDbSpline
 70
8
 71
3
 72
8
 73
4
 74
0
 40
0
 40
0
 40
0
 40
0
 40
1
 40
1
 40
1
 40
1
 10
273.999678
 20
46.752146
 30
0.0
 10
273.324896
 20
47.281826
 30
0.0
 10
272.587618
 20
47.723814
 30
0.0
 10
271.795407
 20
48.065921
 30
0.0
  0
LWPOLYLINE
  5
1e1
100
AcDbEntity
  8
Layer_1
 62
7
100
AcDbPolyline
 90
2
 70
0
 10
289.314946
 20
66.590853
 30
0.0
 10
273.999678
 20
46.752146
 30
0.0
  0
LWPOLYLINE
  5
1e2
100
AcDbEntity
  8
Layer_1
 62
7
100
AcDbPolyline
 90
3
 70
0
 10
271.795407
 20
48.065921
 30
0.0
 10
281.450116
 20
71.158128
 30
0.0
 10
281.450116
 20
71.158128
 30
0.0
  0
SPLINE
  5
1e3
100
AcDbEntity
  8
Layer_1
 62
7
100
AcDbSpline
 70
8
 71
3
 72
8
 73
4
 74
0
 40
0
 40
0
 40
0
 40
0
 40
1
 40
1
 40
1
 40
1
 10
260.015781
 20
45.068075
 30
0.0
 10
259.486812
 20
44.394924
 30
0.0
 10
259.053209
 20
43.662829
 30
0.0
 10
258.710851
 20
42.872584
 30
0.0
  0
LWPOLYLINE
  5
1e4
100
AcDbEntity
  8
Layer_1
 62
7
100
AcDbPolyline
 90
2
 70
0
 10
240.194973
 20
60.374719
 30
0.0
 10
260.015781
 20
45.068075
 30
0.0
  0
SPLINE
  5
1e5
100
AcDbEntity
  8
Layer_1
 62
7
100
AcDbSpline
 70
8
 71
3
 72
8
 73
4
 74
0
 40
0
 40
0
 40
0
 40
0
 40
1
 40
1
 40
1
 40
1
 10
235.601270
 20
52.509784
 30
0.0
 10
236.775760
 20
55.322145
 30
0.0
 10
238.332608
 20
57.962221
 30
0.0
 10
240.194973
 20
60.374719
 30
0.0
  0
LWPOLYLINE
  5
1e6
100
AcDbEntity
  8
Layer_1
 62
7
100
AcDbPolyline
 90
2
 70
0
 10
258.710851
 20
42.872584
 30
0.0
 10
235.601270
 20
52.509784
 30
0.0
  0
SPLINE
  5
1e7
100
AcDbEntity
  8
Layer_1
 62
7
100
AcDbSpline
 70
8
 71
3
 72
8
 73
4
 74
0
 40
0
 40
0
 40
0
 40
0
 40
1
 40
1
 40
1
 40
1
 10
295.751419
 20
60.048467
 30
0.0
 10
297.599721
 20
57.625192
 30
0.0
 10
299.116552
 20
54.967454
 30
0.0
 10
300.274595
 20
52.148266
 30
0.0
  0
LWPOLYLINE
  5
1e8
100
AcDbEntity
  8
Layer_1
 62
7
100
AcDbPolyline
 90
2
 70
0
 10
240.194973
 20
60.374719
 30
0.0
 10
240.194973
 20
60.374719
 30
0.0
  0
SPLINE
  5
1e9
100
AcDbEntity
  8
Layer_1
 62
7
100
AcDbSpline
 70
8
 71
3
 72
8
 73
4
 74
0
 40
0
 40
0
 40
0
 40
0
 40
1
 40
1
 40
1
 40
1
 10
277.103292
 20
42.634532
 30
0.0
 10
276.780264
 20
43.439732
 30
0.0
 10
276.357915
 20
44.185964
 30
0.0
 10
275.851264
 20
44.865296
 30
0.0
  0
LWPOLYLINE
  5
1ea
100
AcDbEntity
  8
Layer_1
 62
7
100
AcDbPolyline
 90
2
 70
0
 10
300.274595
 20
52.148266
 30
0.0
 10
277.103292
 20
42.634532
 30
0.0
  0
LWPOLYLINE
  5
1eb
100
AcDbEntity
  8
Layer_1
 62
7
100
AcDbPolyline
 90
3
 70
0
 10
275.851264
 20
44.865296
 30
0.0
 10
295.751419
 20
60.048467
 30
0.0
 10
295.751419
 20
60.048467
 30
0.0
  0
SPLINE
  5
1ec
100
AcDbEntity
  8
Layer_1
 62
7
100
AcDbSpline
 70
8
 71
3
 72
8
 73
4
 74
0
 40
0
 40
0
 40
0
 40
0
 40
1
 40
1
 40
1
 40
1
 10
257.987851
 20
40.324428
 30
0.0
 10
257.869433
 20
39.492002
 30
0.0
 10
257.850248
 20
38.632009
 30
0.0
 10
257.952581
 20
37.758613
 30
0.0
  0
LWPOLYLINE
  5
1ed
100
AcDbEntity
  8
Layer_1
 62
7
100
AcDbPolyline
 90
2
 70
0
 10
233.167755
 20
43.666159
 30
0.0
 10
257.987851
 20
40.324428
 30
0.0
  0
SPLINE
  5
1ee
100
AcDbEntity
  8
Layer_1
 62
7
100
AcDbSpline
 70
8
 71
3
 72
8
 73
4
 74
0
 40
0
 40
0
 40
0
 40
0
 40
1
 40
1
 40
1
 40
1
 10
233.132486
 20
34.557987
 30
0.0
 10
232.743485
 20
37.580745
 30
0.0
 10
232.761152
 20
40.645656
 30
0.0
 10
233.167755
 20
43.666159
 30
0.0
  0
LWPOLYLINE
  5
1ef
100
AcDbEntity
  8
Layer_1
 62
7
100
AcDbPolyline
 90
2
 70
0
 10
257.952581
 20
37.758613
 30
0.0
 10
233.132486
 20
34.557987
 30
0.0
  0
SPLINE
  5
1f0
100
AcDbEntity
  8
Layer_1
 62
7
100
AcDbSpline
 70
8
 71
3
 72
8
 73
4
 74
0
 40
0
 40
0
 40
0
 40
0
 40
1
 40
1
 40
1
 40
1
 10
302.575863
 20
43.260541
 30
0.0
 10
302.964850
 20
40.237780
 30
0.0
 10
302.956101
 20
37.181700
 30
0.0
 10
302.549334
 20
34.161199
 30
0.0
  0
LWPOLYLINE
  5
1f1
100
AcDbEntity
  8
Layer_1
 62
7
100
AcDbPolyline
 90
2
 70
0
 10
233.167755
 20
43.666159
 30
0.0
 10
233.167755
 20
43.666159
 30
0.0
  0
SPLINE
  5
1f2
100
AcDbEntity
  8
Layer_1
 62
7
100
AcDbSpline
 70
8
 71
3
 72
8
 73
4
 74
0
 40
0
 40
0
 40
0
 40
0
 40
1
 40
1
 40
1
 40
1
 10
277.720405
 20
37.502928
 30
0.0
 10
277.838089
 20
38.333578
 30
0.0
 10
277.848881
 20
39.197379
 30
0.0
 10
277.746849
 20
40.068743
 30
0.0
  0
LWPOLYLINE
  5
1f3
100
AcDbEntity
  8
Layer_1
 62
7
100
AcDbPolyline
 90
2
 70
0
 10
302.549334
 20
34.161199
 30
0.0
 10
277.720405
 20
37.502928
 30
0.0
  0
LWPOLYLINE
  5
1f4
100
AcDbEntity
  8
Layer_1
 62
7
100
AcDbPolyline
 90
3
 70
0
 10
277.746849
 20
40.068743
 30
0.0
 10
302.575750
 20
43.260541
 30
0.0
 10
302.575863
 20
43.260541
 30
0.0
  0
SPLINE
  5
1f5
100
AcDbEntity
  8
Layer_1
 62
7
100
AcDbSpline
 70
8
 71
3
 72
8
 73
4
 74
0
 40
0
 40
0
 40
0
 40
0
 40
1
 40
1
 40
1
 40
1
 10
269.714574
 20
40.148084
 30
0.0
 10
269.997930
 20
39.779259
 30
0.0
 10
270.173063
 20
39.317744
 30
0.0
 10
270.173063
 20
38.816675
 30
0.0
  0
SPLINE
  5
1f6
100
AcDbEntity
  8
Layer_1
 62
7
100
AcDbSpline
 70
8
 71
3
 72
8
 73
4
 74
0
 40
0
 40
0
 40
0
 40
0
 40
1
 40
1
 40
1
 40
1
 10
270.173063
 20
38.816675
 30
0.0
 10
270.173063
 20
38.315632
 30
0.0
 10
269.997930
 20
37.854120
 30
0.0
 10
269.714574
 20
37.485295
 30
0.0
  0
LWPOLYLINE
  5
1f7
100
AcDbEntity
  8
Layer_1
 62
7
100
AcDbPolyline
 90
2
 70
0
 10
266.249460
 20
40.148084
 30
0.0
 10
269.714574
 20
40.148084
 30
0.0
  0
SPLINE
  5
1f8
100
AcDbEntity
  8
Layer_1
 62
7
100
AcDbSpline
 70
8
 71
3
 72
8
 73
4
 74
0
 40
0
 40
0
 40
0
 40
0
 40
1
 40
1
 40
1
 40
1
 10
266.249460
 20
37.485295
 30
0.0
 10
265.966104
 20
37.854120
 30
0.0
 10
265.790974
 20
38.315632
 30
0.0
 10
265.790974
 20
38.816675
 30
0.0
  0
SPLINE
  5
1f9
100
AcDbEntity
  8
Layer_1
 62
7
100
AcDbSpline
 70
8
 71
3
 72
8
 73
4
 74
0
 40
0
 40
0
 40
0
 40
0
 40
1
 40
1
 40
1
 40
1
 10
265.790974
 20
38.816675
 30
0.0
 10
265.790974
 20
39.317716
 30
0.0
 10
265.966104
 20
39.779259
 30
0.0
 10
266.249460
 20
40.148084
 30
0.0
  0
LWPOLYLINE
  5
1fa
100
AcDbEntity
  8
Layer_1
 62
7
100
AcDbPolyline
 90
2
 70
0
 10
269.714574
 20
37.485295
 30
0.0
 10
266.249460
 20
37.485295
 30
0.0
  0
SPLINE
  5
1fb
100
AcDbEntity
  8
Layer_1
 62
7
100
AcDbSpline
 70
8
 71
3
 72
8
 73
4
 74
0
 40
0
 40
0
 40
0
 40
0
 40
1
 40
1
 40
1
 40
1
 10
258.605045
 20
35.210456
 30
0.0
 10
258.927851
 20
34.401788
 30
0.0
 10
259.349155
 20
33.653019
 30
0.0
 10
259.857073
 20
32.970893
 30
0.0
  0
LWPOLYLINE
  5
1fc
100
AcDbEntity
  8
Layer_1
 62
7
100
AcDbPolyline
 90
2
 70
0
 10
266.249460
 20
40.148084
 30
0.0
 10
266.249460
 20
40.148084
 30
0.0
  0
SPLINE
  5
1fd
100
AcDbEntity
  8
Layer_1
 62
7
100
AcDbSpline
 70
8
 71
3
 72
8
 73
4
 74
0
 40
0
 40
0
 40
0
 40
0
 40
1
 40
1
 40
1
 40
1
 10
239.965727
 20
17.787691
 30
0.0
 10
238.117442
 20
20.211023
 30
0.0
 10
236.591859
 20
22.868791
 30
0.0
 10
235.433746
 20
25.687895
 30
0.0
  0
LWPOLYLINE
  5
1fe
100
AcDbEntity
  8
Layer_1
 62
7
100
AcDbPolyline
 90
2
 70
0
 10
259.857073
 20
32.970893
 30
0.0
 10
239.965727
 20
17.787691
 30
0.0
  0
LWPOLYLINE
  5
1ff
100
AcDbEntity
  8
Layer_1
 62
7
100
AcDbPolyline
 90
3
 70
0
 10
235.433746
 20
25.687895
 30
0.0
 10
258.605045
 20
35.210456
 30
0.0
 10
258.605045
 20
35.210456
 30
0.0
  0
SPLINE
  5
200
100
AcDbEntity
  8
Layer_1
 62
7
100
AcDbSpline
 70
8
 71
3
 72
8
 73
4
 74
0
 40
0
 40
0
 40
0
 40
0
 40
1
 40
1
 40
1
 40
1
 10
300.098262
 20
25.326405
 30
0.0
 10
298.923766
 20
22.514044
 30
0.0
 10
297.384555
 20
19.856331
 30
0.0
 10
295.522170
 20
17.443806
 30
0.0
  0
LWPOLYLINE
  5
201
100
AcDbEntity
  8
Layer_1
 62
7
100
AcDbPolyline
 90
2
 70
0
 10
276.997487
 20
34.963577
 30
0.0
 10
300.098262
 20
25.326405
 30
0.0
  0
SPLINE
  5
202
100
AcDbEntity
  8
Layer_1
 62
7
100
AcDbSpline
 70
8
 71
3
 72
8
 73
4
 74
0
 40
0
 40
0
 40
0
 40
0
 40
1
 40
1
 40
1
 40
1
 10
275.683740
 20
32.759280
 30
0.0
 10
276.211072
 20
33.431164
 30
0.0
 10
276.655919
 20
34.175164
 30
0.0
 10
276.997487
 20
34.963577
 30
0.0
  0
LWPOLYLINE
  5
203
100
AcDbEntity
  8
Layer_1
 62
7
100
AcDbPolyline
 90
2
 70
0
 10
295.522170
 20
17.443806
 30
0.0
 10
275.683740
 20
32.759280
 30
0.0
  0
SPLINE
  5
204
100
AcDbEntity
  8
Layer_1
 62
7
100
AcDbSpline
 70
8
 71
3
 72
8
 73
4
 74
0
 40
0
 40
0
 40
0
 40
0
 40
1
 40
1
 40
1
 40
1
 10
261.699843
 20
31.084015
 30
0.0
 10
262.373525
 20
30.555068
 30
0.0
 10
263.113286
 20
30.112287
 30
0.0
 10
263.904115
 20
29.770265
 30
0.0
  0
LWPOLYLINE
  5
205
100
AcDbEntity
  8
Layer_1
 62
7
100
AcDbPolyline
 90
2
 70
0
 10
276.997487
 20
34.963577
 30
0.0
 10
276.997487
 20
34.963577
 30
0.0
  0
SPLINE
  5
206
100
AcDbEntity
  8
Layer_1
 62
7
100
AcDbSpline
 70
8
 71
3
 72
8
 73
4
 74
0
 40
0
 40
0
 40
0
 40
0
 40
1
 40
1
 40
1
 40
1
 10
254.267041
 20
6.678027
 30
0.0
 10
251.454742
 20
7.852579
 30
0.0
 10
248.797064
 20
9.382873
 30
0.0
 10
246.384566
 20
11.245370
 30
0.0
  0
LWPOLYLINE
  5
207
100
AcDbEntity
  8
Layer_1
 62
7
100
AcDbPolyline
 90
2
 70
0
 10
263.904115
 20
29.770265
 30
0.0
 10
254.267041
 20
6.678027
 30
0.0
  0
LWPOLYLINE
  5
208
100
AcDbEntity
  8
Layer_1
 62
7
100
AcDbPolyline
 90
3
 70
0
 10
246.384566
 20
11.245370
 30
0.0
 10
261.699843
 20
31.084015
 30
0.0
 10
261.699843
 20
31.084015
 30
0.0
  0
SPLINE
  5
209
100
AcDbEntity
  8
Layer_1
 62
7
100
AcDbSpline
 70
8
 71
3
 72
8
 73
4
 74
0
 40
0
 40
0
 40
0
 40
0
 40
1
 40
1
 40
1
 40
1
 10
288.979892
 20
11.016121
 30
0.0
 10
286.556591
 20
9.167791
 30
0.0
 10
283.898876
 20
7.650932
 30
0.0
 10
281.079798
 20
6.492889
 30
0.0
  0
LWPOLYLINE
  5
20a
100
AcDbEntity
  8
Layer_1
 62
7
100
AcDbPolyline
 90
2
 70
0
 10
273.805704
 20
30.925304
 30
0.0
 10
288.979892
 20
11.016121
 30
0.0
  0
SPLINE
  5
20b
100
AcDbEntity
  8
Layer_1
 62
7
100
AcDbSpline
 70
8
 71
3
 72
8
 73
4
 74
0
 40
0
 40
0
 40
0
 40
0
 40
1
 40
1
 40
1
 40
1
 10
271.566163
 20
29.655629
 30
0.0
 10
272.375670
 20
29.979620
 30
0.0
 10
273.123217
 20
30.415825
 30
0.0
 10
273.805704
 20
30.925304
 30
0.0
  0
LWPOLYLINE
  5
20c
100
AcDbEntity
  8
Layer_1
 62
7
100
AcDbPolyline
 90
2
 70
0
 10
281.079798
 20
6.492889
 30
0.0
 10
271.566163
 20
29.655629
 30
0.0
  0
SPLINE
  5
20d
100
AcDbEntity
  8
Layer_1
 62
7
100
AcDbSpline
 70
8
 71
3
 72
8
 73
4
 74
0
 40
0
 40
0
 40
0
 40
0
 40
1
 40
1
 40
1
 40
1
 10
266.434621
 20
29.056059
 30
0.0
 10
267.267461
 20
28.937472
 30
0.0
 10
268.126554
 20
28.918343
 30
0.0
 10
269.000391
 20
29.020790
 30
0.0
  0
LWPOLYLINE
  5
20e
100
AcDbEntity
  8
Layer_1
 62
7
100
AcDbPolyline
 90
2
 70
0
 10
273.805704
 20
30.925304
 30
0.0
 10
273.805704
 20
30.925304
 30
0.0
  0
SPLINE
  5
20f
100
AcDbEntity
  8
Layer_1
 62
7
100
AcDbSpline
 70
8
 71
3
 72
8
 73
4
 74
0
 40
0
 40
0
 40
0
 40
0
 40
1
 40
1
 40
1
 40
1
 10
272.200994
 20
4.182759
 30
0.0
 10
269.178213
 20
3.793772
 30
0.0
 10
266.113410
 20
3.811355
 30
0.0
 10
263.092943
 20
4.218009
 30
0.0
  0
LWPOLYLINE
  5
210
100
AcDbEntity
  8
Layer_1
 62
7
100
AcDbPolyline
 90
2
 70
0
 10
269.000391
 20
29.020790
 30
0.0
 10
272.200994
 20
4.182759
 30
0.0
  0
LWPOLYLINE
  5
211
100
AcDbEntity
  8
Layer_1
 62
7
100
AcDbPolyline
 90
3
 70
0
 10
263.092943
 20
4.218009
 30
0.0
 10
266.434621
 20
29.056059
 30
0.0
 10
266.434621
 20
29.056059
 30
0.0
  0
ENDSEC
  0
SECTION
  2
OBJECTS
  0
DICTIONARY
  5
C
330
0
100
AcDbDictionary
  3
ACAD_GROUP
350
D
  3
ACAD_MLINESTYLE
350
17
  0
DICTIONARY
  5
D
330
C
100
AcDbDictionary
  0
DICTIONARY
  5
1A
330
C
100
AcDbDictionary
  0
DICTIONARY
  5
17
330
C
100
AcDbDictionary
  3
STANDARD
350
18
  0
DICTIONARY
  5
19
330
C
100
AcDbDictionary
  0
ENDSEC
  0
EOF
